<?xml version="1.0" standalone="no"?>
<!DOCTYPE svg PUBLIC "-//W3C//DTD SVG 1.1//EN" "http://www.w3.org/Graphics/SVG/1.1/DTD/svg11.dtd" >
<svg xmlns="http://www.w3.org/2000/svg" xmlns:xlink="http://www.w3.org/1999/xlink" version="1.1">
<metadata></metadata>
<defs>
<font id="neotericbold" horiz-adv-x="2086" >
<font-face units-per-em="2048" ascent="1675" descent="-373" />
<missing-glyph horiz-adv-x="655" />
<glyph horiz-adv-x="0" />
<glyph unicode="&#xd;" horiz-adv-x="614" />
<glyph horiz-adv-x="0" />
<glyph horiz-adv-x="0" />
<glyph unicode="&#xa;" horiz-adv-x="0" />
<glyph horiz-adv-x="0" />
<glyph unicode=" "  horiz-adv-x="655" />
<glyph unicode="&#x09;" horiz-adv-x="655" />
<glyph unicode="&#xa0;" horiz-adv-x="655" />
<glyph unicode="!" horiz-adv-x="335" d="M164 74q-1 65 69 65q25 0 43.5 -17.5t18.5 -47.5q0 -35 -18.5 -50.5t-43.5 -15.5q-70 0 -69 66zM172 178v1170h119v-1170h-119z" />
<glyph unicode="&#x22;" horiz-adv-x="479" d="M115 1262v233h123v-233h-123zM274 1262v233h123v-233h-123z" />
<glyph unicode="#" horiz-adv-x="1245" d="M8 500l29 114h297l37 142l7 21t7 26h-301l29 115h299l75 296h119l-76 -296h269l75 296h115l-69 -296h278l-29 -115h-280l-51 -189h284l-28 -114h-281q-23 -90 -49.5 -186.5t-48.5 -186.5q-23 0 -50.5 1t-39.5 1h-27l98 371h-270l-84 -328q-2 -10 -6 -23.5t-6 -21.5 q-23 0 -50.5 1t-39.5 1h-29l98 371h-301zM449 614h274q12 45 20.5 75t12.5 49.5t7 33.5t7 27l2 4h-270z" />
<glyph unicode="$" horiz-adv-x="763" d="M23 178l30 101l72 -19q29 -10 75 -21.5t93 -13.5v412q-51 8 -99.5 27.5t-85 54.5t-59 85t-22.5 120q0 111 70.5 189.5t195.5 105.5v129h117v-113h28q25 0 57.5 -5t68.5 -14.5t70 -19.5t60 -22l-28 -111q-86 33 -141.5 45t-114.5 14v-383q47 -4 93 -18t93 -47 q59 -41 92 -106.5t33 -135.5t-23.5 -125t-65.5 -95t-98.5 -64.5t-123.5 -30.5v-152h-117v148q-63 6 -137 24.5t-133 40.5zM139 905q0 -35 19.5 -66.5t50.5 -54.5h2q18 -16 38.5 -23t43.5 -11v356q-63 -20 -108.5 -67.5t-45.5 -133.5zM410 225q82 10 140 65.5t58 151.5 q0 27 -9 54t-19 43q-35 51 -79 68.5t-91 21.5v-404z" />
<glyph unicode="%" horiz-adv-x="1673" d="M86 1047q0 86 25.5 166.5t70.5 143t107.5 100.5t138.5 38t137.5 -38t105.5 -100.5t68.5 -143t24.5 -166.5t-24.5 -165t-68.5 -140.5t-105.5 -98.5t-137.5 -37t-138.5 37t-107.5 98.5t-70.5 140.5t-25.5 165zM201 1047q0 -59 16 -117t47 -103t73 -73.5t91 -28.5t89 28.5 t68.5 73.5t44 103t15.5 117q0 61 -15.5 121.5t-44 106.5t-68.5 74.5t-89 28.5t-91 -28.5t-73 -74.5t-47 -106.5t-16 -121.5zM227 0l1016 1493h131l-1014 -1493h-133zM850 424q0 86 25.5 167t70.5 142.5t107.5 99t136.5 37.5q76 0 137.5 -37.5t106.5 -99t69.5 -142.5 t24.5 -167t-24.5 -166t-69.5 -141.5t-106.5 -98t-137.5 -36.5q-74 0 -136.5 36.5t-107.5 98t-70.5 141.5t-25.5 166zM967 424q0 -59 16 -116.5t46 -103.5t71 -75t90 -29t90 29t69.5 75t44 103.5t15.5 116.5q0 61 -15.5 119.5t-44 105.5t-69.5 76t-90 29t-90 -29t-71 -76 t-46 -105.5t-16 -119.5z" />
<glyph unicode="&#x26;" horiz-adv-x="1280" d="M100 934q0 78 31 153.5t85 135t126 95.5t156 36q113 0 206 -65.5t158 -170.5l-96 -65q-47 86 -117.5 137t-144.5 51q-59 0 -112.5 -25.5t-92.5 -66.5t-61.5 -95.5t-22.5 -109.5q0 -59 28.5 -101t73.5 -67.5t102.5 -37t115.5 -11.5q18 0 36.5 1t59.5 5v-127q-45 8 -57.5 9 t-18.5 1q-57 0 -116.5 -18t-108.5 -53t-80 -83t-31 -110q0 -53 23.5 -98t62.5 -77t88 -49t101 -17h16v-2q61 2 120.5 26.5t108.5 64.5t87 92t61 109q-16 6 -34.5 11.5t-37.5 5.5q-25 0 -50.5 -19.5t-53.5 -66.5l-97 69q49 72 95.5 100.5t91.5 28.5q37 0 74.5 -10t76.5 -26 q31 -12 61.5 -21.5t65.5 -9.5q23 0 49.5 13t65.5 44l63 -96q-51 -35 -100 -55.5t-92 -20.5q-23 0 -40 1t-36 7q-35 -80 -76 -137t-96 -108q-59 -47 -135 -80t-166 -33h-27q-72 0 -141 28.5t-123.5 78t-87.5 115t-33 138.5q0 92 54.5 172t128.5 129q-80 39 -133.5 111 t-53.5 164z" />
<glyph unicode="'" horiz-adv-x="452" d="M113 1065l120 254l166 59l-168 -366z" />
<glyph unicode="(" horiz-adv-x="489" d="M12 662q0 217 61.5 436t188.5 430l103 -55q-117 -199 -174.5 -407t-57.5 -413q0 -221 67.5 -442t209.5 -426l-95 -68q-152 225 -227.5 465t-75.5 480z" />
<glyph unicode=")" horiz-adv-x="489" d="M8 -215q139 203 207 425t68 443q0 205 -57.5 413t-172.5 404l101 58q127 -209 188 -429t61 -437q0 -242 -75.5 -481.5t-225.5 -463.5z" />
<glyph unicode="*" horiz-adv-x="550" d="M8 1038l162 25q-27 33 -53.5 65.5t-50.5 63.5l75 78l113 -137l61 163l93 -47l-56 -155l174 26l4 -102l-163 -27q10 -12 21 -25.5t22 -23.5q16 -23 37.5 -49.5t35.5 -40.5l-96 -53l-102 125l-62 -160l-94 43l59 154l-176 -29z" />
<glyph unicode="+" horiz-adv-x="878" d="M-16 555v119h385v370h118v-370h379v-119h-379v-393h-118v393h-385z" />
<glyph unicode="," horiz-adv-x="260" d="M8 -125l45 199l146 80l-74 -301z" />
<glyph unicode="-" horiz-adv-x="1136" d="M127 555v119h881v-119h-881z" />
<glyph unicode="." horiz-adv-x="325" d="M82 61q0 29 19.5 51.5t50.5 22.5q35 0 53 -22.5t18 -51.5q0 -31 -18.5 -51t-52.5 -20q-31 0 -50.5 20.5t-19.5 50.5z" />
<glyph unicode="/" horiz-adv-x="1083" d="M-49 0l1016 1493h133l-1016 -1493h-133z" />
<glyph unicode="0" d="M0 971q4 2 4 8q4 129 39 245.5t102 227.5q23 39 58 86t77 92t86 83t85 59l2 8h8l4 6q6 4 13 6t14 6q12 8 23 15.5t22 15.5q29 16 60.5 28.5t61.5 24.5q84 33 171.5 48.5t177.5 15.5q197 0 382 -73t326 -212q47 -47 90 -99.5t78 -111.5q10 -18 18.5 -38.5t18.5 -39.5 q6 -12 13.5 -22.5t11.5 -22.5q16 -33 25 -66.5t20 -68.5q20 -80 26 -148.5t6 -152.5q0 -6 -1 -22.5t-3 -34t-4 -34t-2 -24.5q-4 -25 -10 -49.5t-12 -48.5q-45 -168 -139.5 -306.5t-223.5 -237.5t-286.5 -154.5t-331.5 -55.5q-217 0 -404.5 83t-324 225.5t-212 333 t-69.5 405.5zM164 -326h39q2 -10 4 -21t2 -22q4 10 8 20.5t4 22.5h31q4 -10 5 -21t5 -22q8 8 7 20.5t5 22.5h76v-6q0 -10 3 -16t1 -17q10 4 11.5 16.5t5.5 22.5h28q0 -12 5.5 -22t3.5 -21q8 8 8 20.5t4 22.5h76q4 -10 4 -21t4 -22q4 10 7 20.5t3 22.5h31q4 -10 6 -21t6 -22 q6 8 6 20.5t4 22.5h35q-2 -31 -10 -60.5t-12 -57.5h-39v4q2 10 -3.5 18t-2.5 19q-8 -8 -10.5 -19.5t-2.5 -21.5h-39q-6 27 -11 52t-15 50q-16 -53 -23 -102h-37q-4 10 -6 19t-6 17q-8 -6 -7 -17t-5 -19h-37q-4 29 -11.5 53t-11.5 53q-12 -25 -15 -52.5t-11 -53.5h-39v4 q2 10 -4 18t-4 19q-6 -8 -8.5 -19.5t-2.5 -21.5h-39q-4 29 -13 58t-13 60zM195 1085q12 -2 24 -1t25 1h13t13 -4v-663h297v256v44t4 44q29 -2 57.5 -1t57.5 1h33.5t36.5 -4v-336q29 -4 57.5 -4h56.5q45 0 90.5 1t92.5 -1v964q-47 -2 -92.5 0t-90.5 2q-59 0 -114 -6v-311 h-189q0 47 1 96t1 97q0 61 -6 122h-280q-4 0 -5.5 -4t-3.5 -6q-18 -72 -40.5 -143.5t-38.5 -143.5zM367 -162q4 10 5 18.5t5 18.5h76v-2q2 -10 -3.5 -17.5t-3.5 -17.5q-6 -2 -12 -1t-12 1q-8 0 -10 -4q4 -6 15 -5t17 1h7q-2 -10 -6.5 -16.5t-2.5 -18.5h-30v-41h-21 q-14 0 -18 4l2 74q0 2 -8 6zM457 -162q4 10 6 18.5t6 18.5h35q0 -12 -1 -24.5t-1 -24.5q0 -20 8 -35h6q10 0 10 12.5v20.5v51h21q12 0 16 -4l2 -37q0 -27 -7 -53.5t-42 -26.5q-23 0 -43 19q-4 16 -4 29.5v29.5q0 4 -4 5t-8 1zM567 -162q4 8 6 17.5t7 19.5h20q12 0 16 -4 q0 -18 -1 -37.5t1 -38.5q2 -4 9.5 -4h11.5h4q-4 -10 -6 -18.5t-6 -18.5h-49v78q0 4 -4.5 4t-8.5 2zM604 -426q0 18 21 18q18 0 18 -18q1 -23 -22 -23q-16 8 -17 23zM641 -162q4 10 5 18.5t5 18.5h35q0 -20 -1 -39.5t1 -40.5q0 -4 7 -4h12h4v-4q2 -10 -3.5 -16.5t-5.5 -16.5 q-8 0 -15 -1t-15 -1q-14 0 -23 6l2 72q0 8 -8 8zM645 -360q0 10 3 17t3 17h39v-39h19q6 4 4 15.5t0 17.5v6q6 -2 11 -1t11 1h8.5t8.5 -4v-114h-39v41h-19q-6 -4 -5 -16.5t1 -18.5v-6h-39v67q2 2 2 6t-4 5t-4 6zM752 -125h36q4 -12 9.5 -23.5t7.5 -25.5q10 8 12 23.5t6 25.5 h39q-6 -31 -17 -61.5t-22 -59.5h-30q-10 29 -21.5 59.5t-19.5 61.5zM756 -326h37l12 -24q4 4 5 11t5 13h39q-4 -18 -10 -30.5t-12.5 -24.5t-9.5 -26.5t1 -36.5h-39q0 37 -2 51t-6 21t-9 14t-11 32zM850 -365q4 10 6 19.5t6 19.5h19q23 0 45 -9t22 -38q0 -23 -22 -45h-2 q-8 0 -11.5 -3t-13.5 -1v-22h-37v75q0 4 -5 4h-7zM858 -162q4 8 6 17.5t4 19.5h80q-4 -10 -7 -18.5t-3 -18.5q-4 -2 -10 -1t-10 1q-8 0 -11 -4q4 -6 15.5 -5t17.5 1h6q-2 -8 -4 -15.5t-4 -15.5h-31q4 -6 15.5 -4t17.5 0h6v-2q0 -10 -4 -19.5t-8 -19.5h-66v80q0 4 -4 3t-6 1z M899 -365v-18l4 -2q8 0 8 10t-8 10h-4zM952 -160q0 10 4.5 17.5t8.5 17.5h16q29 2 50.5 -5t21.5 -42q0 -10 -3 -20.5t-14 -16.5q0 -10 8.5 -16t8.5 -19v-2q-6 -2 -17 -2q-12 0 -23.5 4t-11.5 21q-4 -2 -4 -6v-9q0 -8 -2 -8h-34v78q0 4 -4.5 4t-4.5 4zM952 -360q0 4 5.5 17 t7.5 17l12 -2q14 0 27.5 3t27.5 3l8 -2l-4 -20t-6 -21h-31q4 -6 15.5 -4t15.5 0h6q0 -2 1 -3t1 -3q0 -6 -3 -12t-3 -12q-4 -2 -10 -1t-12 1q-8 0 -11 -4q4 -4 16.5 -3.5t18.5 0.5l6 -2q-4 -10 -5 -18t-5 -18h-69v73q0 4 -4.5 5t-4.5 6zM999 -162v-20h5q12 0 10 12v4 q-4 0 -6 2t-7 2h-2zM1044 -356q6 4 6.5 13t6.5 17l12 -2q14 0 26.5 3t26.5 3l11 -2q-4 -23 -13 -41h-30q0 -10 13 -8t19 2q2 0 3 -1t3 -1q-2 -16 -12 -35h-26v-36h-37q-4 14 -2 27.5t2 29.5q0 10 -4.5 18.5t-4.5 12.5zM1063 -160q0 20 20.5 28.5t36.5 8.5q15 0 31 -6 q-4 -8 -5 -16.5t-7 -16.5q-6 0 -12.5 2t-14.5 2q-4 0 -6 -2q6 -10 18.5 -12t22.5 -10q6 -10 6 -23q0 -14 -6 -26q-16 -14 -43 -15q-18 0 -37 6v4q0 10 3 17.5t5 17.5q8 -2 15.5 -5t15.5 -3h6q0 10 -10 12t-19 4q-6 10 -13 15.5t-7 17.5zM1112 1085q12 -2 24.5 -1t24.5 1 q18 0 29 -4v-663h297v325h225q16 68 38 134.5t38 136.5h-301q2 10 1 21.5t-1 21.5v13t4 11h252q18 82 43.5 162t46.5 162h-283q-10 -5 -6 -19q-72 -6 -144.5 -5t-144.5 1h-55q-25 -74 -44 -148.5t-44 -148.5zM1139 -379q0 23 19.5 37t41.5 14q27 0 44.5 -16t17.5 -43 q0 -23 -21.5 -44.5t-44.5 -17.5v5q-29 0 -43 18t-14 47zM1155 -162q4 10 6 18.5t4 18.5h35v-121h-35l2 78q0 4 -4 5t-8 1zM1178 -387q0 -8 8 -21q4 0 6 -1t6 -1q20 0 25 27q-2 4 -5.5 9t-5.5 9q-4 0 -5 1.5t-5 1.5q-25 0 -24 -25zM1212 -178q0 18 14.5 32.5t30.5 16.5 q4 4 17 4q10 0 20.5 -5t20.5 -9q10 -16 18 -43q-4 -23 -17 -43.5t-40 -20.5q-29 0 -46.5 19.5t-17.5 48.5zM1249 -182q0 -27 29 -27h2q14 10 14 25q0 8 -6 18q-8 4 -16 4t-15.5 -5t-7.5 -15zM1262 -365q4 10 6 19.5t6 19.5h37q2 -12 9 -20t11 -19q4 4 3 15.5t-1 17.5v6h39 v-118h-35l-12 24t-18 21v-45h-33v75q0 4 -4 4h-8zM1333 -162q4 10 6 18.5t7 18.5h34q6 -10 12.5 -18.5t10.5 -18.5q4 2 4 11.5v15.5q0 8 4 10h33v-121h-31q-8 10 -15 23.5t-14 25.5q-6 -6 -5 -19t1 -24v-6h-34v78q0 4 -4.5 4t-8.5 2zM1380 -365q0 10 3 19.5t3 19.5l13 -2 q14 0 27.5 3t27.5 3l10 -2q-4 -10 -6 -26.5t-20 -14.5v-79h-39v75q0 6 -6.5 5t-10.5 -1h-2zM1464 -360q0 20 18.5 28t35.5 8q14 0 30 -6v-6q0 -8 -3 -11t-1 -13q-4 -4 -6 -5q-6 0 -11 2.5t-11 2.5q-8 0 -11 -5q16 -4 32.5 -13t16.5 -30q0 -14 -15.5 -27.5t-29.5 -13.5h-12v5 q-8 0 -18.5 2t-10.5 12q6 10 2 22q8 4 9 5q8 0 15 -4.5t15 -4.5l4 2q0 6 -8 9.5t-17 7.5t-16.5 10t-7.5 23zM1495 -182q0 18 14.5 34.5t30.5 18.5q6 6 16 6t20.5 -6t20.5 -10q6 -10 12.5 -22.5t6.5 -24.5q0 -27 -17.5 -42.5t-42.5 -15.5q-29 0 -45 16.5t-16 45.5zM1532 -186 q-1 -23 24 -23q23 0 23 25q0 10 -8 16t-17 6q-8 0 -6 -4q-16 -2 -16 -20zM1559 -426q0 20 20 20q8 0 11 -6t7 -10v-6q0 -10 -7 -13.5t-11 -7.5h-4q-8 0 -12 9.5t-4 13.5zM1599 -383q0 27 19.5 42t44.5 15q20 0 37 -12q-4 -10 -8 -17t-6 -18q-8 8 -25 8q-6 0 -12.5 -2 t-10.5 -10v-18q0 -6 7.5 -8.5t11.5 -2.5q8 0 14 2.5t15 2.5q2 0 2 -2q2 -8 5 -13.5t7 -13.5q-4 -10 -15.5 -11.5t-19.5 -7.5h-10v5q-27 2 -41.5 19t-14.5 42zM1620 -158q0 10 4 16.5t4 16.5h33q8 -10 14 -18.5t11 -18.5q4 2 3 11.5t-1 15.5t4 10h34v-121h-30 q-4 12 -13.5 22.5t-13.5 22.5q-6 -4 -4 -16t2 -19l-2 -6q-4 -4 -16 -4h-21v78q0 4 -4 4t-4 6zM1706 -387q0 27 15.5 43t43.5 16q23 0 42.5 -15t19.5 -40q0 -27 -19.5 -47.5t-46.5 -18.5v5q-23 0 -39 17t-16 40zM1745 -385q0 -19 16 -25q18 0 27 15v6q2 14 -6 20.5t-21 3.5 h-8q-8 -8 -8 -20zM1829 -360q0 8 4 16t4 18h39q4 -6 7 -13t11 -11q6 4 10.5 11t8.5 13h39v-118h-39v53q0 2 -2 2q-4 0 -7 -7t-6 -12h-2q-10 0 -11 9.5t-9 11.5v-57h-39v73q0 4 -4 5t-4 6z" />
<glyph unicode="1" d="M0 971q4 2 4 8q4 129 39 245.5t102 227.5q23 39 58 86t77 92t86 83t85 59l2 8h8l4 6q6 4 13 6t14 6q12 8 23 15.5t22 15.5q29 16 60.5 28.5t61.5 24.5q84 33 171.5 48.5t177.5 15.5q197 0 382 -73t326 -212q47 -47 90 -99.5t78 -111.5q10 -18 18.5 -38.5t18.5 -39.5 q6 -12 13.5 -22.5t11.5 -22.5q16 -33 25 -66.5t20 -68.5q20 -80 26 -148.5t6 -152.5q0 -6 -1 -22.5t-3 -34t-4 -34t-2 -24.5q-4 -25 -10 -49.5t-12 -48.5q-45 -168 -139.5 -306.5t-223.5 -237.5t-286.5 -154.5t-331.5 -55.5q-217 0 -404.5 83t-324 225.5t-212 333 t-69.5 405.5zM164 -326h39q2 -10 4 -21t2 -22q4 10 8 20.5t4 22.5h31q4 -10 5 -21t5 -22q8 8 7 20.5t5 22.5h76v-6q0 -10 3 -16t1 -17q10 4 11.5 16.5t5.5 22.5h28q0 -12 5.5 -22t3.5 -21q8 8 8 20.5t4 22.5h76q4 -10 4 -21t4 -22q4 10 7 20.5t3 22.5h31q4 -10 6 -21t6 -22 q6 8 6 20.5t4 22.5h35q-2 -31 -10 -60.5t-12 -57.5h-39v4q2 10 -3.5 18t-2.5 19q-8 -8 -10.5 -19.5t-2.5 -21.5h-39q-6 27 -11 52t-15 50q-16 -53 -23 -102h-37q-4 10 -6 19t-6 17q-8 -6 -7 -17t-5 -19h-37q-4 29 -11.5 53t-11.5 53q-12 -25 -15 -52.5t-11 -53.5h-39v4 q2 10 -4 18t-4 19q-6 -8 -8.5 -19.5t-2.5 -21.5h-39q-4 29 -13 58t-13 60zM195 1085q12 -2 24 -1t25 1h13t13 -4v-663h297v256v44t4 44q29 -2 57.5 -1t57.5 1h33.5t36.5 -4v-336q29 -4 57.5 -4h56.5q45 0 90.5 1t92.5 -1v964q-47 -2 -92.5 0t-90.5 2q-59 0 -114 -6v-311 h-189q0 47 1 96t1 97q0 61 -6 122h-280q-4 0 -5.5 -4t-3.5 -6q-18 -72 -40.5 -143.5t-38.5 -143.5zM367 -162q4 10 5 18.5t5 18.5h76v-2q2 -10 -3.5 -17.5t-3.5 -17.5q-6 -2 -12 -1t-12 1q-8 0 -10 -4q4 -6 15 -5t17 1h7q-2 -10 -6.5 -16.5t-2.5 -18.5h-30v-41h-21 q-14 0 -18 4l2 74q0 2 -8 6zM457 -162q4 10 6 18.5t6 18.5h35q0 -12 -1 -24.5t-1 -24.5q0 -20 8 -35h6q10 0 10 12.5v20.5v51h21q12 0 16 -4l2 -37q0 -27 -7 -53.5t-42 -26.5q-23 0 -43 19q-4 16 -4 29.5v29.5q0 4 -4 5t-8 1zM567 -162q4 8 6 17.5t7 19.5h20q12 0 16 -4 q0 -18 -1 -37.5t1 -38.5q2 -4 9.5 -4h11.5h4q-4 -10 -6 -18.5t-6 -18.5h-49v78q0 4 -4.5 4t-8.5 2zM604 -426q0 18 21 18q18 0 18 -18q1 -23 -22 -23q-16 8 -17 23zM641 -162q4 10 5 18.5t5 18.5h35q0 -20 -1 -39.5t1 -40.5q0 -4 7 -4h12h4v-4q2 -10 -3.5 -16.5t-5.5 -16.5 q-8 0 -15 -1t-15 -1q-14 0 -23 6l2 72q0 8 -8 8zM645 -360q0 10 3 17t3 17h39v-39h19q6 4 4 15.5t0 17.5v6q6 -2 11 -1t11 1h8.5t8.5 -4v-114h-39v41h-19q-6 -4 -5 -16.5t1 -18.5v-6h-39v67q2 2 2 6t-4 5t-4 6zM752 -125h36q4 -12 9.5 -23.5t7.5 -25.5q10 8 12 23.5t6 25.5 h39q-6 -31 -17 -61.5t-22 -59.5h-30q-10 29 -21.5 59.5t-19.5 61.5zM756 -326h37l12 -24q4 4 5 11t5 13h39q-4 -18 -10 -30.5t-12.5 -24.5t-9.5 -26.5t1 -36.5h-39q0 37 -2 51t-6 21t-9 14t-11 32zM850 -365q4 10 6 19.5t6 19.5h19q23 0 45 -9t22 -38q0 -23 -22 -45h-2 q-8 0 -11.5 -3t-13.5 -1v-22h-37v75q0 4 -5 4h-7zM858 -162q4 8 6 17.5t4 19.5h80q-4 -10 -7 -18.5t-3 -18.5q-4 -2 -10 -1t-10 1q-8 0 -11 -4q4 -6 15.5 -5t17.5 1h6q-2 -8 -4 -15.5t-4 -15.5h-31q4 -6 15.5 -4t17.5 0h6v-2q0 -10 -4 -19.5t-8 -19.5h-66v80q0 4 -4 3t-6 1z M899 -365v-18l4 -2q8 0 8 10t-8 10h-4zM952 -160q0 10 4.5 17.5t8.5 17.5h16q29 2 50.5 -5t21.5 -42q0 -10 -3 -20.5t-14 -16.5q0 -10 8.5 -16t8.5 -19v-2q-6 -2 -17 -2q-12 0 -23.5 4t-11.5 21q-4 -2 -4 -6v-9q0 -8 -2 -8h-34v78q0 4 -4.5 4t-4.5 4zM952 -360q0 4 5.5 17 t7.5 17l12 -2q14 0 27.5 3t27.5 3l8 -2l-4 -20t-6 -21h-31q4 -6 15.5 -4t15.5 0h6q0 -2 1 -3t1 -3q0 -6 -3 -12t-3 -12q-4 -2 -10 -1t-12 1q-8 0 -11 -4q4 -4 16.5 -3.5t18.5 0.5l6 -2q-4 -10 -5 -18t-5 -18h-69v73q0 4 -4.5 5t-4.5 6zM999 -162v-20h5q12 0 10 12v4 q-4 0 -6 2t-7 2h-2zM1044 -356q6 4 6.5 13t6.5 17l12 -2q14 0 26.5 3t26.5 3l11 -2q-4 -23 -13 -41h-30q0 -10 13 -8t19 2q2 0 3 -1t3 -1q-2 -16 -12 -35h-26v-36h-37q-4 14 -2 27.5t2 29.5q0 10 -4.5 18.5t-4.5 12.5zM1063 -160q0 20 20.5 28.5t36.5 8.5q15 0 31 -6 q-4 -8 -5 -16.5t-7 -16.5q-6 0 -12.5 2t-14.5 2q-4 0 -6 -2q6 -10 18.5 -12t22.5 -10q6 -10 6 -23q0 -14 -6 -26q-16 -14 -43 -15q-18 0 -37 6v4q0 10 3 17.5t5 17.5q8 -2 15.5 -5t15.5 -3h6q0 10 -10 12t-19 4q-6 10 -13 15.5t-7 17.5zM1112 1085q12 -2 24.5 -1t24.5 1 q18 0 29 -4v-663h297v325h225q16 68 38 134.5t38 136.5h-301q2 10 1 21.5t-1 21.5v13t4 11h252q18 82 43.5 162t46.5 162h-283q-10 -5 -6 -19q-72 -6 -144.5 -5t-144.5 1h-55q-25 -74 -44 -148.5t-44 -148.5zM1139 -379q0 23 19.5 37t41.5 14q27 0 44.5 -16t17.5 -43 q0 -23 -21.5 -44.5t-44.5 -17.5v5q-29 0 -43 18t-14 47zM1155 -162q4 10 6 18.5t4 18.5h35v-121h-35l2 78q0 4 -4 5t-8 1zM1178 -387q0 -8 8 -21q4 0 6 -1t6 -1q20 0 25 27q-2 4 -5.5 9t-5.5 9q-4 0 -5 1.5t-5 1.5q-25 0 -24 -25zM1212 -178q0 18 14.5 32.5t30.5 16.5 q4 4 17 4q10 0 20.5 -5t20.5 -9q10 -16 18 -43q-4 -23 -17 -43.5t-40 -20.5q-29 0 -46.5 19.5t-17.5 48.5zM1249 -182q0 -27 29 -27h2q14 10 14 25q0 8 -6 18q-8 4 -16 4t-15.5 -5t-7.5 -15zM1262 -365q4 10 6 19.5t6 19.5h37q2 -12 9 -20t11 -19q4 4 3 15.5t-1 17.5v6h39 v-118h-35l-12 24t-18 21v-45h-33v75q0 4 -4 4h-8zM1333 -162q4 10 6 18.5t7 18.5h34q6 -10 12.5 -18.5t10.5 -18.5q4 2 4 11.5v15.5q0 8 4 10h33v-121h-31q-8 10 -15 23.5t-14 25.5q-6 -6 -5 -19t1 -24v-6h-34v78q0 4 -4.5 4t-8.5 2zM1380 -365q0 10 3 19.5t3 19.5l13 -2 q14 0 27.5 3t27.5 3l10 -2q-4 -10 -6 -26.5t-20 -14.5v-79h-39v75q0 6 -6.5 5t-10.5 -1h-2zM1464 -360q0 20 18.5 28t35.5 8q14 0 30 -6v-6q0 -8 -3 -11t-1 -13q-4 -4 -6 -5q-6 0 -11 2.5t-11 2.5q-8 0 -11 -5q16 -4 32.5 -13t16.5 -30q0 -14 -15.5 -27.5t-29.5 -13.5h-12v5 q-8 0 -18.5 2t-10.5 12q6 10 2 22q8 4 9 5q8 0 15 -4.5t15 -4.5l4 2q0 6 -8 9.5t-17 7.5t-16.5 10t-7.5 23zM1495 -182q0 18 14.5 34.5t30.5 18.5q6 6 16 6t20.5 -6t20.5 -10q6 -10 12.5 -22.5t6.5 -24.5q0 -27 -17.5 -42.5t-42.5 -15.5q-29 0 -45 16.5t-16 45.5zM1532 -186 q-1 -23 24 -23q23 0 23 25q0 10 -8 16t-17 6q-8 0 -6 -4q-16 -2 -16 -20zM1559 -426q0 20 20 20q8 0 11 -6t7 -10v-6q0 -10 -7 -13.5t-11 -7.5h-4q-8 0 -12 9.5t-4 13.5zM1599 -383q0 27 19.5 42t44.5 15q20 0 37 -12q-4 -10 -8 -17t-6 -18q-8 8 -25 8q-6 0 -12.5 -2 t-10.5 -10v-18q0 -6 7.5 -8.5t11.5 -2.5q8 0 14 2.5t15 2.5q2 0 2 -2q2 -8 5 -13.5t7 -13.5q-4 -10 -15.5 -11.5t-19.5 -7.5h-10v5q-27 2 -41.5 19t-14.5 42zM1620 -158q0 10 4 16.5t4 16.5h33q8 -10 14 -18.5t11 -18.5q4 2 3 11.5t-1 15.5t4 10h34v-121h-30 q-4 12 -13.5 22.5t-13.5 22.5q-6 -4 -4 -16t2 -19l-2 -6q-4 -4 -16 -4h-21v78q0 4 -4 4t-4 6zM1706 -387q0 27 15.5 43t43.5 16q23 0 42.5 -15t19.5 -40q0 -27 -19.5 -47.5t-46.5 -18.5v5q-23 0 -39 17t-16 40zM1745 -385q0 -19 16 -25q18 0 27 15v6q2 14 -6 20.5t-21 3.5 h-8q-8 -8 -8 -20zM1829 -360q0 8 4 16t4 18h39q4 -6 7 -13t11 -11q6 4 10.5 11t8.5 13h39v-118h-39v53q0 2 -2 2q-4 0 -7 -7t-6 -12h-2q-10 0 -11 9.5t-9 11.5v-57h-39v73q0 4 -4 5t-4 6z" />
<glyph unicode="2" d="M0 971q4 2 4 8q4 129 39 245.5t102 227.5q23 39 58 86t77 92t86 83t85 59l2 8h8l4 6q6 4 13 6t14 6q12 8 23 15.5t22 15.5q29 16 60.5 28.5t61.5 24.5q84 33 171.5 48.5t177.5 15.5q197 0 382 -73t326 -212q47 -47 90 -99.5t78 -111.5q10 -18 18.5 -38.5t18.5 -39.5 q6 -12 13.5 -22.5t11.5 -22.5q16 -33 25 -66.5t20 -68.5q20 -80 26 -148.5t6 -152.5q0 -6 -1 -22.5t-3 -34t-4 -34t-2 -24.5q-4 -25 -10 -49.5t-12 -48.5q-45 -168 -139.5 -306.5t-223.5 -237.5t-286.5 -154.5t-331.5 -55.5q-217 0 -404.5 83t-324 225.5t-212 333 t-69.5 405.5zM164 -326h39q2 -10 4 -21t2 -22q4 10 8 20.5t4 22.5h31q4 -10 5 -21t5 -22q8 8 7 20.5t5 22.5h76v-6q0 -10 3 -16t1 -17q10 4 11.5 16.5t5.5 22.5h28q0 -12 5.5 -22t3.5 -21q8 8 8 20.5t4 22.5h76q4 -10 4 -21t4 -22q4 10 7 20.5t3 22.5h31q4 -10 6 -21t6 -22 q6 8 6 20.5t4 22.5h35q-2 -31 -10 -60.5t-12 -57.5h-39v4q2 10 -3.5 18t-2.5 19q-8 -8 -10.5 -19.5t-2.5 -21.5h-39q-6 27 -11 52t-15 50q-16 -53 -23 -102h-37q-4 10 -6 19t-6 17q-8 -6 -7 -17t-5 -19h-37q-4 29 -11.5 53t-11.5 53q-12 -25 -15 -52.5t-11 -53.5h-39v4 q2 10 -4 18t-4 19q-6 -8 -8.5 -19.5t-2.5 -21.5h-39q-4 29 -13 58t-13 60zM195 1085q12 -2 24 -1t25 1h13t13 -4v-663h297v256v44t4 44q29 -2 57.5 -1t57.5 1h33.5t36.5 -4v-336q29 -4 57.5 -4h56.5q45 0 90.5 1t92.5 -1v964q-47 -2 -92.5 0t-90.5 2q-59 0 -114 -6v-311 h-189q0 47 1 96t1 97q0 61 -6 122h-280q-4 0 -5.5 -4t-3.5 -6q-18 -72 -40.5 -143.5t-38.5 -143.5zM367 -162q4 10 5 18.5t5 18.5h76v-2q2 -10 -3.5 -17.5t-3.5 -17.5q-6 -2 -12 -1t-12 1q-8 0 -10 -4q4 -6 15 -5t17 1h7q-2 -10 -6.5 -16.5t-2.5 -18.5h-30v-41h-21 q-14 0 -18 4l2 74q0 2 -8 6zM457 -162q4 10 6 18.5t6 18.5h35q0 -12 -1 -24.5t-1 -24.5q0 -20 8 -35h6q10 0 10 12.5v20.5v51h21q12 0 16 -4l2 -37q0 -27 -7 -53.5t-42 -26.5q-23 0 -43 19q-4 16 -4 29.5v29.5q0 4 -4 5t-8 1zM567 -162q4 8 6 17.5t7 19.5h20q12 0 16 -4 q0 -18 -1 -37.5t1 -38.5q2 -4 9.5 -4h11.5h4q-4 -10 -6 -18.5t-6 -18.5h-49v78q0 4 -4.5 4t-8.5 2zM604 -426q0 18 21 18q18 0 18 -18q1 -23 -22 -23q-16 8 -17 23zM641 -162q4 10 5 18.5t5 18.5h35q0 -20 -1 -39.5t1 -40.5q0 -4 7 -4h12h4v-4q2 -10 -3.5 -16.5t-5.5 -16.5 q-8 0 -15 -1t-15 -1q-14 0 -23 6l2 72q0 8 -8 8zM645 -360q0 10 3 17t3 17h39v-39h19q6 4 4 15.5t0 17.5v6q6 -2 11 -1t11 1h8.5t8.5 -4v-114h-39v41h-19q-6 -4 -5 -16.5t1 -18.5v-6h-39v67q2 2 2 6t-4 5t-4 6zM752 -125h36q4 -12 9.5 -23.5t7.5 -25.5q10 8 12 23.5t6 25.5 h39q-6 -31 -17 -61.5t-22 -59.5h-30q-10 29 -21.5 59.5t-19.5 61.5zM756 -326h37l12 -24q4 4 5 11t5 13h39q-4 -18 -10 -30.5t-12.5 -24.5t-9.5 -26.5t1 -36.5h-39q0 37 -2 51t-6 21t-9 14t-11 32zM850 -365q4 10 6 19.5t6 19.5h19q23 0 45 -9t22 -38q0 -23 -22 -45h-2 q-8 0 -11.5 -3t-13.5 -1v-22h-37v75q0 4 -5 4h-7zM858 -162q4 8 6 17.5t4 19.5h80q-4 -10 -7 -18.5t-3 -18.5q-4 -2 -10 -1t-10 1q-8 0 -11 -4q4 -6 15.5 -5t17.5 1h6q-2 -8 -4 -15.5t-4 -15.5h-31q4 -6 15.5 -4t17.5 0h6v-2q0 -10 -4 -19.5t-8 -19.5h-66v80q0 4 -4 3t-6 1z M899 -365v-18l4 -2q8 0 8 10t-8 10h-4zM952 -160q0 10 4.5 17.5t8.5 17.5h16q29 2 50.5 -5t21.5 -42q0 -10 -3 -20.5t-14 -16.5q0 -10 8.5 -16t8.5 -19v-2q-6 -2 -17 -2q-12 0 -23.5 4t-11.5 21q-4 -2 -4 -6v-9q0 -8 -2 -8h-34v78q0 4 -4.5 4t-4.5 4zM952 -360q0 4 5.5 17 t7.5 17l12 -2q14 0 27.5 3t27.5 3l8 -2l-4 -20t-6 -21h-31q4 -6 15.5 -4t15.5 0h6q0 -2 1 -3t1 -3q0 -6 -3 -12t-3 -12q-4 -2 -10 -1t-12 1q-8 0 -11 -4q4 -4 16.5 -3.5t18.5 0.5l6 -2q-4 -10 -5 -18t-5 -18h-69v73q0 4 -4.5 5t-4.5 6zM999 -162v-20h5q12 0 10 12v4 q-4 0 -6 2t-7 2h-2zM1044 -356q6 4 6.5 13t6.5 17l12 -2q14 0 26.5 3t26.5 3l11 -2q-4 -23 -13 -41h-30q0 -10 13 -8t19 2q2 0 3 -1t3 -1q-2 -16 -12 -35h-26v-36h-37q-4 14 -2 27.5t2 29.5q0 10 -4.5 18.5t-4.5 12.5zM1063 -160q0 20 20.5 28.5t36.5 8.5q15 0 31 -6 q-4 -8 -5 -16.5t-7 -16.5q-6 0 -12.5 2t-14.5 2q-4 0 -6 -2q6 -10 18.5 -12t22.5 -10q6 -10 6 -23q0 -14 -6 -26q-16 -14 -43 -15q-18 0 -37 6v4q0 10 3 17.5t5 17.5q8 -2 15.5 -5t15.5 -3h6q0 10 -10 12t-19 4q-6 10 -13 15.5t-7 17.5zM1112 1085q12 -2 24.5 -1t24.5 1 q18 0 29 -4v-663h297v325h225q16 68 38 134.5t38 136.5h-301q2 10 1 21.5t-1 21.5v13t4 11h252q18 82 43.5 162t46.5 162h-283q-10 -5 -6 -19q-72 -6 -144.5 -5t-144.5 1h-55q-25 -74 -44 -148.5t-44 -148.5zM1139 -379q0 23 19.5 37t41.5 14q27 0 44.5 -16t17.5 -43 q0 -23 -21.5 -44.5t-44.5 -17.5v5q-29 0 -43 18t-14 47zM1155 -162q4 10 6 18.5t4 18.5h35v-121h-35l2 78q0 4 -4 5t-8 1zM1178 -387q0 -8 8 -21q4 0 6 -1t6 -1q20 0 25 27q-2 4 -5.5 9t-5.5 9q-4 0 -5 1.5t-5 1.5q-25 0 -24 -25zM1212 -178q0 18 14.5 32.5t30.5 16.5 q4 4 17 4q10 0 20.5 -5t20.5 -9q10 -16 18 -43q-4 -23 -17 -43.5t-40 -20.5q-29 0 -46.5 19.5t-17.5 48.5zM1249 -182q0 -27 29 -27h2q14 10 14 25q0 8 -6 18q-8 4 -16 4t-15.5 -5t-7.5 -15zM1262 -365q4 10 6 19.5t6 19.5h37q2 -12 9 -20t11 -19q4 4 3 15.5t-1 17.5v6h39 v-118h-35l-12 24t-18 21v-45h-33v75q0 4 -4 4h-8zM1333 -162q4 10 6 18.5t7 18.5h34q6 -10 12.5 -18.5t10.5 -18.5q4 2 4 11.5v15.5q0 8 4 10h33v-121h-31q-8 10 -15 23.5t-14 25.5q-6 -6 -5 -19t1 -24v-6h-34v78q0 4 -4.5 4t-8.5 2zM1380 -365q0 10 3 19.5t3 19.5l13 -2 q14 0 27.5 3t27.5 3l10 -2q-4 -10 -6 -26.5t-20 -14.5v-79h-39v75q0 6 -6.5 5t-10.5 -1h-2zM1464 -360q0 20 18.5 28t35.5 8q14 0 30 -6v-6q0 -8 -3 -11t-1 -13q-4 -4 -6 -5q-6 0 -11 2.5t-11 2.5q-8 0 -11 -5q16 -4 32.5 -13t16.5 -30q0 -14 -15.5 -27.5t-29.5 -13.5h-12v5 q-8 0 -18.5 2t-10.5 12q6 10 2 22q8 4 9 5q8 0 15 -4.5t15 -4.5l4 2q0 6 -8 9.5t-17 7.5t-16.5 10t-7.5 23zM1495 -182q0 18 14.5 34.5t30.5 18.5q6 6 16 6t20.5 -6t20.5 -10q6 -10 12.5 -22.5t6.5 -24.5q0 -27 -17.5 -42.5t-42.5 -15.5q-29 0 -45 16.5t-16 45.5zM1532 -186 q-1 -23 24 -23q23 0 23 25q0 10 -8 16t-17 6q-8 0 -6 -4q-16 -2 -16 -20zM1559 -426q0 20 20 20q8 0 11 -6t7 -10v-6q0 -10 -7 -13.5t-11 -7.5h-4q-8 0 -12 9.5t-4 13.5zM1599 -383q0 27 19.5 42t44.5 15q20 0 37 -12q-4 -10 -8 -17t-6 -18q-8 8 -25 8q-6 0 -12.5 -2 t-10.5 -10v-18q0 -6 7.5 -8.5t11.5 -2.5q8 0 14 2.5t15 2.5q2 0 2 -2q2 -8 5 -13.5t7 -13.5q-4 -10 -15.5 -11.5t-19.5 -7.5h-10v5q-27 2 -41.5 19t-14.5 42zM1620 -158q0 10 4 16.5t4 16.5h33q8 -10 14 -18.5t11 -18.5q4 2 3 11.5t-1 15.5t4 10h34v-121h-30 q-4 12 -13.5 22.5t-13.5 22.5q-6 -4 -4 -16t2 -19l-2 -6q-4 -4 -16 -4h-21v78q0 4 -4 4t-4 6zM1706 -387q0 27 15.5 43t43.5 16q23 0 42.5 -15t19.5 -40q0 -27 -19.5 -47.5t-46.5 -18.5v5q-23 0 -39 17t-16 40zM1745 -385q0 -19 16 -25q18 0 27 15v6q2 14 -6 20.5t-21 3.5 h-8q-8 -8 -8 -20zM1829 -360q0 8 4 16t4 18h39q4 -6 7 -13t11 -11q6 4 10.5 11t8.5 13h39v-118h-39v53q0 2 -2 2q-4 0 -7 -7t-6 -12h-2q-10 0 -11 9.5t-9 11.5v-57h-39v73q0 4 -4 5t-4 6z" />
<glyph unicode="3" d="M0 971q4 2 4 8q4 129 39 245.5t102 227.5q23 39 58 86t77 92t86 83t85 59l2 8h8l4 6q6 4 13 6t14 6q12 8 23 15.5t22 15.5q29 16 60.5 28.5t61.5 24.5q84 33 171.5 48.5t177.5 15.5q197 0 382 -73t326 -212q47 -47 90 -99.5t78 -111.5q10 -18 18.5 -38.5t18.5 -39.5 q6 -12 13.5 -22.5t11.5 -22.5q16 -33 25 -66.5t20 -68.5q20 -80 26 -148.5t6 -152.5q0 -6 -1 -22.5t-3 -34t-4 -34t-2 -24.5q-4 -25 -10 -49.5t-12 -48.5q-45 -168 -139.5 -306.5t-223.5 -237.5t-286.5 -154.5t-331.5 -55.5q-217 0 -404.5 83t-324 225.5t-212 333 t-69.5 405.5zM164 -326h39q2 -10 4 -21t2 -22q4 10 8 20.5t4 22.5h31q4 -10 5 -21t5 -22q8 8 7 20.5t5 22.5h76v-6q0 -10 3 -16t1 -17q10 4 11.5 16.5t5.5 22.5h28q0 -12 5.5 -22t3.5 -21q8 8 8 20.5t4 22.5h76q4 -10 4 -21t4 -22q4 10 7 20.5t3 22.5h31q4 -10 6 -21t6 -22 q6 8 6 20.5t4 22.5h35q-2 -31 -10 -60.5t-12 -57.5h-39v4q2 10 -3.5 18t-2.5 19q-8 -8 -10.5 -19.5t-2.5 -21.5h-39q-6 27 -11 52t-15 50q-16 -53 -23 -102h-37q-4 10 -6 19t-6 17q-8 -6 -7 -17t-5 -19h-37q-4 29 -11.5 53t-11.5 53q-12 -25 -15 -52.5t-11 -53.5h-39v4 q2 10 -4 18t-4 19q-6 -8 -8.5 -19.5t-2.5 -21.5h-39q-4 29 -13 58t-13 60zM195 1085q12 -2 24 -1t25 1h13t13 -4v-663h297v256v44t4 44q29 -2 57.5 -1t57.5 1h33.5t36.5 -4v-336q29 -4 57.5 -4h56.5q45 0 90.5 1t92.5 -1v964q-47 -2 -92.5 0t-90.5 2q-59 0 -114 -6v-311 h-189q0 47 1 96t1 97q0 61 -6 122h-280q-4 0 -5.5 -4t-3.5 -6q-18 -72 -40.5 -143.5t-38.5 -143.5zM367 -162q4 10 5 18.5t5 18.5h76v-2q2 -10 -3.5 -17.5t-3.5 -17.5q-6 -2 -12 -1t-12 1q-8 0 -10 -4q4 -6 15 -5t17 1h7q-2 -10 -6.5 -16.5t-2.5 -18.5h-30v-41h-21 q-14 0 -18 4l2 74q0 2 -8 6zM457 -162q4 10 6 18.5t6 18.5h35q0 -12 -1 -24.5t-1 -24.5q0 -20 8 -35h6q10 0 10 12.5v20.5v51h21q12 0 16 -4l2 -37q0 -27 -7 -53.5t-42 -26.5q-23 0 -43 19q-4 16 -4 29.5v29.5q0 4 -4 5t-8 1zM567 -162q4 8 6 17.5t7 19.5h20q12 0 16 -4 q0 -18 -1 -37.5t1 -38.5q2 -4 9.5 -4h11.5h4q-4 -10 -6 -18.5t-6 -18.5h-49v78q0 4 -4.5 4t-8.5 2zM604 -426q0 18 21 18q18 0 18 -18q1 -23 -22 -23q-16 8 -17 23zM641 -162q4 10 5 18.5t5 18.5h35q0 -20 -1 -39.5t1 -40.5q0 -4 7 -4h12h4v-4q2 -10 -3.5 -16.5t-5.5 -16.5 q-8 0 -15 -1t-15 -1q-14 0 -23 6l2 72q0 8 -8 8zM645 -360q0 10 3 17t3 17h39v-39h19q6 4 4 15.5t0 17.5v6q6 -2 11 -1t11 1h8.5t8.5 -4v-114h-39v41h-19q-6 -4 -5 -16.5t1 -18.5v-6h-39v67q2 2 2 6t-4 5t-4 6zM752 -125h36q4 -12 9.5 -23.5t7.5 -25.5q10 8 12 23.5t6 25.5 h39q-6 -31 -17 -61.5t-22 -59.5h-30q-10 29 -21.5 59.5t-19.5 61.5zM756 -326h37l12 -24q4 4 5 11t5 13h39q-4 -18 -10 -30.5t-12.5 -24.5t-9.5 -26.5t1 -36.5h-39q0 37 -2 51t-6 21t-9 14t-11 32zM850 -365q4 10 6 19.5t6 19.5h19q23 0 45 -9t22 -38q0 -23 -22 -45h-2 q-8 0 -11.5 -3t-13.5 -1v-22h-37v75q0 4 -5 4h-7zM858 -162q4 8 6 17.5t4 19.5h80q-4 -10 -7 -18.5t-3 -18.5q-4 -2 -10 -1t-10 1q-8 0 -11 -4q4 -6 15.5 -5t17.5 1h6q-2 -8 -4 -15.5t-4 -15.5h-31q4 -6 15.5 -4t17.5 0h6v-2q0 -10 -4 -19.5t-8 -19.5h-66v80q0 4 -4 3t-6 1z M899 -365v-18l4 -2q8 0 8 10t-8 10h-4zM952 -160q0 10 4.5 17.5t8.5 17.5h16q29 2 50.5 -5t21.5 -42q0 -10 -3 -20.5t-14 -16.5q0 -10 8.5 -16t8.5 -19v-2q-6 -2 -17 -2q-12 0 -23.5 4t-11.5 21q-4 -2 -4 -6v-9q0 -8 -2 -8h-34v78q0 4 -4.5 4t-4.5 4zM952 -360q0 4 5.5 17 t7.5 17l12 -2q14 0 27.5 3t27.5 3l8 -2l-4 -20t-6 -21h-31q4 -6 15.5 -4t15.5 0h6q0 -2 1 -3t1 -3q0 -6 -3 -12t-3 -12q-4 -2 -10 -1t-12 1q-8 0 -11 -4q4 -4 16.5 -3.5t18.5 0.5l6 -2q-4 -10 -5 -18t-5 -18h-69v73q0 4 -4.5 5t-4.5 6zM999 -162v-20h5q12 0 10 12v4 q-4 0 -6 2t-7 2h-2zM1044 -356q6 4 6.5 13t6.5 17l12 -2q14 0 26.5 3t26.5 3l11 -2q-4 -23 -13 -41h-30q0 -10 13 -8t19 2q2 0 3 -1t3 -1q-2 -16 -12 -35h-26v-36h-37q-4 14 -2 27.5t2 29.5q0 10 -4.5 18.5t-4.5 12.5zM1063 -160q0 20 20.5 28.5t36.5 8.5q15 0 31 -6 q-4 -8 -5 -16.5t-7 -16.5q-6 0 -12.5 2t-14.5 2q-4 0 -6 -2q6 -10 18.5 -12t22.5 -10q6 -10 6 -23q0 -14 -6 -26q-16 -14 -43 -15q-18 0 -37 6v4q0 10 3 17.5t5 17.5q8 -2 15.5 -5t15.5 -3h6q0 10 -10 12t-19 4q-6 10 -13 15.5t-7 17.5zM1112 1085q12 -2 24.5 -1t24.5 1 q18 0 29 -4v-663h297v325h225q16 68 38 134.5t38 136.5h-301q2 10 1 21.5t-1 21.5v13t4 11h252q18 82 43.5 162t46.5 162h-283q-10 -5 -6 -19q-72 -6 -144.5 -5t-144.5 1h-55q-25 -74 -44 -148.5t-44 -148.5zM1139 -379q0 23 19.5 37t41.5 14q27 0 44.5 -16t17.5 -43 q0 -23 -21.5 -44.5t-44.5 -17.5v5q-29 0 -43 18t-14 47zM1155 -162q4 10 6 18.5t4 18.5h35v-121h-35l2 78q0 4 -4 5t-8 1zM1178 -387q0 -8 8 -21q4 0 6 -1t6 -1q20 0 25 27q-2 4 -5.5 9t-5.5 9q-4 0 -5 1.5t-5 1.5q-25 0 -24 -25zM1212 -178q0 18 14.5 32.5t30.5 16.5 q4 4 17 4q10 0 20.5 -5t20.5 -9q10 -16 18 -43q-4 -23 -17 -43.5t-40 -20.5q-29 0 -46.5 19.5t-17.5 48.5zM1249 -182q0 -27 29 -27h2q14 10 14 25q0 8 -6 18q-8 4 -16 4t-15.5 -5t-7.5 -15zM1262 -365q4 10 6 19.5t6 19.5h37q2 -12 9 -20t11 -19q4 4 3 15.5t-1 17.5v6h39 v-118h-35l-12 24t-18 21v-45h-33v75q0 4 -4 4h-8zM1333 -162q4 10 6 18.5t7 18.5h34q6 -10 12.5 -18.5t10.5 -18.5q4 2 4 11.5v15.5q0 8 4 10h33v-121h-31q-8 10 -15 23.5t-14 25.5q-6 -6 -5 -19t1 -24v-6h-34v78q0 4 -4.5 4t-8.5 2zM1380 -365q0 10 3 19.5t3 19.5l13 -2 q14 0 27.5 3t27.5 3l10 -2q-4 -10 -6 -26.5t-20 -14.5v-79h-39v75q0 6 -6.5 5t-10.5 -1h-2zM1464 -360q0 20 18.5 28t35.5 8q14 0 30 -6v-6q0 -8 -3 -11t-1 -13q-4 -4 -6 -5q-6 0 -11 2.5t-11 2.5q-8 0 -11 -5q16 -4 32.5 -13t16.5 -30q0 -14 -15.5 -27.5t-29.5 -13.5h-12v5 q-8 0 -18.5 2t-10.5 12q6 10 2 22q8 4 9 5q8 0 15 -4.5t15 -4.5l4 2q0 6 -8 9.5t-17 7.5t-16.5 10t-7.5 23zM1495 -182q0 18 14.5 34.5t30.5 18.5q6 6 16 6t20.5 -6t20.5 -10q6 -10 12.5 -22.5t6.5 -24.5q0 -27 -17.5 -42.5t-42.5 -15.5q-29 0 -45 16.5t-16 45.5zM1532 -186 q-1 -23 24 -23q23 0 23 25q0 10 -8 16t-17 6q-8 0 -6 -4q-16 -2 -16 -20zM1559 -426q0 20 20 20q8 0 11 -6t7 -10v-6q0 -10 -7 -13.5t-11 -7.5h-4q-8 0 -12 9.5t-4 13.5zM1599 -383q0 27 19.5 42t44.5 15q20 0 37 -12q-4 -10 -8 -17t-6 -18q-8 8 -25 8q-6 0 -12.5 -2 t-10.5 -10v-18q0 -6 7.5 -8.5t11.5 -2.5q8 0 14 2.5t15 2.5q2 0 2 -2q2 -8 5 -13.5t7 -13.5q-4 -10 -15.5 -11.5t-19.5 -7.5h-10v5q-27 2 -41.5 19t-14.5 42zM1620 -158q0 10 4 16.5t4 16.5h33q8 -10 14 -18.5t11 -18.5q4 2 3 11.5t-1 15.5t4 10h34v-121h-30 q-4 12 -13.5 22.5t-13.5 22.5q-6 -4 -4 -16t2 -19l-2 -6q-4 -4 -16 -4h-21v78q0 4 -4 4t-4 6zM1706 -387q0 27 15.5 43t43.5 16q23 0 42.5 -15t19.5 -40q0 -27 -19.5 -47.5t-46.5 -18.5v5q-23 0 -39 17t-16 40zM1745 -385q0 -19 16 -25q18 0 27 15v6q2 14 -6 20.5t-21 3.5 h-8q-8 -8 -8 -20zM1829 -360q0 8 4 16t4 18h39q4 -6 7 -13t11 -11q6 4 10.5 11t8.5 13h39v-118h-39v53q0 2 -2 2q-4 0 -7 -7t-6 -12h-2q-10 0 -11 9.5t-9 11.5v-57h-39v73q0 4 -4 5t-4 6z" />
<glyph unicode="4" d="M0 971q4 2 4 8q4 129 39 245.5t102 227.5q23 39 58 86t77 92t86 83t85 59l2 8h8l4 6q6 4 13 6t14 6q12 8 23 15.5t22 15.5q29 16 60.5 28.5t61.5 24.5q84 33 171.5 48.5t177.5 15.5q197 0 382 -73t326 -212q47 -47 90 -99.5t78 -111.5q10 -18 18.5 -38.5t18.5 -39.5 q6 -12 13.5 -22.5t11.5 -22.5q16 -33 25 -66.5t20 -68.5q20 -80 26 -148.5t6 -152.5q0 -6 -1 -22.5t-3 -34t-4 -34t-2 -24.5q-4 -25 -10 -49.5t-12 -48.5q-45 -168 -139.5 -306.5t-223.5 -237.5t-286.5 -154.5t-331.5 -55.5q-217 0 -404.5 83t-324 225.5t-212 333 t-69.5 405.5zM164 -326h39q2 -10 4 -21t2 -22q4 10 8 20.5t4 22.5h31q4 -10 5 -21t5 -22q8 8 7 20.5t5 22.5h76v-6q0 -10 3 -16t1 -17q10 4 11.5 16.5t5.5 22.5h28q0 -12 5.5 -22t3.5 -21q8 8 8 20.5t4 22.5h76q4 -10 4 -21t4 -22q4 10 7 20.5t3 22.5h31q4 -10 6 -21t6 -22 q6 8 6 20.5t4 22.5h35q-2 -31 -10 -60.5t-12 -57.5h-39v4q2 10 -3.5 18t-2.5 19q-8 -8 -10.5 -19.5t-2.5 -21.5h-39q-6 27 -11 52t-15 50q-16 -53 -23 -102h-37q-4 10 -6 19t-6 17q-8 -6 -7 -17t-5 -19h-37q-4 29 -11.5 53t-11.5 53q-12 -25 -15 -52.5t-11 -53.5h-39v4 q2 10 -4 18t-4 19q-6 -8 -8.5 -19.5t-2.5 -21.5h-39q-4 29 -13 58t-13 60zM195 1085q12 -2 24 -1t25 1h13t13 -4v-663h297v256v44t4 44q29 -2 57.5 -1t57.5 1h33.5t36.5 -4v-336q29 -4 57.5 -4h56.5q45 0 90.5 1t92.5 -1v964q-47 -2 -92.5 0t-90.5 2q-59 0 -114 -6v-311 h-189q0 47 1 96t1 97q0 61 -6 122h-280q-4 0 -5.5 -4t-3.5 -6q-18 -72 -40.5 -143.5t-38.5 -143.5zM367 -162q4 10 5 18.5t5 18.5h76v-2q2 -10 -3.5 -17.5t-3.5 -17.5q-6 -2 -12 -1t-12 1q-8 0 -10 -4q4 -6 15 -5t17 1h7q-2 -10 -6.5 -16.5t-2.5 -18.5h-30v-41h-21 q-14 0 -18 4l2 74q0 2 -8 6zM457 -162q4 10 6 18.5t6 18.5h35q0 -12 -1 -24.5t-1 -24.5q0 -20 8 -35h6q10 0 10 12.5v20.5v51h21q12 0 16 -4l2 -37q0 -27 -7 -53.5t-42 -26.5q-23 0 -43 19q-4 16 -4 29.5v29.5q0 4 -4 5t-8 1zM567 -162q4 8 6 17.5t7 19.5h20q12 0 16 -4 q0 -18 -1 -37.5t1 -38.5q2 -4 9.5 -4h11.5h4q-4 -10 -6 -18.5t-6 -18.5h-49v78q0 4 -4.5 4t-8.5 2zM604 -426q0 18 21 18q18 0 18 -18q1 -23 -22 -23q-16 8 -17 23zM641 -162q4 10 5 18.5t5 18.5h35q0 -20 -1 -39.5t1 -40.5q0 -4 7 -4h12h4v-4q2 -10 -3.5 -16.5t-5.5 -16.5 q-8 0 -15 -1t-15 -1q-14 0 -23 6l2 72q0 8 -8 8zM645 -360q0 10 3 17t3 17h39v-39h19q6 4 4 15.5t0 17.5v6q6 -2 11 -1t11 1h8.5t8.5 -4v-114h-39v41h-19q-6 -4 -5 -16.5t1 -18.5v-6h-39v67q2 2 2 6t-4 5t-4 6zM752 -125h36q4 -12 9.5 -23.5t7.5 -25.5q10 8 12 23.5t6 25.5 h39q-6 -31 -17 -61.5t-22 -59.5h-30q-10 29 -21.5 59.5t-19.5 61.5zM756 -326h37l12 -24q4 4 5 11t5 13h39q-4 -18 -10 -30.5t-12.5 -24.5t-9.5 -26.5t1 -36.5h-39q0 37 -2 51t-6 21t-9 14t-11 32zM850 -365q4 10 6 19.5t6 19.5h19q23 0 45 -9t22 -38q0 -23 -22 -45h-2 q-8 0 -11.5 -3t-13.5 -1v-22h-37v75q0 4 -5 4h-7zM858 -162q4 8 6 17.5t4 19.5h80q-4 -10 -7 -18.5t-3 -18.5q-4 -2 -10 -1t-10 1q-8 0 -11 -4q4 -6 15.5 -5t17.5 1h6q-2 -8 -4 -15.5t-4 -15.5h-31q4 -6 15.5 -4t17.5 0h6v-2q0 -10 -4 -19.5t-8 -19.5h-66v80q0 4 -4 3t-6 1z M899 -365v-18l4 -2q8 0 8 10t-8 10h-4zM952 -160q0 10 4.5 17.5t8.5 17.5h16q29 2 50.5 -5t21.5 -42q0 -10 -3 -20.5t-14 -16.5q0 -10 8.5 -16t8.5 -19v-2q-6 -2 -17 -2q-12 0 -23.5 4t-11.5 21q-4 -2 -4 -6v-9q0 -8 -2 -8h-34v78q0 4 -4.5 4t-4.5 4zM952 -360q0 4 5.5 17 t7.5 17l12 -2q14 0 27.5 3t27.5 3l8 -2l-4 -20t-6 -21h-31q4 -6 15.5 -4t15.5 0h6q0 -2 1 -3t1 -3q0 -6 -3 -12t-3 -12q-4 -2 -10 -1t-12 1q-8 0 -11 -4q4 -4 16.5 -3.5t18.5 0.5l6 -2q-4 -10 -5 -18t-5 -18h-69v73q0 4 -4.5 5t-4.5 6zM999 -162v-20h5q12 0 10 12v4 q-4 0 -6 2t-7 2h-2zM1044 -356q6 4 6.5 13t6.5 17l12 -2q14 0 26.5 3t26.5 3l11 -2q-4 -23 -13 -41h-30q0 -10 13 -8t19 2q2 0 3 -1t3 -1q-2 -16 -12 -35h-26v-36h-37q-4 14 -2 27.5t2 29.5q0 10 -4.5 18.5t-4.5 12.5zM1063 -160q0 20 20.5 28.5t36.5 8.5q15 0 31 -6 q-4 -8 -5 -16.5t-7 -16.5q-6 0 -12.5 2t-14.5 2q-4 0 -6 -2q6 -10 18.5 -12t22.5 -10q6 -10 6 -23q0 -14 -6 -26q-16 -14 -43 -15q-18 0 -37 6v4q0 10 3 17.5t5 17.5q8 -2 15.5 -5t15.5 -3h6q0 10 -10 12t-19 4q-6 10 -13 15.5t-7 17.5zM1112 1085q12 -2 24.5 -1t24.5 1 q18 0 29 -4v-663h297v325h225q16 68 38 134.5t38 136.5h-301q2 10 1 21.5t-1 21.5v13t4 11h252q18 82 43.5 162t46.5 162h-283q-10 -5 -6 -19q-72 -6 -144.5 -5t-144.5 1h-55q-25 -74 -44 -148.5t-44 -148.5zM1139 -379q0 23 19.5 37t41.5 14q27 0 44.5 -16t17.5 -43 q0 -23 -21.5 -44.5t-44.5 -17.5v5q-29 0 -43 18t-14 47zM1155 -162q4 10 6 18.5t4 18.5h35v-121h-35l2 78q0 4 -4 5t-8 1zM1178 -387q0 -8 8 -21q4 0 6 -1t6 -1q20 0 25 27q-2 4 -5.5 9t-5.5 9q-4 0 -5 1.5t-5 1.5q-25 0 -24 -25zM1212 -178q0 18 14.5 32.5t30.5 16.5 q4 4 17 4q10 0 20.5 -5t20.5 -9q10 -16 18 -43q-4 -23 -17 -43.5t-40 -20.5q-29 0 -46.5 19.5t-17.5 48.5zM1249 -182q0 -27 29 -27h2q14 10 14 25q0 8 -6 18q-8 4 -16 4t-15.5 -5t-7.5 -15zM1262 -365q4 10 6 19.5t6 19.5h37q2 -12 9 -20t11 -19q4 4 3 15.5t-1 17.5v6h39 v-118h-35l-12 24t-18 21v-45h-33v75q0 4 -4 4h-8zM1333 -162q4 10 6 18.5t7 18.5h34q6 -10 12.5 -18.5t10.5 -18.5q4 2 4 11.5v15.5q0 8 4 10h33v-121h-31q-8 10 -15 23.5t-14 25.5q-6 -6 -5 -19t1 -24v-6h-34v78q0 4 -4.5 4t-8.5 2zM1380 -365q0 10 3 19.5t3 19.5l13 -2 q14 0 27.5 3t27.5 3l10 -2q-4 -10 -6 -26.5t-20 -14.5v-79h-39v75q0 6 -6.5 5t-10.5 -1h-2zM1464 -360q0 20 18.5 28t35.5 8q14 0 30 -6v-6q0 -8 -3 -11t-1 -13q-4 -4 -6 -5q-6 0 -11 2.5t-11 2.5q-8 0 -11 -5q16 -4 32.5 -13t16.5 -30q0 -14 -15.5 -27.5t-29.5 -13.5h-12v5 q-8 0 -18.5 2t-10.5 12q6 10 2 22q8 4 9 5q8 0 15 -4.5t15 -4.5l4 2q0 6 -8 9.5t-17 7.5t-16.5 10t-7.5 23zM1495 -182q0 18 14.5 34.5t30.5 18.5q6 6 16 6t20.5 -6t20.5 -10q6 -10 12.5 -22.5t6.5 -24.5q0 -27 -17.5 -42.5t-42.5 -15.5q-29 0 -45 16.5t-16 45.5zM1532 -186 q-1 -23 24 -23q23 0 23 25q0 10 -8 16t-17 6q-8 0 -6 -4q-16 -2 -16 -20zM1559 -426q0 20 20 20q8 0 11 -6t7 -10v-6q0 -10 -7 -13.5t-11 -7.5h-4q-8 0 -12 9.5t-4 13.5zM1599 -383q0 27 19.5 42t44.5 15q20 0 37 -12q-4 -10 -8 -17t-6 -18q-8 8 -25 8q-6 0 -12.5 -2 t-10.5 -10v-18q0 -6 7.5 -8.5t11.5 -2.5q8 0 14 2.5t15 2.5q2 0 2 -2q2 -8 5 -13.5t7 -13.5q-4 -10 -15.5 -11.5t-19.5 -7.5h-10v5q-27 2 -41.5 19t-14.5 42zM1620 -158q0 10 4 16.5t4 16.5h33q8 -10 14 -18.5t11 -18.5q4 2 3 11.5t-1 15.5t4 10h34v-121h-30 q-4 12 -13.5 22.5t-13.5 22.5q-6 -4 -4 -16t2 -19l-2 -6q-4 -4 -16 -4h-21v78q0 4 -4 4t-4 6zM1706 -387q0 27 15.5 43t43.5 16q23 0 42.5 -15t19.5 -40q0 -27 -19.5 -47.5t-46.5 -18.5v5q-23 0 -39 17t-16 40zM1745 -385q0 -19 16 -25q18 0 27 15v6q2 14 -6 20.5t-21 3.5 h-8q-8 -8 -8 -20zM1829 -360q0 8 4 16t4 18h39q4 -6 7 -13t11 -11q6 4 10.5 11t8.5 13h39v-118h-39v53q0 2 -2 2q-4 0 -7 -7t-6 -12h-2q-10 0 -11 9.5t-9 11.5v-57h-39v73q0 4 -4 5t-4 6z" />
<glyph unicode="5" d="M0 971q4 2 4 8q4 129 39 245.5t102 227.5q23 39 58 86t77 92t86 83t85 59l2 8h8l4 6q6 4 13 6t14 6q12 8 23 15.5t22 15.5q29 16 60.5 28.5t61.5 24.5q84 33 171.5 48.5t177.5 15.5q197 0 382 -73t326 -212q47 -47 90 -99.5t78 -111.5q10 -18 18.5 -38.5t18.5 -39.5 q6 -12 13.5 -22.5t11.5 -22.5q16 -33 25 -66.5t20 -68.5q20 -80 26 -148.5t6 -152.5q0 -6 -1 -22.5t-3 -34t-4 -34t-2 -24.5q-4 -25 -10 -49.5t-12 -48.5q-45 -168 -139.5 -306.5t-223.5 -237.5t-286.5 -154.5t-331.5 -55.5q-217 0 -404.5 83t-324 225.5t-212 333 t-69.5 405.5zM164 -326h39q2 -10 4 -21t2 -22q4 10 8 20.5t4 22.5h31q4 -10 5 -21t5 -22q8 8 7 20.5t5 22.5h76v-6q0 -10 3 -16t1 -17q10 4 11.5 16.5t5.5 22.5h28q0 -12 5.5 -22t3.5 -21q8 8 8 20.5t4 22.5h76q4 -10 4 -21t4 -22q4 10 7 20.5t3 22.5h31q4 -10 6 -21t6 -22 q6 8 6 20.5t4 22.5h35q-2 -31 -10 -60.5t-12 -57.5h-39v4q2 10 -3.5 18t-2.5 19q-8 -8 -10.5 -19.5t-2.5 -21.5h-39q-6 27 -11 52t-15 50q-16 -53 -23 -102h-37q-4 10 -6 19t-6 17q-8 -6 -7 -17t-5 -19h-37q-4 29 -11.5 53t-11.5 53q-12 -25 -15 -52.5t-11 -53.5h-39v4 q2 10 -4 18t-4 19q-6 -8 -8.5 -19.5t-2.5 -21.5h-39q-4 29 -13 58t-13 60zM195 1085q12 -2 24 -1t25 1h13t13 -4v-663h297v256v44t4 44q29 -2 57.5 -1t57.5 1h33.5t36.5 -4v-336q29 -4 57.5 -4h56.5q45 0 90.5 1t92.5 -1v964q-47 -2 -92.5 0t-90.5 2q-59 0 -114 -6v-311 h-189q0 47 1 96t1 97q0 61 -6 122h-280q-4 0 -5.5 -4t-3.5 -6q-18 -72 -40.5 -143.5t-38.5 -143.5zM367 -162q4 10 5 18.5t5 18.5h76v-2q2 -10 -3.5 -17.5t-3.5 -17.5q-6 -2 -12 -1t-12 1q-8 0 -10 -4q4 -6 15 -5t17 1h7q-2 -10 -6.5 -16.5t-2.5 -18.5h-30v-41h-21 q-14 0 -18 4l2 74q0 2 -8 6zM457 -162q4 10 6 18.5t6 18.5h35q0 -12 -1 -24.5t-1 -24.5q0 -20 8 -35h6q10 0 10 12.5v20.5v51h21q12 0 16 -4l2 -37q0 -27 -7 -53.5t-42 -26.5q-23 0 -43 19q-4 16 -4 29.5v29.5q0 4 -4 5t-8 1zM567 -162q4 8 6 17.5t7 19.5h20q12 0 16 -4 q0 -18 -1 -37.5t1 -38.5q2 -4 9.5 -4h11.5h4q-4 -10 -6 -18.5t-6 -18.5h-49v78q0 4 -4.5 4t-8.5 2zM604 -426q0 18 21 18q18 0 18 -18q1 -23 -22 -23q-16 8 -17 23zM641 -162q4 10 5 18.5t5 18.5h35q0 -20 -1 -39.5t1 -40.5q0 -4 7 -4h12h4v-4q2 -10 -3.5 -16.5t-5.5 -16.5 q-8 0 -15 -1t-15 -1q-14 0 -23 6l2 72q0 8 -8 8zM645 -360q0 10 3 17t3 17h39v-39h19q6 4 4 15.5t0 17.5v6q6 -2 11 -1t11 1h8.5t8.5 -4v-114h-39v41h-19q-6 -4 -5 -16.5t1 -18.5v-6h-39v67q2 2 2 6t-4 5t-4 6zM752 -125h36q4 -12 9.5 -23.5t7.5 -25.5q10 8 12 23.5t6 25.5 h39q-6 -31 -17 -61.5t-22 -59.5h-30q-10 29 -21.5 59.5t-19.5 61.5zM756 -326h37l12 -24q4 4 5 11t5 13h39q-4 -18 -10 -30.5t-12.5 -24.5t-9.5 -26.5t1 -36.5h-39q0 37 -2 51t-6 21t-9 14t-11 32zM850 -365q4 10 6 19.5t6 19.5h19q23 0 45 -9t22 -38q0 -23 -22 -45h-2 q-8 0 -11.5 -3t-13.5 -1v-22h-37v75q0 4 -5 4h-7zM858 -162q4 8 6 17.5t4 19.5h80q-4 -10 -7 -18.5t-3 -18.5q-4 -2 -10 -1t-10 1q-8 0 -11 -4q4 -6 15.5 -5t17.5 1h6q-2 -8 -4 -15.5t-4 -15.5h-31q4 -6 15.5 -4t17.5 0h6v-2q0 -10 -4 -19.5t-8 -19.5h-66v80q0 4 -4 3t-6 1z M899 -365v-18l4 -2q8 0 8 10t-8 10h-4zM952 -160q0 10 4.5 17.5t8.5 17.5h16q29 2 50.5 -5t21.5 -42q0 -10 -3 -20.5t-14 -16.5q0 -10 8.5 -16t8.5 -19v-2q-6 -2 -17 -2q-12 0 -23.5 4t-11.5 21q-4 -2 -4 -6v-9q0 -8 -2 -8h-34v78q0 4 -4.5 4t-4.5 4zM952 -360q0 4 5.5 17 t7.5 17l12 -2q14 0 27.5 3t27.5 3l8 -2l-4 -20t-6 -21h-31q4 -6 15.5 -4t15.5 0h6q0 -2 1 -3t1 -3q0 -6 -3 -12t-3 -12q-4 -2 -10 -1t-12 1q-8 0 -11 -4q4 -4 16.5 -3.5t18.5 0.5l6 -2q-4 -10 -5 -18t-5 -18h-69v73q0 4 -4.5 5t-4.5 6zM999 -162v-20h5q12 0 10 12v4 q-4 0 -6 2t-7 2h-2zM1044 -356q6 4 6.5 13t6.5 17l12 -2q14 0 26.5 3t26.5 3l11 -2q-4 -23 -13 -41h-30q0 -10 13 -8t19 2q2 0 3 -1t3 -1q-2 -16 -12 -35h-26v-36h-37q-4 14 -2 27.5t2 29.5q0 10 -4.5 18.5t-4.5 12.5zM1063 -160q0 20 20.5 28.5t36.5 8.5q15 0 31 -6 q-4 -8 -5 -16.5t-7 -16.5q-6 0 -12.5 2t-14.5 2q-4 0 -6 -2q6 -10 18.5 -12t22.5 -10q6 -10 6 -23q0 -14 -6 -26q-16 -14 -43 -15q-18 0 -37 6v4q0 10 3 17.5t5 17.5q8 -2 15.5 -5t15.5 -3h6q0 10 -10 12t-19 4q-6 10 -13 15.5t-7 17.5zM1112 1085q12 -2 24.5 -1t24.5 1 q18 0 29 -4v-663h297v325h225q16 68 38 134.5t38 136.5h-301q2 10 1 21.5t-1 21.5v13t4 11h252q18 82 43.5 162t46.5 162h-283q-10 -5 -6 -19q-72 -6 -144.5 -5t-144.5 1h-55q-25 -74 -44 -148.5t-44 -148.5zM1139 -379q0 23 19.5 37t41.5 14q27 0 44.5 -16t17.5 -43 q0 -23 -21.5 -44.5t-44.5 -17.5v5q-29 0 -43 18t-14 47zM1155 -162q4 10 6 18.5t4 18.5h35v-121h-35l2 78q0 4 -4 5t-8 1zM1178 -387q0 -8 8 -21q4 0 6 -1t6 -1q20 0 25 27q-2 4 -5.5 9t-5.5 9q-4 0 -5 1.5t-5 1.5q-25 0 -24 -25zM1212 -178q0 18 14.5 32.5t30.5 16.5 q4 4 17 4q10 0 20.5 -5t20.5 -9q10 -16 18 -43q-4 -23 -17 -43.5t-40 -20.5q-29 0 -46.5 19.5t-17.5 48.5zM1249 -182q0 -27 29 -27h2q14 10 14 25q0 8 -6 18q-8 4 -16 4t-15.5 -5t-7.5 -15zM1262 -365q4 10 6 19.5t6 19.5h37q2 -12 9 -20t11 -19q4 4 3 15.5t-1 17.5v6h39 v-118h-35l-12 24t-18 21v-45h-33v75q0 4 -4 4h-8zM1333 -162q4 10 6 18.5t7 18.5h34q6 -10 12.5 -18.5t10.5 -18.5q4 2 4 11.5v15.5q0 8 4 10h33v-121h-31q-8 10 -15 23.5t-14 25.5q-6 -6 -5 -19t1 -24v-6h-34v78q0 4 -4.5 4t-8.5 2zM1380 -365q0 10 3 19.5t3 19.5l13 -2 q14 0 27.5 3t27.5 3l10 -2q-4 -10 -6 -26.5t-20 -14.5v-79h-39v75q0 6 -6.5 5t-10.5 -1h-2zM1464 -360q0 20 18.5 28t35.5 8q14 0 30 -6v-6q0 -8 -3 -11t-1 -13q-4 -4 -6 -5q-6 0 -11 2.5t-11 2.5q-8 0 -11 -5q16 -4 32.5 -13t16.5 -30q0 -14 -15.5 -27.5t-29.5 -13.5h-12v5 q-8 0 -18.5 2t-10.5 12q6 10 2 22q8 4 9 5q8 0 15 -4.5t15 -4.5l4 2q0 6 -8 9.5t-17 7.5t-16.5 10t-7.5 23zM1495 -182q0 18 14.5 34.5t30.5 18.5q6 6 16 6t20.5 -6t20.5 -10q6 -10 12.5 -22.5t6.5 -24.5q0 -27 -17.5 -42.5t-42.5 -15.5q-29 0 -45 16.5t-16 45.5zM1532 -186 q-1 -23 24 -23q23 0 23 25q0 10 -8 16t-17 6q-8 0 -6 -4q-16 -2 -16 -20zM1559 -426q0 20 20 20q8 0 11 -6t7 -10v-6q0 -10 -7 -13.5t-11 -7.5h-4q-8 0 -12 9.5t-4 13.5zM1599 -383q0 27 19.5 42t44.5 15q20 0 37 -12q-4 -10 -8 -17t-6 -18q-8 8 -25 8q-6 0 -12.5 -2 t-10.5 -10v-18q0 -6 7.5 -8.5t11.5 -2.5q8 0 14 2.5t15 2.5q2 0 2 -2q2 -8 5 -13.5t7 -13.5q-4 -10 -15.5 -11.5t-19.5 -7.5h-10v5q-27 2 -41.5 19t-14.5 42zM1620 -158q0 10 4 16.5t4 16.5h33q8 -10 14 -18.5t11 -18.5q4 2 3 11.5t-1 15.5t4 10h34v-121h-30 q-4 12 -13.5 22.5t-13.5 22.5q-6 -4 -4 -16t2 -19l-2 -6q-4 -4 -16 -4h-21v78q0 4 -4 4t-4 6zM1706 -387q0 27 15.5 43t43.5 16q23 0 42.5 -15t19.5 -40q0 -27 -19.5 -47.5t-46.5 -18.5v5q-23 0 -39 17t-16 40zM1745 -385q0 -19 16 -25q18 0 27 15v6q2 14 -6 20.5t-21 3.5 h-8q-8 -8 -8 -20zM1829 -360q0 8 4 16t4 18h39q4 -6 7 -13t11 -11q6 4 10.5 11t8.5 13h39v-118h-39v53q0 2 -2 2q-4 0 -7 -7t-6 -12h-2q-10 0 -11 9.5t-9 11.5v-57h-39v73q0 4 -4 5t-4 6z" />
<glyph unicode="6" d="M0 971q4 2 4 8q4 129 39 245.5t102 227.5q23 39 58 86t77 92t86 83t85 59l2 8h8l4 6q6 4 13 6t14 6q12 8 23 15.5t22 15.5q29 16 60.5 28.5t61.5 24.5q84 33 171.5 48.5t177.5 15.5q197 0 382 -73t326 -212q47 -47 90 -99.5t78 -111.5q10 -18 18.5 -38.5t18.5 -39.5 q6 -12 13.5 -22.5t11.5 -22.5q16 -33 25 -66.5t20 -68.5q20 -80 26 -148.5t6 -152.5q0 -6 -1 -22.5t-3 -34t-4 -34t-2 -24.5q-4 -25 -10 -49.5t-12 -48.5q-45 -168 -139.5 -306.5t-223.5 -237.5t-286.5 -154.5t-331.5 -55.5q-217 0 -404.5 83t-324 225.5t-212 333 t-69.5 405.5zM164 -326h39q2 -10 4 -21t2 -22q4 10 8 20.5t4 22.5h31q4 -10 5 -21t5 -22q8 8 7 20.5t5 22.5h76v-6q0 -10 3 -16t1 -17q10 4 11.5 16.5t5.5 22.5h28q0 -12 5.5 -22t3.5 -21q8 8 8 20.5t4 22.5h76q4 -10 4 -21t4 -22q4 10 7 20.5t3 22.5h31q4 -10 6 -21t6 -22 q6 8 6 20.5t4 22.5h35q-2 -31 -10 -60.5t-12 -57.5h-39v4q2 10 -3.5 18t-2.5 19q-8 -8 -10.5 -19.5t-2.5 -21.5h-39q-6 27 -11 52t-15 50q-16 -53 -23 -102h-37q-4 10 -6 19t-6 17q-8 -6 -7 -17t-5 -19h-37q-4 29 -11.5 53t-11.5 53q-12 -25 -15 -52.5t-11 -53.5h-39v4 q2 10 -4 18t-4 19q-6 -8 -8.5 -19.5t-2.5 -21.5h-39q-4 29 -13 58t-13 60zM195 1085q12 -2 24 -1t25 1h13t13 -4v-663h297v256v44t4 44q29 -2 57.5 -1t57.5 1h33.5t36.5 -4v-336q29 -4 57.5 -4h56.5q45 0 90.5 1t92.5 -1v964q-47 -2 -92.5 0t-90.5 2q-59 0 -114 -6v-311 h-189q0 47 1 96t1 97q0 61 -6 122h-280q-4 0 -5.5 -4t-3.5 -6q-18 -72 -40.5 -143.5t-38.5 -143.5zM367 -162q4 10 5 18.5t5 18.5h76v-2q2 -10 -3.5 -17.5t-3.5 -17.5q-6 -2 -12 -1t-12 1q-8 0 -10 -4q4 -6 15 -5t17 1h7q-2 -10 -6.5 -16.5t-2.5 -18.5h-30v-41h-21 q-14 0 -18 4l2 74q0 2 -8 6zM457 -162q4 10 6 18.5t6 18.5h35q0 -12 -1 -24.5t-1 -24.5q0 -20 8 -35h6q10 0 10 12.5v20.5v51h21q12 0 16 -4l2 -37q0 -27 -7 -53.5t-42 -26.5q-23 0 -43 19q-4 16 -4 29.5v29.5q0 4 -4 5t-8 1zM567 -162q4 8 6 17.5t7 19.5h20q12 0 16 -4 q0 -18 -1 -37.5t1 -38.5q2 -4 9.5 -4h11.5h4q-4 -10 -6 -18.5t-6 -18.5h-49v78q0 4 -4.5 4t-8.5 2zM604 -426q0 18 21 18q18 0 18 -18q1 -23 -22 -23q-16 8 -17 23zM641 -162q4 10 5 18.5t5 18.5h35q0 -20 -1 -39.5t1 -40.5q0 -4 7 -4h12h4v-4q2 -10 -3.5 -16.5t-5.5 -16.5 q-8 0 -15 -1t-15 -1q-14 0 -23 6l2 72q0 8 -8 8zM645 -360q0 10 3 17t3 17h39v-39h19q6 4 4 15.5t0 17.5v6q6 -2 11 -1t11 1h8.5t8.5 -4v-114h-39v41h-19q-6 -4 -5 -16.5t1 -18.5v-6h-39v67q2 2 2 6t-4 5t-4 6zM752 -125h36q4 -12 9.5 -23.5t7.5 -25.5q10 8 12 23.5t6 25.5 h39q-6 -31 -17 -61.5t-22 -59.5h-30q-10 29 -21.5 59.5t-19.5 61.5zM756 -326h37l12 -24q4 4 5 11t5 13h39q-4 -18 -10 -30.5t-12.5 -24.5t-9.5 -26.5t1 -36.5h-39q0 37 -2 51t-6 21t-9 14t-11 32zM850 -365q4 10 6 19.5t6 19.5h19q23 0 45 -9t22 -38q0 -23 -22 -45h-2 q-8 0 -11.5 -3t-13.5 -1v-22h-37v75q0 4 -5 4h-7zM858 -162q4 8 6 17.5t4 19.5h80q-4 -10 -7 -18.5t-3 -18.5q-4 -2 -10 -1t-10 1q-8 0 -11 -4q4 -6 15.5 -5t17.5 1h6q-2 -8 -4 -15.5t-4 -15.5h-31q4 -6 15.5 -4t17.5 0h6v-2q0 -10 -4 -19.5t-8 -19.5h-66v80q0 4 -4 3t-6 1z M899 -365v-18l4 -2q8 0 8 10t-8 10h-4zM952 -160q0 10 4.5 17.5t8.5 17.5h16q29 2 50.5 -5t21.5 -42q0 -10 -3 -20.5t-14 -16.5q0 -10 8.5 -16t8.5 -19v-2q-6 -2 -17 -2q-12 0 -23.5 4t-11.5 21q-4 -2 -4 -6v-9q0 -8 -2 -8h-34v78q0 4 -4.5 4t-4.5 4zM952 -360q0 4 5.5 17 t7.5 17l12 -2q14 0 27.5 3t27.5 3l8 -2l-4 -20t-6 -21h-31q4 -6 15.5 -4t15.5 0h6q0 -2 1 -3t1 -3q0 -6 -3 -12t-3 -12q-4 -2 -10 -1t-12 1q-8 0 -11 -4q4 -4 16.5 -3.5t18.5 0.5l6 -2q-4 -10 -5 -18t-5 -18h-69v73q0 4 -4.5 5t-4.5 6zM999 -162v-20h5q12 0 10 12v4 q-4 0 -6 2t-7 2h-2zM1044 -356q6 4 6.5 13t6.5 17l12 -2q14 0 26.5 3t26.5 3l11 -2q-4 -23 -13 -41h-30q0 -10 13 -8t19 2q2 0 3 -1t3 -1q-2 -16 -12 -35h-26v-36h-37q-4 14 -2 27.5t2 29.5q0 10 -4.5 18.5t-4.5 12.5zM1063 -160q0 20 20.5 28.5t36.5 8.5q15 0 31 -6 q-4 -8 -5 -16.5t-7 -16.5q-6 0 -12.5 2t-14.5 2q-4 0 -6 -2q6 -10 18.5 -12t22.5 -10q6 -10 6 -23q0 -14 -6 -26q-16 -14 -43 -15q-18 0 -37 6v4q0 10 3 17.5t5 17.5q8 -2 15.5 -5t15.5 -3h6q0 10 -10 12t-19 4q-6 10 -13 15.5t-7 17.5zM1112 1085q12 -2 24.5 -1t24.5 1 q18 0 29 -4v-663h297v325h225q16 68 38 134.5t38 136.5h-301q2 10 1 21.5t-1 21.5v13t4 11h252q18 82 43.5 162t46.5 162h-283q-10 -5 -6 -19q-72 -6 -144.5 -5t-144.5 1h-55q-25 -74 -44 -148.5t-44 -148.5zM1139 -379q0 23 19.5 37t41.5 14q27 0 44.5 -16t17.5 -43 q0 -23 -21.5 -44.5t-44.5 -17.5v5q-29 0 -43 18t-14 47zM1155 -162q4 10 6 18.5t4 18.5h35v-121h-35l2 78q0 4 -4 5t-8 1zM1178 -387q0 -8 8 -21q4 0 6 -1t6 -1q20 0 25 27q-2 4 -5.5 9t-5.5 9q-4 0 -5 1.5t-5 1.5q-25 0 -24 -25zM1212 -178q0 18 14.5 32.5t30.5 16.5 q4 4 17 4q10 0 20.5 -5t20.5 -9q10 -16 18 -43q-4 -23 -17 -43.5t-40 -20.5q-29 0 -46.5 19.5t-17.5 48.5zM1249 -182q0 -27 29 -27h2q14 10 14 25q0 8 -6 18q-8 4 -16 4t-15.5 -5t-7.5 -15zM1262 -365q4 10 6 19.5t6 19.5h37q2 -12 9 -20t11 -19q4 4 3 15.5t-1 17.5v6h39 v-118h-35l-12 24t-18 21v-45h-33v75q0 4 -4 4h-8zM1333 -162q4 10 6 18.5t7 18.5h34q6 -10 12.5 -18.5t10.5 -18.5q4 2 4 11.5v15.5q0 8 4 10h33v-121h-31q-8 10 -15 23.5t-14 25.5q-6 -6 -5 -19t1 -24v-6h-34v78q0 4 -4.5 4t-8.5 2zM1380 -365q0 10 3 19.5t3 19.5l13 -2 q14 0 27.5 3t27.5 3l10 -2q-4 -10 -6 -26.5t-20 -14.5v-79h-39v75q0 6 -6.5 5t-10.5 -1h-2zM1464 -360q0 20 18.5 28t35.5 8q14 0 30 -6v-6q0 -8 -3 -11t-1 -13q-4 -4 -6 -5q-6 0 -11 2.5t-11 2.5q-8 0 -11 -5q16 -4 32.5 -13t16.5 -30q0 -14 -15.5 -27.5t-29.5 -13.5h-12v5 q-8 0 -18.5 2t-10.5 12q6 10 2 22q8 4 9 5q8 0 15 -4.5t15 -4.5l4 2q0 6 -8 9.5t-17 7.5t-16.5 10t-7.5 23zM1495 -182q0 18 14.5 34.5t30.5 18.5q6 6 16 6t20.5 -6t20.5 -10q6 -10 12.5 -22.5t6.5 -24.5q0 -27 -17.5 -42.5t-42.5 -15.5q-29 0 -45 16.5t-16 45.5zM1532 -186 q-1 -23 24 -23q23 0 23 25q0 10 -8 16t-17 6q-8 0 -6 -4q-16 -2 -16 -20zM1559 -426q0 20 20 20q8 0 11 -6t7 -10v-6q0 -10 -7 -13.5t-11 -7.5h-4q-8 0 -12 9.5t-4 13.5zM1599 -383q0 27 19.5 42t44.5 15q20 0 37 -12q-4 -10 -8 -17t-6 -18q-8 8 -25 8q-6 0 -12.5 -2 t-10.5 -10v-18q0 -6 7.5 -8.5t11.5 -2.5q8 0 14 2.5t15 2.5q2 0 2 -2q2 -8 5 -13.5t7 -13.5q-4 -10 -15.5 -11.5t-19.5 -7.5h-10v5q-27 2 -41.5 19t-14.5 42zM1620 -158q0 10 4 16.5t4 16.5h33q8 -10 14 -18.5t11 -18.5q4 2 3 11.5t-1 15.5t4 10h34v-121h-30 q-4 12 -13.5 22.5t-13.5 22.5q-6 -4 -4 -16t2 -19l-2 -6q-4 -4 -16 -4h-21v78q0 4 -4 4t-4 6zM1706 -387q0 27 15.5 43t43.5 16q23 0 42.5 -15t19.5 -40q0 -27 -19.5 -47.5t-46.5 -18.5v5q-23 0 -39 17t-16 40zM1745 -385q0 -19 16 -25q18 0 27 15v6q2 14 -6 20.5t-21 3.5 h-8q-8 -8 -8 -20zM1829 -360q0 8 4 16t4 18h39q4 -6 7 -13t11 -11q6 4 10.5 11t8.5 13h39v-118h-39v53q0 2 -2 2q-4 0 -7 -7t-6 -12h-2q-10 0 -11 9.5t-9 11.5v-57h-39v73q0 4 -4 5t-4 6z" />
<glyph unicode="7" d="M0 971q4 2 4 8q4 129 39 245.5t102 227.5q23 39 58 86t77 92t86 83t85 59l2 8h8l4 6q6 4 13 6t14 6q12 8 23 15.5t22 15.5q29 16 60.5 28.5t61.5 24.5q84 33 171.5 48.5t177.5 15.5q197 0 382 -73t326 -212q47 -47 90 -99.5t78 -111.5q10 -18 18.5 -38.5t18.5 -39.5 q6 -12 13.5 -22.5t11.5 -22.5q16 -33 25 -66.5t20 -68.5q20 -80 26 -148.5t6 -152.5q0 -6 -1 -22.5t-3 -34t-4 -34t-2 -24.5q-4 -25 -10 -49.5t-12 -48.5q-45 -168 -139.5 -306.5t-223.5 -237.5t-286.5 -154.5t-331.5 -55.5q-217 0 -404.5 83t-324 225.5t-212 333 t-69.5 405.5zM164 -326h39q2 -10 4 -21t2 -22q4 10 8 20.5t4 22.5h31q4 -10 5 -21t5 -22q8 8 7 20.5t5 22.5h76v-6q0 -10 3 -16t1 -17q10 4 11.5 16.5t5.5 22.5h28q0 -12 5.5 -22t3.5 -21q8 8 8 20.5t4 22.5h76q4 -10 4 -21t4 -22q4 10 7 20.5t3 22.5h31q4 -10 6 -21t6 -22 q6 8 6 20.5t4 22.5h35q-2 -31 -10 -60.5t-12 -57.5h-39v4q2 10 -3.5 18t-2.5 19q-8 -8 -10.5 -19.5t-2.5 -21.5h-39q-6 27 -11 52t-15 50q-16 -53 -23 -102h-37q-4 10 -6 19t-6 17q-8 -6 -7 -17t-5 -19h-37q-4 29 -11.5 53t-11.5 53q-12 -25 -15 -52.5t-11 -53.5h-39v4 q2 10 -4 18t-4 19q-6 -8 -8.5 -19.5t-2.5 -21.5h-39q-4 29 -13 58t-13 60zM195 1085q12 -2 24 -1t25 1h13t13 -4v-663h297v256v44t4 44q29 -2 57.5 -1t57.5 1h33.5t36.5 -4v-336q29 -4 57.5 -4h56.5q45 0 90.5 1t92.5 -1v964q-47 -2 -92.5 0t-90.5 2q-59 0 -114 -6v-311 h-189q0 47 1 96t1 97q0 61 -6 122h-280q-4 0 -5.5 -4t-3.5 -6q-18 -72 -40.5 -143.5t-38.5 -143.5zM367 -162q4 10 5 18.5t5 18.5h76v-2q2 -10 -3.5 -17.5t-3.5 -17.5q-6 -2 -12 -1t-12 1q-8 0 -10 -4q4 -6 15 -5t17 1h7q-2 -10 -6.5 -16.5t-2.5 -18.5h-30v-41h-21 q-14 0 -18 4l2 74q0 2 -8 6zM457 -162q4 10 6 18.5t6 18.5h35q0 -12 -1 -24.5t-1 -24.5q0 -20 8 -35h6q10 0 10 12.5v20.5v51h21q12 0 16 -4l2 -37q0 -27 -7 -53.5t-42 -26.5q-23 0 -43 19q-4 16 -4 29.5v29.5q0 4 -4 5t-8 1zM567 -162q4 8 6 17.5t7 19.5h20q12 0 16 -4 q0 -18 -1 -37.5t1 -38.5q2 -4 9.5 -4h11.5h4q-4 -10 -6 -18.5t-6 -18.5h-49v78q0 4 -4.5 4t-8.5 2zM604 -426q0 18 21 18q18 0 18 -18q1 -23 -22 -23q-16 8 -17 23zM641 -162q4 10 5 18.5t5 18.5h35q0 -20 -1 -39.5t1 -40.5q0 -4 7 -4h12h4v-4q2 -10 -3.5 -16.5t-5.5 -16.5 q-8 0 -15 -1t-15 -1q-14 0 -23 6l2 72q0 8 -8 8zM645 -360q0 10 3 17t3 17h39v-39h19q6 4 4 15.5t0 17.5v6q6 -2 11 -1t11 1h8.5t8.5 -4v-114h-39v41h-19q-6 -4 -5 -16.5t1 -18.5v-6h-39v67q2 2 2 6t-4 5t-4 6zM752 -125h36q4 -12 9.5 -23.5t7.5 -25.5q10 8 12 23.5t6 25.5 h39q-6 -31 -17 -61.5t-22 -59.5h-30q-10 29 -21.5 59.5t-19.5 61.5zM756 -326h37l12 -24q4 4 5 11t5 13h39q-4 -18 -10 -30.5t-12.5 -24.5t-9.5 -26.5t1 -36.5h-39q0 37 -2 51t-6 21t-9 14t-11 32zM850 -365q4 10 6 19.5t6 19.5h19q23 0 45 -9t22 -38q0 -23 -22 -45h-2 q-8 0 -11.5 -3t-13.5 -1v-22h-37v75q0 4 -5 4h-7zM858 -162q4 8 6 17.5t4 19.5h80q-4 -10 -7 -18.5t-3 -18.5q-4 -2 -10 -1t-10 1q-8 0 -11 -4q4 -6 15.5 -5t17.5 1h6q-2 -8 -4 -15.5t-4 -15.5h-31q4 -6 15.5 -4t17.5 0h6v-2q0 -10 -4 -19.5t-8 -19.5h-66v80q0 4 -4 3t-6 1z M899 -365v-18l4 -2q8 0 8 10t-8 10h-4zM952 -160q0 10 4.5 17.5t8.5 17.5h16q29 2 50.5 -5t21.5 -42q0 -10 -3 -20.5t-14 -16.5q0 -10 8.5 -16t8.5 -19v-2q-6 -2 -17 -2q-12 0 -23.5 4t-11.5 21q-4 -2 -4 -6v-9q0 -8 -2 -8h-34v78q0 4 -4.5 4t-4.5 4zM952 -360q0 4 5.5 17 t7.5 17l12 -2q14 0 27.5 3t27.5 3l8 -2l-4 -20t-6 -21h-31q4 -6 15.5 -4t15.5 0h6q0 -2 1 -3t1 -3q0 -6 -3 -12t-3 -12q-4 -2 -10 -1t-12 1q-8 0 -11 -4q4 -4 16.5 -3.5t18.5 0.5l6 -2q-4 -10 -5 -18t-5 -18h-69v73q0 4 -4.5 5t-4.5 6zM999 -162v-20h5q12 0 10 12v4 q-4 0 -6 2t-7 2h-2zM1044 -356q6 4 6.5 13t6.5 17l12 -2q14 0 26.5 3t26.5 3l11 -2q-4 -23 -13 -41h-30q0 -10 13 -8t19 2q2 0 3 -1t3 -1q-2 -16 -12 -35h-26v-36h-37q-4 14 -2 27.5t2 29.5q0 10 -4.5 18.5t-4.5 12.5zM1063 -160q0 20 20.5 28.5t36.5 8.5q15 0 31 -6 q-4 -8 -5 -16.5t-7 -16.5q-6 0 -12.5 2t-14.5 2q-4 0 -6 -2q6 -10 18.5 -12t22.5 -10q6 -10 6 -23q0 -14 -6 -26q-16 -14 -43 -15q-18 0 -37 6v4q0 10 3 17.5t5 17.5q8 -2 15.5 -5t15.5 -3h6q0 10 -10 12t-19 4q-6 10 -13 15.5t-7 17.5zM1112 1085q12 -2 24.5 -1t24.5 1 q18 0 29 -4v-663h297v325h225q16 68 38 134.5t38 136.5h-301q2 10 1 21.5t-1 21.5v13t4 11h252q18 82 43.5 162t46.5 162h-283q-10 -5 -6 -19q-72 -6 -144.5 -5t-144.5 1h-55q-25 -74 -44 -148.5t-44 -148.5zM1139 -379q0 23 19.5 37t41.5 14q27 0 44.5 -16t17.5 -43 q0 -23 -21.5 -44.5t-44.5 -17.5v5q-29 0 -43 18t-14 47zM1155 -162q4 10 6 18.5t4 18.5h35v-121h-35l2 78q0 4 -4 5t-8 1zM1178 -387q0 -8 8 -21q4 0 6 -1t6 -1q20 0 25 27q-2 4 -5.5 9t-5.5 9q-4 0 -5 1.5t-5 1.5q-25 0 -24 -25zM1212 -178q0 18 14.5 32.5t30.5 16.5 q4 4 17 4q10 0 20.5 -5t20.5 -9q10 -16 18 -43q-4 -23 -17 -43.5t-40 -20.5q-29 0 -46.5 19.5t-17.5 48.5zM1249 -182q0 -27 29 -27h2q14 10 14 25q0 8 -6 18q-8 4 -16 4t-15.5 -5t-7.5 -15zM1262 -365q4 10 6 19.5t6 19.5h37q2 -12 9 -20t11 -19q4 4 3 15.5t-1 17.5v6h39 v-118h-35l-12 24t-18 21v-45h-33v75q0 4 -4 4h-8zM1333 -162q4 10 6 18.5t7 18.5h34q6 -10 12.5 -18.5t10.5 -18.5q4 2 4 11.5v15.5q0 8 4 10h33v-121h-31q-8 10 -15 23.5t-14 25.5q-6 -6 -5 -19t1 -24v-6h-34v78q0 4 -4.5 4t-8.5 2zM1380 -365q0 10 3 19.5t3 19.5l13 -2 q14 0 27.5 3t27.5 3l10 -2q-4 -10 -6 -26.5t-20 -14.5v-79h-39v75q0 6 -6.5 5t-10.5 -1h-2zM1464 -360q0 20 18.5 28t35.5 8q14 0 30 -6v-6q0 -8 -3 -11t-1 -13q-4 -4 -6 -5q-6 0 -11 2.5t-11 2.5q-8 0 -11 -5q16 -4 32.5 -13t16.5 -30q0 -14 -15.5 -27.5t-29.5 -13.5h-12v5 q-8 0 -18.5 2t-10.5 12q6 10 2 22q8 4 9 5q8 0 15 -4.5t15 -4.5l4 2q0 6 -8 9.5t-17 7.5t-16.5 10t-7.5 23zM1495 -182q0 18 14.5 34.5t30.5 18.5q6 6 16 6t20.5 -6t20.5 -10q6 -10 12.5 -22.5t6.5 -24.5q0 -27 -17.5 -42.5t-42.5 -15.5q-29 0 -45 16.5t-16 45.5zM1532 -186 q-1 -23 24 -23q23 0 23 25q0 10 -8 16t-17 6q-8 0 -6 -4q-16 -2 -16 -20zM1559 -426q0 20 20 20q8 0 11 -6t7 -10v-6q0 -10 -7 -13.5t-11 -7.5h-4q-8 0 -12 9.5t-4 13.5zM1599 -383q0 27 19.5 42t44.5 15q20 0 37 -12q-4 -10 -8 -17t-6 -18q-8 8 -25 8q-6 0 -12.5 -2 t-10.5 -10v-18q0 -6 7.5 -8.5t11.5 -2.5q8 0 14 2.5t15 2.5q2 0 2 -2q2 -8 5 -13.5t7 -13.5q-4 -10 -15.5 -11.5t-19.5 -7.5h-10v5q-27 2 -41.5 19t-14.5 42zM1620 -158q0 10 4 16.5t4 16.5h33q8 -10 14 -18.5t11 -18.5q4 2 3 11.5t-1 15.5t4 10h34v-121h-30 q-4 12 -13.5 22.5t-13.5 22.5q-6 -4 -4 -16t2 -19l-2 -6q-4 -4 -16 -4h-21v78q0 4 -4 4t-4 6zM1706 -387q0 27 15.5 43t43.5 16q23 0 42.5 -15t19.5 -40q0 -27 -19.5 -47.5t-46.5 -18.5v5q-23 0 -39 17t-16 40zM1745 -385q0 -19 16 -25q18 0 27 15v6q2 14 -6 20.5t-21 3.5 h-8q-8 -8 -8 -20zM1829 -360q0 8 4 16t4 18h39q4 -6 7 -13t11 -11q6 4 10.5 11t8.5 13h39v-118h-39v53q0 2 -2 2q-4 0 -7 -7t-6 -12h-2q-10 0 -11 9.5t-9 11.5v-57h-39v73q0 4 -4 5t-4 6z" />
<glyph unicode="8" d="M0 971q4 2 4 8q4 129 39 245.5t102 227.5q23 39 58 86t77 92t86 83t85 59l2 8h8l4 6q6 4 13 6t14 6q12 8 23 15.5t22 15.5q29 16 60.5 28.5t61.5 24.5q84 33 171.5 48.5t177.5 15.5q197 0 382 -73t326 -212q47 -47 90 -99.5t78 -111.5q10 -18 18.5 -38.5t18.5 -39.5 q6 -12 13.5 -22.5t11.5 -22.5q16 -33 25 -66.5t20 -68.5q20 -80 26 -148.5t6 -152.5q0 -6 -1 -22.5t-3 -34t-4 -34t-2 -24.5q-4 -25 -10 -49.5t-12 -48.5q-45 -168 -139.5 -306.5t-223.5 -237.5t-286.5 -154.5t-331.5 -55.5q-217 0 -404.5 83t-324 225.5t-212 333 t-69.5 405.5zM164 -326h39q2 -10 4 -21t2 -22q4 10 8 20.5t4 22.5h31q4 -10 5 -21t5 -22q8 8 7 20.5t5 22.5h76v-6q0 -10 3 -16t1 -17q10 4 11.5 16.5t5.5 22.5h28q0 -12 5.5 -22t3.5 -21q8 8 8 20.5t4 22.5h76q4 -10 4 -21t4 -22q4 10 7 20.5t3 22.5h31q4 -10 6 -21t6 -22 q6 8 6 20.5t4 22.5h35q-2 -31 -10 -60.5t-12 -57.5h-39v4q2 10 -3.5 18t-2.5 19q-8 -8 -10.5 -19.5t-2.5 -21.5h-39q-6 27 -11 52t-15 50q-16 -53 -23 -102h-37q-4 10 -6 19t-6 17q-8 -6 -7 -17t-5 -19h-37q-4 29 -11.5 53t-11.5 53q-12 -25 -15 -52.5t-11 -53.5h-39v4 q2 10 -4 18t-4 19q-6 -8 -8.5 -19.5t-2.5 -21.5h-39q-4 29 -13 58t-13 60zM195 1085q12 -2 24 -1t25 1h13t13 -4v-663h297v256v44t4 44q29 -2 57.5 -1t57.5 1h33.5t36.5 -4v-336q29 -4 57.5 -4h56.5q45 0 90.5 1t92.5 -1v964q-47 -2 -92.5 0t-90.5 2q-59 0 -114 -6v-311 h-189q0 47 1 96t1 97q0 61 -6 122h-280q-4 0 -5.5 -4t-3.5 -6q-18 -72 -40.5 -143.5t-38.5 -143.5zM367 -162q4 10 5 18.5t5 18.5h76v-2q2 -10 -3.5 -17.5t-3.5 -17.5q-6 -2 -12 -1t-12 1q-8 0 -10 -4q4 -6 15 -5t17 1h7q-2 -10 -6.5 -16.5t-2.5 -18.5h-30v-41h-21 q-14 0 -18 4l2 74q0 2 -8 6zM457 -162q4 10 6 18.5t6 18.5h35q0 -12 -1 -24.5t-1 -24.5q0 -20 8 -35h6q10 0 10 12.5v20.5v51h21q12 0 16 -4l2 -37q0 -27 -7 -53.5t-42 -26.5q-23 0 -43 19q-4 16 -4 29.5v29.5q0 4 -4 5t-8 1zM567 -162q4 8 6 17.5t7 19.5h20q12 0 16 -4 q0 -18 -1 -37.5t1 -38.5q2 -4 9.5 -4h11.5h4q-4 -10 -6 -18.5t-6 -18.5h-49v78q0 4 -4.5 4t-8.5 2zM604 -426q0 18 21 18q18 0 18 -18q1 -23 -22 -23q-16 8 -17 23zM641 -162q4 10 5 18.5t5 18.5h35q0 -20 -1 -39.5t1 -40.5q0 -4 7 -4h12h4v-4q2 -10 -3.5 -16.5t-5.5 -16.5 q-8 0 -15 -1t-15 -1q-14 0 -23 6l2 72q0 8 -8 8zM645 -360q0 10 3 17t3 17h39v-39h19q6 4 4 15.5t0 17.5v6q6 -2 11 -1t11 1h8.5t8.5 -4v-114h-39v41h-19q-6 -4 -5 -16.5t1 -18.5v-6h-39v67q2 2 2 6t-4 5t-4 6zM752 -125h36q4 -12 9.5 -23.5t7.5 -25.5q10 8 12 23.5t6 25.5 h39q-6 -31 -17 -61.5t-22 -59.5h-30q-10 29 -21.5 59.5t-19.5 61.5zM756 -326h37l12 -24q4 4 5 11t5 13h39q-4 -18 -10 -30.5t-12.5 -24.5t-9.5 -26.5t1 -36.5h-39q0 37 -2 51t-6 21t-9 14t-11 32zM850 -365q4 10 6 19.5t6 19.5h19q23 0 45 -9t22 -38q0 -23 -22 -45h-2 q-8 0 -11.5 -3t-13.5 -1v-22h-37v75q0 4 -5 4h-7zM858 -162q4 8 6 17.5t4 19.5h80q-4 -10 -7 -18.5t-3 -18.5q-4 -2 -10 -1t-10 1q-8 0 -11 -4q4 -6 15.5 -5t17.5 1h6q-2 -8 -4 -15.5t-4 -15.5h-31q4 -6 15.5 -4t17.5 0h6v-2q0 -10 -4 -19.5t-8 -19.5h-66v80q0 4 -4 3t-6 1z M899 -365v-18l4 -2q8 0 8 10t-8 10h-4zM952 -160q0 10 4.5 17.5t8.5 17.5h16q29 2 50.5 -5t21.5 -42q0 -10 -3 -20.5t-14 -16.5q0 -10 8.5 -16t8.5 -19v-2q-6 -2 -17 -2q-12 0 -23.5 4t-11.5 21q-4 -2 -4 -6v-9q0 -8 -2 -8h-34v78q0 4 -4.5 4t-4.5 4zM952 -360q0 4 5.5 17 t7.5 17l12 -2q14 0 27.5 3t27.5 3l8 -2l-4 -20t-6 -21h-31q4 -6 15.5 -4t15.5 0h6q0 -2 1 -3t1 -3q0 -6 -3 -12t-3 -12q-4 -2 -10 -1t-12 1q-8 0 -11 -4q4 -4 16.5 -3.5t18.5 0.5l6 -2q-4 -10 -5 -18t-5 -18h-69v73q0 4 -4.5 5t-4.5 6zM999 -162v-20h5q12 0 10 12v4 q-4 0 -6 2t-7 2h-2zM1044 -356q6 4 6.5 13t6.5 17l12 -2q14 0 26.5 3t26.5 3l11 -2q-4 -23 -13 -41h-30q0 -10 13 -8t19 2q2 0 3 -1t3 -1q-2 -16 -12 -35h-26v-36h-37q-4 14 -2 27.5t2 29.5q0 10 -4.5 18.5t-4.5 12.5zM1063 -160q0 20 20.5 28.5t36.5 8.5q15 0 31 -6 q-4 -8 -5 -16.5t-7 -16.5q-6 0 -12.5 2t-14.5 2q-4 0 -6 -2q6 -10 18.5 -12t22.5 -10q6 -10 6 -23q0 -14 -6 -26q-16 -14 -43 -15q-18 0 -37 6v4q0 10 3 17.5t5 17.5q8 -2 15.5 -5t15.5 -3h6q0 10 -10 12t-19 4q-6 10 -13 15.5t-7 17.5zM1112 1085q12 -2 24.5 -1t24.5 1 q18 0 29 -4v-663h297v325h225q16 68 38 134.5t38 136.5h-301q2 10 1 21.5t-1 21.5v13t4 11h252q18 82 43.5 162t46.5 162h-283q-10 -5 -6 -19q-72 -6 -144.5 -5t-144.5 1h-55q-25 -74 -44 -148.5t-44 -148.5zM1139 -379q0 23 19.5 37t41.5 14q27 0 44.5 -16t17.5 -43 q0 -23 -21.5 -44.5t-44.5 -17.5v5q-29 0 -43 18t-14 47zM1155 -162q4 10 6 18.5t4 18.5h35v-121h-35l2 78q0 4 -4 5t-8 1zM1178 -387q0 -8 8 -21q4 0 6 -1t6 -1q20 0 25 27q-2 4 -5.5 9t-5.5 9q-4 0 -5 1.5t-5 1.5q-25 0 -24 -25zM1212 -178q0 18 14.5 32.5t30.5 16.5 q4 4 17 4q10 0 20.5 -5t20.5 -9q10 -16 18 -43q-4 -23 -17 -43.5t-40 -20.5q-29 0 -46.5 19.5t-17.5 48.5zM1249 -182q0 -27 29 -27h2q14 10 14 25q0 8 -6 18q-8 4 -16 4t-15.5 -5t-7.5 -15zM1262 -365q4 10 6 19.5t6 19.5h37q2 -12 9 -20t11 -19q4 4 3 15.5t-1 17.5v6h39 v-118h-35l-12 24t-18 21v-45h-33v75q0 4 -4 4h-8zM1333 -162q4 10 6 18.5t7 18.5h34q6 -10 12.5 -18.5t10.5 -18.5q4 2 4 11.5v15.5q0 8 4 10h33v-121h-31q-8 10 -15 23.5t-14 25.5q-6 -6 -5 -19t1 -24v-6h-34v78q0 4 -4.5 4t-8.5 2zM1380 -365q0 10 3 19.5t3 19.5l13 -2 q14 0 27.5 3t27.5 3l10 -2q-4 -10 -6 -26.5t-20 -14.5v-79h-39v75q0 6 -6.5 5t-10.5 -1h-2zM1464 -360q0 20 18.5 28t35.5 8q14 0 30 -6v-6q0 -8 -3 -11t-1 -13q-4 -4 -6 -5q-6 0 -11 2.5t-11 2.5q-8 0 -11 -5q16 -4 32.5 -13t16.5 -30q0 -14 -15.5 -27.5t-29.5 -13.5h-12v5 q-8 0 -18.5 2t-10.5 12q6 10 2 22q8 4 9 5q8 0 15 -4.5t15 -4.5l4 2q0 6 -8 9.5t-17 7.5t-16.5 10t-7.5 23zM1495 -182q0 18 14.5 34.5t30.5 18.5q6 6 16 6t20.5 -6t20.5 -10q6 -10 12.5 -22.5t6.5 -24.5q0 -27 -17.5 -42.5t-42.5 -15.5q-29 0 -45 16.5t-16 45.5zM1532 -186 q-1 -23 24 -23q23 0 23 25q0 10 -8 16t-17 6q-8 0 -6 -4q-16 -2 -16 -20zM1559 -426q0 20 20 20q8 0 11 -6t7 -10v-6q0 -10 -7 -13.5t-11 -7.5h-4q-8 0 -12 9.5t-4 13.5zM1599 -383q0 27 19.5 42t44.5 15q20 0 37 -12q-4 -10 -8 -17t-6 -18q-8 8 -25 8q-6 0 -12.5 -2 t-10.5 -10v-18q0 -6 7.5 -8.5t11.5 -2.5q8 0 14 2.5t15 2.5q2 0 2 -2q2 -8 5 -13.5t7 -13.5q-4 -10 -15.5 -11.5t-19.5 -7.5h-10v5q-27 2 -41.5 19t-14.5 42zM1620 -158q0 10 4 16.5t4 16.5h33q8 -10 14 -18.5t11 -18.5q4 2 3 11.5t-1 15.5t4 10h34v-121h-30 q-4 12 -13.5 22.5t-13.5 22.5q-6 -4 -4 -16t2 -19l-2 -6q-4 -4 -16 -4h-21v78q0 4 -4 4t-4 6zM1706 -387q0 27 15.5 43t43.5 16q23 0 42.5 -15t19.5 -40q0 -27 -19.5 -47.5t-46.5 -18.5v5q-23 0 -39 17t-16 40zM1745 -385q0 -19 16 -25q18 0 27 15v6q2 14 -6 20.5t-21 3.5 h-8q-8 -8 -8 -20zM1829 -360q0 8 4 16t4 18h39q4 -6 7 -13t11 -11q6 4 10.5 11t8.5 13h39v-118h-39v53q0 2 -2 2q-4 0 -7 -7t-6 -12h-2q-10 0 -11 9.5t-9 11.5v-57h-39v73q0 4 -4 5t-4 6z" />
<glyph unicode="9" d="M0 971q4 2 4 8q4 129 39 245.5t102 227.5q23 39 58 86t77 92t86 83t85 59l2 8h8l4 6q6 4 13 6t14 6q12 8 23 15.5t22 15.5q29 16 60.5 28.5t61.5 24.5q84 33 171.5 48.5t177.5 15.5q197 0 382 -73t326 -212q47 -47 90 -99.5t78 -111.5q10 -18 18.5 -38.5t18.5 -39.5 q6 -12 13.5 -22.5t11.5 -22.5q16 -33 25 -66.5t20 -68.5q20 -80 26 -148.5t6 -152.5q0 -6 -1 -22.5t-3 -34t-4 -34t-2 -24.5q-4 -25 -10 -49.5t-12 -48.5q-45 -168 -139.5 -306.5t-223.5 -237.5t-286.5 -154.5t-331.5 -55.5q-217 0 -404.5 83t-324 225.5t-212 333 t-69.5 405.5zM164 -326h39q2 -10 4 -21t2 -22q4 10 8 20.5t4 22.5h31q4 -10 5 -21t5 -22q8 8 7 20.5t5 22.5h76v-6q0 -10 3 -16t1 -17q10 4 11.5 16.5t5.5 22.5h28q0 -12 5.5 -22t3.5 -21q8 8 8 20.5t4 22.5h76q4 -10 4 -21t4 -22q4 10 7 20.5t3 22.5h31q4 -10 6 -21t6 -22 q6 8 6 20.5t4 22.5h35q-2 -31 -10 -60.5t-12 -57.5h-39v4q2 10 -3.5 18t-2.5 19q-8 -8 -10.5 -19.5t-2.5 -21.5h-39q-6 27 -11 52t-15 50q-16 -53 -23 -102h-37q-4 10 -6 19t-6 17q-8 -6 -7 -17t-5 -19h-37q-4 29 -11.5 53t-11.5 53q-12 -25 -15 -52.5t-11 -53.5h-39v4 q2 10 -4 18t-4 19q-6 -8 -8.5 -19.5t-2.5 -21.5h-39q-4 29 -13 58t-13 60zM195 1085q12 -2 24 -1t25 1h13t13 -4v-663h297v256v44t4 44q29 -2 57.5 -1t57.5 1h33.5t36.5 -4v-336q29 -4 57.5 -4h56.5q45 0 90.5 1t92.5 -1v964q-47 -2 -92.5 0t-90.5 2q-59 0 -114 -6v-311 h-189q0 47 1 96t1 97q0 61 -6 122h-280q-4 0 -5.5 -4t-3.5 -6q-18 -72 -40.5 -143.5t-38.5 -143.5zM367 -162q4 10 5 18.5t5 18.5h76v-2q2 -10 -3.5 -17.5t-3.5 -17.5q-6 -2 -12 -1t-12 1q-8 0 -10 -4q4 -6 15 -5t17 1h7q-2 -10 -6.5 -16.5t-2.5 -18.5h-30v-41h-21 q-14 0 -18 4l2 74q0 2 -8 6zM457 -162q4 10 6 18.5t6 18.5h35q0 -12 -1 -24.5t-1 -24.5q0 -20 8 -35h6q10 0 10 12.5v20.5v51h21q12 0 16 -4l2 -37q0 -27 -7 -53.5t-42 -26.5q-23 0 -43 19q-4 16 -4 29.5v29.5q0 4 -4 5t-8 1zM567 -162q4 8 6 17.5t7 19.5h20q12 0 16 -4 q0 -18 -1 -37.5t1 -38.5q2 -4 9.5 -4h11.5h4q-4 -10 -6 -18.5t-6 -18.5h-49v78q0 4 -4.5 4t-8.5 2zM604 -426q0 18 21 18q18 0 18 -18q1 -23 -22 -23q-16 8 -17 23zM641 -162q4 10 5 18.5t5 18.5h35q0 -20 -1 -39.5t1 -40.5q0 -4 7 -4h12h4v-4q2 -10 -3.5 -16.5t-5.5 -16.5 q-8 0 -15 -1t-15 -1q-14 0 -23 6l2 72q0 8 -8 8zM645 -360q0 10 3 17t3 17h39v-39h19q6 4 4 15.5t0 17.5v6q6 -2 11 -1t11 1h8.5t8.5 -4v-114h-39v41h-19q-6 -4 -5 -16.5t1 -18.5v-6h-39v67q2 2 2 6t-4 5t-4 6zM752 -125h36q4 -12 9.5 -23.5t7.5 -25.5q10 8 12 23.5t6 25.5 h39q-6 -31 -17 -61.5t-22 -59.5h-30q-10 29 -21.5 59.5t-19.5 61.5zM756 -326h37l12 -24q4 4 5 11t5 13h39q-4 -18 -10 -30.5t-12.5 -24.5t-9.5 -26.5t1 -36.5h-39q0 37 -2 51t-6 21t-9 14t-11 32zM850 -365q4 10 6 19.5t6 19.5h19q23 0 45 -9t22 -38q0 -23 -22 -45h-2 q-8 0 -11.5 -3t-13.5 -1v-22h-37v75q0 4 -5 4h-7zM858 -162q4 8 6 17.5t4 19.5h80q-4 -10 -7 -18.5t-3 -18.5q-4 -2 -10 -1t-10 1q-8 0 -11 -4q4 -6 15.5 -5t17.5 1h6q-2 -8 -4 -15.5t-4 -15.5h-31q4 -6 15.5 -4t17.5 0h6v-2q0 -10 -4 -19.5t-8 -19.5h-66v80q0 4 -4 3t-6 1z M899 -365v-18l4 -2q8 0 8 10t-8 10h-4zM952 -160q0 10 4.5 17.5t8.5 17.5h16q29 2 50.5 -5t21.5 -42q0 -10 -3 -20.5t-14 -16.5q0 -10 8.5 -16t8.5 -19v-2q-6 -2 -17 -2q-12 0 -23.5 4t-11.5 21q-4 -2 -4 -6v-9q0 -8 -2 -8h-34v78q0 4 -4.5 4t-4.5 4zM952 -360q0 4 5.5 17 t7.5 17l12 -2q14 0 27.5 3t27.5 3l8 -2l-4 -20t-6 -21h-31q4 -6 15.5 -4t15.5 0h6q0 -2 1 -3t1 -3q0 -6 -3 -12t-3 -12q-4 -2 -10 -1t-12 1q-8 0 -11 -4q4 -4 16.5 -3.5t18.5 0.5l6 -2q-4 -10 -5 -18t-5 -18h-69v73q0 4 -4.5 5t-4.5 6zM999 -162v-20h5q12 0 10 12v4 q-4 0 -6 2t-7 2h-2zM1044 -356q6 4 6.5 13t6.5 17l12 -2q14 0 26.5 3t26.5 3l11 -2q-4 -23 -13 -41h-30q0 -10 13 -8t19 2q2 0 3 -1t3 -1q-2 -16 -12 -35h-26v-36h-37q-4 14 -2 27.5t2 29.5q0 10 -4.5 18.5t-4.5 12.5zM1063 -160q0 20 20.5 28.5t36.5 8.5q15 0 31 -6 q-4 -8 -5 -16.5t-7 -16.5q-6 0 -12.5 2t-14.5 2q-4 0 -6 -2q6 -10 18.5 -12t22.5 -10q6 -10 6 -23q0 -14 -6 -26q-16 -14 -43 -15q-18 0 -37 6v4q0 10 3 17.5t5 17.5q8 -2 15.5 -5t15.5 -3h6q0 10 -10 12t-19 4q-6 10 -13 15.5t-7 17.5zM1112 1085q12 -2 24.5 -1t24.5 1 q18 0 29 -4v-663h297v325h225q16 68 38 134.5t38 136.5h-301q2 10 1 21.5t-1 21.5v13t4 11h252q18 82 43.5 162t46.5 162h-283q-10 -5 -6 -19q-72 -6 -144.5 -5t-144.5 1h-55q-25 -74 -44 -148.5t-44 -148.5zM1139 -379q0 23 19.5 37t41.5 14q27 0 44.5 -16t17.5 -43 q0 -23 -21.5 -44.5t-44.5 -17.5v5q-29 0 -43 18t-14 47zM1155 -162q4 10 6 18.5t4 18.5h35v-121h-35l2 78q0 4 -4 5t-8 1zM1178 -387q0 -8 8 -21q4 0 6 -1t6 -1q20 0 25 27q-2 4 -5.5 9t-5.5 9q-4 0 -5 1.5t-5 1.5q-25 0 -24 -25zM1212 -178q0 18 14.5 32.5t30.5 16.5 q4 4 17 4q10 0 20.5 -5t20.5 -9q10 -16 18 -43q-4 -23 -17 -43.5t-40 -20.5q-29 0 -46.5 19.5t-17.5 48.5zM1249 -182q0 -27 29 -27h2q14 10 14 25q0 8 -6 18q-8 4 -16 4t-15.5 -5t-7.5 -15zM1262 -365q4 10 6 19.5t6 19.5h37q2 -12 9 -20t11 -19q4 4 3 15.5t-1 17.5v6h39 v-118h-35l-12 24t-18 21v-45h-33v75q0 4 -4 4h-8zM1333 -162q4 10 6 18.5t7 18.5h34q6 -10 12.5 -18.5t10.5 -18.5q4 2 4 11.5v15.5q0 8 4 10h33v-121h-31q-8 10 -15 23.5t-14 25.5q-6 -6 -5 -19t1 -24v-6h-34v78q0 4 -4.5 4t-8.5 2zM1380 -365q0 10 3 19.5t3 19.5l13 -2 q14 0 27.5 3t27.5 3l10 -2q-4 -10 -6 -26.5t-20 -14.5v-79h-39v75q0 6 -6.5 5t-10.5 -1h-2zM1464 -360q0 20 18.5 28t35.5 8q14 0 30 -6v-6q0 -8 -3 -11t-1 -13q-4 -4 -6 -5q-6 0 -11 2.5t-11 2.5q-8 0 -11 -5q16 -4 32.5 -13t16.5 -30q0 -14 -15.5 -27.5t-29.5 -13.5h-12v5 q-8 0 -18.5 2t-10.5 12q6 10 2 22q8 4 9 5q8 0 15 -4.5t15 -4.5l4 2q0 6 -8 9.5t-17 7.5t-16.5 10t-7.5 23zM1495 -182q0 18 14.5 34.5t30.5 18.5q6 6 16 6t20.5 -6t20.5 -10q6 -10 12.5 -22.5t6.5 -24.5q0 -27 -17.5 -42.5t-42.5 -15.5q-29 0 -45 16.5t-16 45.5zM1532 -186 q-1 -23 24 -23q23 0 23 25q0 10 -8 16t-17 6q-8 0 -6 -4q-16 -2 -16 -20zM1559 -426q0 20 20 20q8 0 11 -6t7 -10v-6q0 -10 -7 -13.5t-11 -7.5h-4q-8 0 -12 9.5t-4 13.5zM1599 -383q0 27 19.5 42t44.5 15q20 0 37 -12q-4 -10 -8 -17t-6 -18q-8 8 -25 8q-6 0 -12.5 -2 t-10.5 -10v-18q0 -6 7.5 -8.5t11.5 -2.5q8 0 14 2.5t15 2.5q2 0 2 -2q2 -8 5 -13.5t7 -13.5q-4 -10 -15.5 -11.5t-19.5 -7.5h-10v5q-27 2 -41.5 19t-14.5 42zM1620 -158q0 10 4 16.5t4 16.5h33q8 -10 14 -18.5t11 -18.5q4 2 3 11.5t-1 15.5t4 10h34v-121h-30 q-4 12 -13.5 22.5t-13.5 22.5q-6 -4 -4 -16t2 -19l-2 -6q-4 -4 -16 -4h-21v78q0 4 -4 4t-4 6zM1706 -387q0 27 15.5 43t43.5 16q23 0 42.5 -15t19.5 -40q0 -27 -19.5 -47.5t-46.5 -18.5v5q-23 0 -39 17t-16 40zM1745 -385q0 -19 16 -25q18 0 27 15v6q2 14 -6 20.5t-21 3.5 h-8q-8 -8 -8 -20zM1829 -360q0 8 4 16t4 18h39q4 -6 7 -13t11 -11q6 4 10.5 11t8.5 13h39v-118h-39v53q0 2 -2 2q-4 0 -7 -7t-6 -12h-2q-10 0 -11 9.5t-9 11.5v-57h-39v73q0 4 -4 5t-4 6z" />
<glyph unicode=":" horiz-adv-x="571" d="M203 72q0 29 20 50t51 21q33 0 53.5 -21.5t20.5 -49.5q0 -33 -20.5 -52.5t-53.5 -19.5q-31 0 -51 19.5t-20 52.5zM203 614q0 31 20 52.5t51 21.5q33 0 53.5 -21.5t20.5 -52.5t-20.5 -50t-53.5 -19q-31 0 -51 19.5t-20 49.5z" />
<glyph unicode=";" horiz-adv-x="385" d="M129 -125l45 199l145 80l-73 -301zM164 614q0 31 19.5 52.5t52.5 21.5t52 -21.5t19 -52.5t-19.5 -50t-51.5 -19q-33 0 -52.5 19.5t-19.5 49.5z" />
<glyph unicode="&#x3c;" horiz-adv-x="1132" d="M-76 616l1055 490l47 -107l-825 -383q98 -43 194.5 -88t194.5 -92q106 -49 220 -102t216 -101l-47 -104z" />
<glyph unicode="=" horiz-adv-x="690" d="M20 432v119h625v-119h-625zM20 715v119h625v-119h-625z" />
<glyph unicode="&#x3e;" horiz-adv-x="1132" d="M70 233l825 383q-98 43 -194.5 88.5t-194.5 92.5q-106 49 -220 102t-216 100l47 107l1054 -490l-1054 -487z" />
<glyph unicode="?" horiz-adv-x="1359" d="M176 866q10 109 60.5 202t124 160.5t165.5 105.5t189 38q96 0 189 -39t169 -125q57 -66 84 -141.5t27 -153.5q0 -86 -32 -168.5t-89 -150.5t-138 -116t-180 -62v-262h-120v374h57l-2 -2q82 6 152.5 42t122 89.5t80 120t28.5 135.5q0 59 -21.5 119t-66.5 107 q-57 61 -124 87.5t-138 26.5q-74 0 -145.5 -29.5t-129 -81.5t-95.5 -124t-44 -156zM614 53q0 35 21.5 54.5t48.5 19.5t48.5 -19.5t21.5 -54.5t-21.5 -52t-48.5 -17t-48.5 17t-21.5 52z" />
<glyph unicode="@" d="M0 971q4 2 4 8q4 129 39 245.5t102 227.5q23 39 58 86t77 92t86 83t85 59l2 8h8l4 6q6 4 13 6t14 6q12 8 23 15.5t22 15.5q29 16 60.5 28.5t61.5 24.5q84 33 171.5 48.5t177.5 15.5q197 0 382 -73t326 -212q47 -47 90 -99.5t78 -111.5q10 -18 18.5 -38.5t18.5 -39.5 q6 -12 13.5 -22.5t11.5 -22.5q16 -33 25 -66.5t20 -68.5q20 -80 26 -148.5t6 -152.5q0 -6 -1 -22.5t-3 -34t-4 -34t-2 -24.5q-4 -25 -10 -49.5t-12 -48.5q-45 -168 -139.5 -306.5t-223.5 -237.5t-286.5 -154.5t-331.5 -55.5q-217 0 -404.5 83t-324 225.5t-212 333 t-69.5 405.5zM164 -326h39q2 -10 4 -21t2 -22q4 10 8 20.5t4 22.5h31q4 -10 5 -21t5 -22q8 8 7 20.5t5 22.5h76v-6q0 -10 3 -16t1 -17q10 4 11.5 16.5t5.5 22.5h28q0 -12 5.5 -22t3.5 -21q8 8 8 20.5t4 22.5h76q4 -10 4 -21t4 -22q4 10 7 20.5t3 22.5h31q4 -10 6 -21t6 -22 q6 8 6 20.5t4 22.5h35q-2 -31 -10 -60.5t-12 -57.5h-39v4q2 10 -3.5 18t-2.5 19q-8 -8 -10.5 -19.5t-2.5 -21.5h-39q-6 27 -11 52t-15 50q-16 -53 -23 -102h-37q-4 10 -6 19t-6 17q-8 -6 -7 -17t-5 -19h-37q-4 29 -11.5 53t-11.5 53q-12 -25 -15 -52.5t-11 -53.5h-39v4 q2 10 -4 18t-4 19q-6 -8 -8.5 -19.5t-2.5 -21.5h-39q-4 29 -13 58t-13 60zM195 1085q12 -2 24 -1t25 1h13t13 -4v-663h297v256v44t4 44q29 -2 57.5 -1t57.5 1h33.5t36.5 -4v-336q29 -4 57.5 -4h56.5q45 0 90.5 1t92.5 -1v964q-47 -2 -92.5 0t-90.5 2q-59 0 -114 -6v-311 h-189q0 47 1 96t1 97q0 61 -6 122h-280q-4 0 -5.5 -4t-3.5 -6q-18 -72 -40.5 -143.5t-38.5 -143.5zM367 -162q4 10 5 18.5t5 18.5h76v-2q2 -10 -3.5 -17.5t-3.5 -17.5q-6 -2 -12 -1t-12 1q-8 0 -10 -4q4 -6 15 -5t17 1h7q-2 -10 -6.5 -16.5t-2.5 -18.5h-30v-41h-21 q-14 0 -18 4l2 74q0 2 -8 6zM457 -162q4 10 6 18.5t6 18.5h35q0 -12 -1 -24.5t-1 -24.5q0 -20 8 -35h6q10 0 10 12.5v20.5v51h21q12 0 16 -4l2 -37q0 -27 -7 -53.5t-42 -26.5q-23 0 -43 19q-4 16 -4 29.5v29.5q0 4 -4 5t-8 1zM567 -162q4 8 6 17.5t7 19.5h20q12 0 16 -4 q0 -18 -1 -37.5t1 -38.5q2 -4 9.5 -4h11.5h4q-4 -10 -6 -18.5t-6 -18.5h-49v78q0 4 -4.5 4t-8.5 2zM604 -426q0 18 21 18q18 0 18 -18q1 -23 -22 -23q-16 8 -17 23zM641 -162q4 10 5 18.5t5 18.5h35q0 -20 -1 -39.5t1 -40.5q0 -4 7 -4h12h4v-4q2 -10 -3.5 -16.5t-5.5 -16.5 q-8 0 -15 -1t-15 -1q-14 0 -23 6l2 72q0 8 -8 8zM645 -360q0 10 3 17t3 17h39v-39h19q6 4 4 15.5t0 17.5v6q6 -2 11 -1t11 1h8.5t8.5 -4v-114h-39v41h-19q-6 -4 -5 -16.5t1 -18.5v-6h-39v67q2 2 2 6t-4 5t-4 6zM752 -125h36q4 -12 9.5 -23.5t7.5 -25.5q10 8 12 23.5t6 25.5 h39q-6 -31 -17 -61.5t-22 -59.5h-30q-10 29 -21.5 59.5t-19.5 61.5zM756 -326h37l12 -24q4 4 5 11t5 13h39q-4 -18 -10 -30.5t-12.5 -24.5t-9.5 -26.5t1 -36.5h-39q0 37 -2 51t-6 21t-9 14t-11 32zM850 -365q4 10 6 19.5t6 19.5h19q23 0 45 -9t22 -38q0 -23 -22 -45h-2 q-8 0 -11.5 -3t-13.5 -1v-22h-37v75q0 4 -5 4h-7zM858 -162q4 8 6 17.5t4 19.5h80q-4 -10 -7 -18.5t-3 -18.5q-4 -2 -10 -1t-10 1q-8 0 -11 -4q4 -6 15.5 -5t17.5 1h6q-2 -8 -4 -15.5t-4 -15.5h-31q4 -6 15.5 -4t17.5 0h6v-2q0 -10 -4 -19.5t-8 -19.5h-66v80q0 4 -4 3t-6 1z M899 -365v-18l4 -2q8 0 8 10t-8 10h-4zM952 -160q0 10 4.5 17.5t8.5 17.5h16q29 2 50.5 -5t21.5 -42q0 -10 -3 -20.5t-14 -16.5q0 -10 8.5 -16t8.5 -19v-2q-6 -2 -17 -2q-12 0 -23.5 4t-11.5 21q-4 -2 -4 -6v-9q0 -8 -2 -8h-34v78q0 4 -4.5 4t-4.5 4zM952 -360q0 4 5.5 17 t7.5 17l12 -2q14 0 27.5 3t27.5 3l8 -2l-4 -20t-6 -21h-31q4 -6 15.5 -4t15.5 0h6q0 -2 1 -3t1 -3q0 -6 -3 -12t-3 -12q-4 -2 -10 -1t-12 1q-8 0 -11 -4q4 -4 16.5 -3.5t18.5 0.5l6 -2q-4 -10 -5 -18t-5 -18h-69v73q0 4 -4.5 5t-4.5 6zM999 -162v-20h5q12 0 10 12v4 q-4 0 -6 2t-7 2h-2zM1044 -356q6 4 6.5 13t6.5 17l12 -2q14 0 26.5 3t26.5 3l11 -2q-4 -23 -13 -41h-30q0 -10 13 -8t19 2q2 0 3 -1t3 -1q-2 -16 -12 -35h-26v-36h-37q-4 14 -2 27.5t2 29.5q0 10 -4.5 18.5t-4.5 12.5zM1063 -160q0 20 20.5 28.5t36.5 8.5q15 0 31 -6 q-4 -8 -5 -16.5t-7 -16.5q-6 0 -12.5 2t-14.5 2q-4 0 -6 -2q6 -10 18.5 -12t22.5 -10q6 -10 6 -23q0 -14 -6 -26q-16 -14 -43 -15q-18 0 -37 6v4q0 10 3 17.5t5 17.5q8 -2 15.5 -5t15.5 -3h6q0 10 -10 12t-19 4q-6 10 -13 15.5t-7 17.5zM1112 1085q12 -2 24.5 -1t24.5 1 q18 0 29 -4v-663h297v325h225q16 68 38 134.5t38 136.5h-301q2 10 1 21.5t-1 21.5v13t4 11h252q18 82 43.5 162t46.5 162h-283q-10 -5 -6 -19q-72 -6 -144.5 -5t-144.5 1h-55q-25 -74 -44 -148.5t-44 -148.5zM1139 -379q0 23 19.5 37t41.5 14q27 0 44.5 -16t17.5 -43 q0 -23 -21.5 -44.5t-44.5 -17.5v5q-29 0 -43 18t-14 47zM1155 -162q4 10 6 18.5t4 18.5h35v-121h-35l2 78q0 4 -4 5t-8 1zM1178 -387q0 -8 8 -21q4 0 6 -1t6 -1q20 0 25 27q-2 4 -5.5 9t-5.5 9q-4 0 -5 1.5t-5 1.5q-25 0 -24 -25zM1212 -178q0 18 14.5 32.5t30.5 16.5 q4 4 17 4q10 0 20.5 -5t20.5 -9q10 -16 18 -43q-4 -23 -17 -43.5t-40 -20.5q-29 0 -46.5 19.5t-17.5 48.5zM1249 -182q0 -27 29 -27h2q14 10 14 25q0 8 -6 18q-8 4 -16 4t-15.5 -5t-7.5 -15zM1262 -365q4 10 6 19.5t6 19.5h37q2 -12 9 -20t11 -19q4 4 3 15.5t-1 17.5v6h39 v-118h-35l-12 24t-18 21v-45h-33v75q0 4 -4 4h-8zM1333 -162q4 10 6 18.5t7 18.5h34q6 -10 12.5 -18.5t10.5 -18.5q4 2 4 11.5v15.5q0 8 4 10h33v-121h-31q-8 10 -15 23.5t-14 25.5q-6 -6 -5 -19t1 -24v-6h-34v78q0 4 -4.5 4t-8.5 2zM1380 -365q0 10 3 19.5t3 19.5l13 -2 q14 0 27.5 3t27.5 3l10 -2q-4 -10 -6 -26.5t-20 -14.5v-79h-39v75q0 6 -6.5 5t-10.5 -1h-2zM1464 -360q0 20 18.5 28t35.5 8q14 0 30 -6v-6q0 -8 -3 -11t-1 -13q-4 -4 -6 -5q-6 0 -11 2.5t-11 2.5q-8 0 -11 -5q16 -4 32.5 -13t16.5 -30q0 -14 -15.5 -27.5t-29.5 -13.5h-12v5 q-8 0 -18.5 2t-10.5 12q6 10 2 22q8 4 9 5q8 0 15 -4.5t15 -4.5l4 2q0 6 -8 9.5t-17 7.5t-16.5 10t-7.5 23zM1495 -182q0 18 14.5 34.5t30.5 18.5q6 6 16 6t20.5 -6t20.5 -10q6 -10 12.5 -22.5t6.5 -24.5q0 -27 -17.5 -42.5t-42.5 -15.5q-29 0 -45 16.5t-16 45.5zM1532 -186 q-1 -23 24 -23q23 0 23 25q0 10 -8 16t-17 6q-8 0 -6 -4q-16 -2 -16 -20zM1559 -426q0 20 20 20q8 0 11 -6t7 -10v-6q0 -10 -7 -13.5t-11 -7.5h-4q-8 0 -12 9.5t-4 13.5zM1599 -383q0 27 19.5 42t44.5 15q20 0 37 -12q-4 -10 -8 -17t-6 -18q-8 8 -25 8q-6 0 -12.5 -2 t-10.5 -10v-18q0 -6 7.5 -8.5t11.5 -2.5q8 0 14 2.5t15 2.5q2 0 2 -2q2 -8 5 -13.5t7 -13.5q-4 -10 -15.5 -11.5t-19.5 -7.5h-10v5q-27 2 -41.5 19t-14.5 42zM1620 -158q0 10 4 16.5t4 16.5h33q8 -10 14 -18.5t11 -18.5q4 2 3 11.5t-1 15.5t4 10h34v-121h-30 q-4 12 -13.5 22.5t-13.5 22.5q-6 -4 -4 -16t2 -19l-2 -6q-4 -4 -16 -4h-21v78q0 4 -4 4t-4 6zM1706 -387q0 27 15.5 43t43.5 16q23 0 42.5 -15t19.5 -40q0 -27 -19.5 -47.5t-46.5 -18.5v5q-23 0 -39 17t-16 40zM1745 -385q0 -19 16 -25q18 0 27 15v6q2 14 -6 20.5t-21 3.5 h-8q-8 -8 -8 -20zM1829 -360q0 8 4 16t4 18h39q4 -6 7 -13t11 -11q6 4 10.5 11t8.5 13h39v-118h-39v53q0 2 -2 2q-4 0 -7 -7t-6 -12h-2q-10 0 -11 9.5t-9 11.5v-57h-39v73q0 4 -4 5t-4 6z" />
<glyph unicode="A" horiz-adv-x="1187" d="M16 2l562 1395l563 -1389q-29 -8 -45.5 -12t-26.5 -7t-19.5 -5t-21.5 -4l-227 536h-451l-106 -260q-29 -68 -59.5 -141.5t-55.5 -139.5q-14 4 -35.5 9.5t-77.5 17.5zM393 625h361q-23 70 -70 190.5t-106 288.5z" />
<glyph unicode="B" horiz-adv-x="1157" d="M127 0v1350h516q76 0 139.5 -30t110.5 -79t73.5 -113.5t26.5 -132.5q0 -88 -39 -163.5t-106 -124.5q82 -51 133 -140.5t51 -187.5q0 -78 -29.5 -147.5t-80 -121t-119 -81t-144.5 -29.5h-532zM246 119h413q53 0 100.5 19.5t82.5 55t54 83t19 102.5q0 53 -19 100t-54 83 t-82 57.5t-101 21.5h-413v-522zM246 760h397q49 0 91 18.5t74 50t50.5 75.5t18.5 93t-18.5 91t-50.5 74t-74 50.5t-91 18.5h-397v-471z" />
<glyph unicode="C" horiz-adv-x="1232" d="M86 676q0 143 53.5 268t146.5 219t218 148.5t268 54.5q111 0 221.5 -41t218.5 -119l-92 -73q-163 116 -345 116h-3q-119 0 -222.5 -45t-180 -121.5t-121.5 -182t-45 -224.5q0 -117 45 -220.5t121.5 -181t180 -123t222.5 -45.5q104 0 205.5 42t193.5 120l76 -96 q-106 -88 -225 -136t-250 -48q-143 0 -268 55t-218 148.5t-146.5 218.5t-53.5 266z" />
<glyph unicode="D" horiz-adv-x="1335" d="M129 0v1350h418q139 0 261 -53.5t213 -145.5t144.5 -215t53.5 -262t-53.5 -262t-144.5 -214.5t-213 -144.5t-261 -53h-418zM248 119h299q115 0 216 43t177 118.5t120 176t44 217.5q0 115 -44 216t-120 177t-177 120t-216 44h-299v-1112z" />
<glyph unicode="E" horiz-adv-x="964" d="M125 0v1350h782v-119h-665v-379h448v-119h-448v-614h710v-119h-827z" />
<glyph unicode="F" horiz-adv-x="892" d="M123 0v1350h762v-119h-643v-385h506v-119h-506v-727h-119z" />
<glyph unicode="G" horiz-adv-x="1529" d="M86 676q0 141 55.5 267t149.5 220t218 148.5t259 54.5q72 0 147.5 -17.5t163.5 -56.5l-47 -114q-78 37 -143.5 53t-118.5 16q-119 0 -222.5 -47t-179 -127t-118.5 -183.5t-43 -213.5q0 -121 46 -224.5t124 -180t179 -121t212 -44.5q78 0 153.5 25t143.5 70t124 108.5 t93 141.5q18 53 33.5 124.5t15.5 133.5q0 2 -1 4t-1 6h-487v121h600q0 -4 1 -19.5t1 -23.5v-19q2 -12 2 -32.5v-36.5q0 -80 -13.5 -163t-37.5 -145q-43 -96 -110.5 -172.5t-150.5 -130t-176.5 -82t-189.5 -28.5q-139 0 -263 55t-217 150.5t-147.5 219.5t-54.5 263z" />
<glyph unicode="H" horiz-adv-x="1351" d="M127 0v1350h119v-516h811v516h119v-1350h-119v715h-811v-715h-119z" />
<glyph unicode="I" horiz-adv-x="434" d="M113 0v1350h116v-1350h-116z" />
<glyph unicode="J" horiz-adv-x="673" d="M-27 -12v116q51 0 106.5 8.5t107 24t96.5 40t75 56.5q41 55 58.5 128t17.5 141v848h117v-848q0 -90 -18.5 -181.5t-81.5 -162.5q-39 -49 -93.5 -81t-117 -52.5t-131 -28.5t-136.5 -8z" />
<glyph unicode="K" horiz-adv-x="1132" d="M127 0v1350h119v-570q164 145 328.5 293t328.5 293l82 -84l-635 -567l709 -652l-98 -75l-701 645l-14 -17v-616h-119z" />
<glyph unicode="L" horiz-adv-x="1021" d="M127 0v1350h117v-1231h764v-119h-881z" />
<glyph unicode="M" horiz-adv-x="1482" d="M131 0v1401l586 -723l583 721v-1399h-118v1063l-465 -576l-469 582v-1069h-117z" />
<glyph unicode="N" horiz-adv-x="1325" d="M127 0v1372l905 -1081v1063h119v-1374l-905 1079v-1059h-119z" />
<glyph unicode="O" horiz-adv-x="1601" d="M86 674q0 141 54.5 267t147.5 219t219 147.5t269 54.5q141 0 266 -54.5t218.5 -147.5t146.5 -219t53 -267t-53 -267t-146.5 -219.5t-218 -147.5t-266.5 -54q-143 0 -269 54t-219 147.5t-147.5 219t-54.5 267.5zM205 674q0 -119 45 -222.5t122 -180t181 -122t223 -45.5 q117 0 220.5 45.5t180 122t120.5 180t44 222.5t-44 222t-120.5 180t-180 122t-220.5 45q-119 0 -223 -45t-181 -122t-122 -180t-45 -222z" />
<glyph unicode="P" horiz-adv-x="921" d="M125 0v1350h369q84 0 157.5 -33t129 -90.5t88 -133t32.5 -161.5t-31.5 -162t-86 -132t-128 -89t-157.5 -33h-256v-516h-117zM242 635h256q59 0 111.5 23.5t90 63.5t60 94t22.5 116q0 61 -22.5 116.5t-61.5 95.5t-91 63.5t-111 23.5h-254v-596z" />
<glyph unicode="Q" horiz-adv-x="1574" d="M61 674q0 141 54.5 267t147.5 219t219 147.5t268 54.5q143 0 268 -54.5t218 -147.5t146.5 -219t53.5 -267q0 -186 -88 -340t-252 -254q94 -51 170.5 -81t117.5 -30q4 0 33 13l19 4l49 -107q-29 -10 -55.5 -17t-45.5 -7q-72 0 -182 43t-241 120q-95 -32 -204 -32h-7 q-141 0 -267.5 54t-219.5 147.5t-147.5 219t-54.5 267.5zM178 674q0 -59 11.5 -111.5t33.5 -107.5q18 4 24.5 3t16.5 -1q39 0 95.5 -8.5t126 -28t146.5 -55t154 -91.5q49 -37 92.5 -66.5t94.5 -60.5q2 0 3 2.5t3 2.5v-2l4 4q160 84 248 219t88 301q0 119 -45 222t-122 180 t-180.5 122t-221.5 45q-119 0 -222.5 -45t-181.5 -122t-123 -180t-45 -222zM287 338q80 -111 199 -172.5t264 -61.5h36.5t30.5 2q-27 18 -52.5 37t-51.5 39h2q-66 47 -126.5 78t-115.5 47.5t-102 23.5t-84 7z" />
<glyph unicode="R" horiz-adv-x="1144" d="M127 0v1350h387q88 0 163 -35t130 -93.5t87 -133t32 -154.5q0 -61 -16.5 -120.5t-49.5 -110t-79 -89.5t-103 -63q41 -53 83 -107.5t83 -107.5l258 -336h-150l-397 514h-309v-514h-119zM246 633h268q61 0 115.5 23.5t93.5 63.5t61.5 95t22.5 117q0 61 -22.5 115.5 t-61.5 95.5t-93.5 64.5t-115.5 23.5h-268v-598z" />
<glyph unicode="S" horiz-adv-x="1236" d="M178 70l49 98l66 -14q25 -6 57.5 -14.5t69.5 -14.5t73.5 -11t67.5 -5h84q68 0 129.5 18t108.5 54t74.5 88.5t27.5 119.5q0 29 -14.5 63.5t-30.5 57.5v-2q-29 39 -64.5 62.5t-73.5 35.5t-80 17.5t-83 9.5q-70 4 -141.5 13t-137.5 50v-2q-74 41 -122 119t-48 176 q0 135 100.5 231.5t266.5 131.5h-2q25 4 73 9t107 5q33 0 76 -7t89 -17.5t91 -24.5t82 -29l-47 -110q-53 18 -97 31.5t-84 20.5t-78 11t-79 4q-63 0 -129.5 -15.5t-122 -46t-91.5 -79.5t-36 -117q0 -23 8.5 -48.5t22.5 -50t32.5 -47t39.5 -36.5q53 -33 111.5 -42t117.5 -13 q70 -4 150.5 -20.5t150.5 -59.5q37 -25 66.5 -58.5t51 -72.5t34 -81t12.5 -83q0 -94 -40 -167t-108.5 -122t-159.5 -74.5t-194 -25.5q-43 0 -96 6t-109.5 17t-113 26.5t-107.5 34.5z" />
<glyph unicode="T" horiz-adv-x="1183" d="M-10 1231v119h1163v-119h-520v-1231h-119v1231h-524z" />
<glyph unicode="U" horiz-adv-x="1357" d="M111 508v842h118v-842q0 -84 34 -158t91.5 -128t135 -86t167.5 -32q88 0 166 32t135.5 86t90 128t32.5 158v842h117v-842q0 -106 -43 -201.5t-116.5 -166t-172 -112.5t-209.5 -42q-113 0 -212 42t-173.5 112.5t-117.5 165.5t-43 202z" />
<glyph unicode="V" horiz-adv-x="1275" d="M16 1315l111 47l491 -1083q25 57 60 135t74 165t79.5 179t81.5 178q92 203 195 426l106 -49l-596 -1333z" />
<glyph unicode="W" horiz-adv-x="2107" d="M68 1313l106 49l492 -1079l286 606q-41 98 -85 200.5t-85 200.5l109 45l125 -295q25 57 48 109.5t40 93.5q20 47 39 88l106 -47l-168 -395q35 -84 71 -157t73 -143.5t72.5 -144t72.5 -159.5q25 57 59.5 135t74.5 164t81 178t82 178q94 203 195 422l106 -49l-598 -1331 l-354 759l-350 -759z" />
<glyph unicode="X" horiz-adv-x="1404" d="M86 59l520 617l-520 612l82 82l512 -602q121 145 253 301t255 299l92 -74l-526 -618l266 -311q63 -78 132 -159t128 -153l-96 -69l-504 602l-510 -611z" />
<glyph unicode="Y" horiz-adv-x="1110" d="M-16 1325l108 53l443 -708q109 174 222 354t220 354l106 -53l-489 -784q0 -63 -1 -128t-1 -134v-279h-115l-4 543q-121 193 -246 391.5t-243 390.5z" />
<glyph unicode="Z" horiz-adv-x="1204" d="M-39 0l877 1231h-815v119h1044l-877 -1231h897v-119h-1126z" />
<glyph unicode="[" horiz-adv-x="530" d="M119 -197v1723h422v-119h-305v-1485h305v-119h-422z" />
<glyph unicode="\" horiz-adv-x="1083" d="M-51 1493h133l1016 -1493h-133z" />
<glyph unicode="]" horiz-adv-x="536" d="M-29 -78h305v1485h-305v119h424v-1723h-424v119z" />
<glyph unicode="_" horiz-adv-x="1331" d="M127 -49v117h1030v-117h-1030z" />
<glyph unicode="`" horiz-adv-x="337" d="M-96 1653h168l227 -172v2l43 -150q-109 80 -218.5 161t-219.5 159z" />
<glyph unicode="a" horiz-adv-x="978" d="M20 18l451 1094q111 -258 226.5 -538.5t226.5 -550.5l-105 -29l-172 397h-346q-41 -98 -85 -201.5t-85 -199.5zM346 494h256q-33 88 -64.5 165.5t-66.5 169.5q-12 -31 -24.5 -63.5t-26.5 -71.5t-32.5 -88t-41.5 -112z" />
<glyph unicode="b" horiz-adv-x="983" d="M125 0v1077h418q61 0 113.5 -24.5t89 -64.5t58 -92t21.5 -108q0 -63 -28.5 -122.5t-75.5 -100.5q63 -41 99 -110.5t36 -147.5q0 -63 -23.5 -119.5t-63.5 -97.5t-95.5 -65.5t-116.5 -24.5h-432zM240 117h317q39 0 73 14t58.5 41t38.5 60.5t14 74.5q0 39 -14 75t-38.5 62.5 t-58.5 42t-73 15.5h-317v-385zM240 616h303q72 0 120 50t48 122q0 74 -48.5 124.5t-119.5 50.5h-303v-347z" />
<glyph unicode="c" horiz-adv-x="1067" d="M61 539q0 113 43 214t118 176t175.5 119t214.5 44q82 0 174.5 -36t190.5 -102l-94 -71q-133 90 -271 90q-90 0 -168.5 -34t-138 -93.5t-94.5 -138t-35 -168.5t35 -168t94.5 -136.5t138 -92t168.5 -33.5q78 0 158 32.5t152 91.5l82 -83q-92 -76 -190.5 -118t-201.5 -42 q-115 0 -215 43t-175 117.5t-118 174t-43 214.5z" />
<glyph unicode="d" horiz-adv-x="1122" d="M127 0v1077h338q111 0 209 -43t171 -116.5t114.5 -172t41.5 -208.5q0 -111 -41.5 -209.5t-114.5 -171t-171.5 -114.5t-208.5 -42h-338zM242 117h223q88 0 165 32.5t134 89t91 133.5t34 165t-34 164.5t-91 135t-134 92.5t-165 34h-223v-846z" />
<glyph unicode="e" horiz-adv-x="806" d="M125 0v1077h635v-114h-518v-275h348v-115h-348v-456h553v-117h-670z" />
<glyph unicode="f" horiz-adv-x="749" d="M123 0v1077h618v-114h-503v-279h397v-115h-397v-569h-115z" />
<glyph unicode="g" horiz-adv-x="1259" d="M86 539q0 113 44 214t120 176t174 119t207 44q53 0 113.5 -15.5t134.5 -44.5l-27 -123q-70 37 -124 50.5t-95 13.5q-90 0 -168 -37t-136.5 -97.5t-91 -138t-32.5 -161.5q0 -92 34.5 -170t94 -136.5t136.5 -91t161 -32.5q121 0 227.5 70.5t163.5 187.5v-2q14 41 24.5 91 t10.5 105h-381v119h491q0 -10 1 -31.5t1 -38.5v-47q0 -63 -9 -128.5t-30 -112.5q-35 -74 -89 -134.5t-120.5 -104.5t-140 -68.5t-149.5 -24.5q-111 0 -210 44t-174 119.5t-118 175t-43 210.5z" />
<glyph unicode="h" horiz-adv-x="1146" d="M125 0v1077h117v-401h610v401h117v-1077h-117v557h-610v-557h-117z" />
<glyph unicode="i" horiz-adv-x="434" d="M113 0v1077h116v-1077h-116z" />
<glyph unicode="j" horiz-adv-x="573" d="M-25 -10v114q86 2 171 22.5t135 76.5q35 37 44 91t9 109v674h117v-674q0 -72 -16.5 -146.5t-65.5 -129.5q-66 -78 -171.5 -107.5t-222.5 -29.5z" />
<glyph unicode="k" horiz-adv-x="962" d="M127 0v1077h113v-430q125 111 253 223.5t250 223.5l84 -84l-495 -441l553 -508l-92 -75l-549 503l-4 -4v-485h-113z" />
<glyph unicode="l" horiz-adv-x="854" d="M125 0v1077h115v-960h600v-117h-715z" />
<glyph unicode="m" horiz-adv-x="1251" d="M129 0v1102l471 -584l467 578v-1096h-117v772q-29 -37 -58.5 -75t-57.5 -74l-234 -289l-356 444v-778h-115z" />
<glyph unicode="n" horiz-adv-x="1013" d="M98 0v1102l719 -858v831h103v-1118l-721 858v-815h-101z" />
<glyph unicode="o" horiz-adv-x="1388" d="M88 537q0 113 43 213t119 175.5t175 118.5t214 43q113 0 213 -43t174 -118.5t117 -176t43 -212.5q0 -115 -43 -214.5t-117 -174t-174 -117.5t-213 -43q-115 0 -214 43t-175 117.5t-119 174t-43 214.5zM205 537q0 -90 33.5 -168t92 -136.5t138.5 -92.5t170 -34 q88 0 167 34t138.5 92.5t93 136.5t33.5 168t-33.5 168.5t-93 137t-138.5 92.5t-167 34q-90 0 -170 -34t-138.5 -92.5t-92 -137t-33.5 -168.5z" />
<glyph unicode="p" horiz-adv-x="858" d="M125 0v1077h358q68 0 127.5 -26.5t104.5 -72.5t70.5 -108.5t25.5 -132.5t-25.5 -131t-69.5 -106t-103.5 -71t-127.5 -26h-245v-403h-115zM240 520h245q43 0 82 17.5t68 46t45 68.5t16 85q0 47 -16 88t-45 72t-68 48.5t-84 17.5h-243v-443z" />
<glyph unicode="q" horiz-adv-x="1259" d="M45 537q0 113 43 213t118 175.5t174 118.5t214 43t214 -43t173 -118.5t117 -175.5t43 -213q0 -141 -65.5 -262t-188.5 -199q66 -33 118 -54.5t85 -21.5q2 0 6 2l6 3t6 5l27 15l14 -105v-2q0 -2 -1 -2t-1 -2q-4 -6 -11.5 -13t-11.5 -10h4q-12 -6 -38 -6q-59 0 -142.5 33 t-187.5 94q-37 -12 -80 -18t-86 -6q-115 0 -214 43t-174 117.5t-118 174t-43 214.5zM160 537q0 -74 33 -156h22q31 0 77 -7t100 -23.5t113.5 -45.5t119.5 -72l92 -59q16 -10 26.5 -16t24.5 -17h4l4 2q117 59 182.5 164t65.5 230q0 90 -33 168.5t-91 137t-137 92.5t-169 34 t-169 -34t-138.5 -92.5t-93 -137t-33.5 -168.5zM262 260q57 -66 145.5 -110t186.5 -44h9h7l-45 33l4 -2l-4 4q-84 53 -166 82t-137 37zM770 141h2l4 2z" />
<glyph unicode="r" horiz-adv-x="970" d="M127 0v1077h313q72 0 133.5 -28.5t105.5 -75.5t69.5 -107.5t25.5 -126.5q0 -100 -46 -181t-138 -120l96 -123q25 -31 56.5 -72.5t65.5 -85.5t64.5 -85t53.5 -72h-148l-311 401h-227v-401h-113zM240 518h200q45 0 86 17.5t71 47t47.5 69.5t17.5 85q0 47 -17.5 88t-47.5 72 t-71 48.5t-86 17.5h-200v-445z" />
<glyph unicode="s" horiz-adv-x="851" d="M25 55l30 101q72 -16 149 -33t128 -17h65q51 0 97.5 13.5t82 39t56 64.5t20.5 90q0 25 -10 50.5t-22 42.5q-18 25 -45 40t-59 26t-64.5 16.5t-61.5 7.5q-57 2 -114.5 12t-110.5 39q-57 37 -98 100.5t-41 138.5q0 111 81.5 189t217.5 106q23 4 63.5 9.5t77.5 5.5 q25 0 58.5 -6.5t71.5 -15.5t75 -21.5t65 -22.5l-16 -53q-4 -8 -6 -17.5t-6 -31.5q-86 29 -149.5 41t-129.5 12q-49 0 -100 -11.5t-94 -36t-71 -61t-28 -88.5q0 -31 22.5 -70.5t57.5 -64.5q35 -23 72 -29t76 -10l-3 2h15q2 0 3 -1t3 -1h2h-2h2q59 -4 124.5 -19.5t125.5 -51.5 q57 -39 94 -104.5t37 -131.5q0 -76 -32 -134t-86 -98t-128 -60.5t-155 -20.5q-35 0 -77 6t-88 15t-91.5 20.5t-83.5 23.5z" />
<glyph unicode="t" horiz-adv-x="956" d="M-8 963v114h932v-114h-406v-963h-117v963h-409z" />
<glyph unicode="u" horiz-adv-x="1144" d="M111 408v669h114v-669q0 -63 25.5 -117.5t71 -95.5t103.5 -65t126 -24q66 0 124 24t101 65t67.5 95t24.5 118v669h117v-669q0 -86 -35 -163t-93 -133.5t-138 -90t-168 -33.5q-90 0 -170 33.5t-140.5 90t-95 133.5t-34.5 163z" />
<glyph unicode="v" horiz-adv-x="1044" d="M16 1049l111 32l375 -809q20 49 48 110.5t57.5 127t61 133.5t60.5 131q68 147 143 303l119 -24l-489 -1073z" />
<glyph unicode="w" horiz-adv-x="1720" d="M43 1051l115 28l374 -809q16 37 33 67t40.5 73t56 111.5t81.5 185.5l-6 14l-6 18v-2l-125 293l113 31l86 -209q18 45 34.5 83t28.5 66q14 33 25 60l115 -31l-136 -325q16 -41 34 -75t42.5 -79t57 -109.5t77.5 -165.5q20 51 48 114t59 129.5t62.5 134t60.5 128.5 q68 145 141 297l117 -28l-488 -1067l-276 573q-33 -78 -67.5 -147.5t-70.5 -139t-70 -140.5t-67 -148z" />
<glyph unicode="x" horiz-adv-x="1177" d="M86 57l403 484q-45 53 -92 107t-96 112l-215 256l82 82l395 -471l400 469l84 -78l-408 -477q53 -63 108.5 -129t112.5 -133q45 -53 94.5 -113t89.5 -109l-79 -82l-400 469q-43 -53 -89 -105t-93 -110q-53 -63 -109.5 -130.5t-103.5 -125.5z" />
<glyph unicode="y" horiz-adv-x="833" d="M-10 1049l104 51l305 -539q76 135 154 270.5t154 268.5l104 -51l-356 -619v-430h-115v434z" />
<glyph unicode="z" horiz-adv-x="909" d="M-37 0l688 965h-631v112h854l-692 -962h695v-115h-914z" />
<glyph unicode="{" horiz-adv-x="407" d="M-14 612q57 92 73.5 187.5t26.5 189.5v2q6 76 17.5 156t38 155.5t74.5 145.5t128 125l49 -86l-6 -41q-61 -37 -97 -89t-54.5 -111.5t-25.5 -126t-11 -134.5q0 -6 -1 -13t-1 -14q-8 -88 -20.5 -178t-47.5 -168q37 -80 50.5 -178t21.5 -194q4 -68 11 -135.5t28.5 -129 t61.5 -116t110 -97.5l-70 -104q-82 55 -130 123.5t-73.5 143.5t-36 154t-16.5 154q0 4 -1 -4t-1 -4v13q0 4 -1 10t-1 10l2 -2q-10 86 -25.5 177t-72.5 179z" />
<glyph unicode="|" horiz-adv-x="434" d="M113 -260v1753h116v-1753h-116z" />
<glyph unicode="}" horiz-adv-x="409" d="M-12 -238q68 43 107.5 98.5t61 118t29 129t13.5 134.5q6 94 19 193.5t48 176.5q-35 78 -47 179.5t-18 191.5q-6 66 -13.5 132.5t-29 128t-60.5 116.5t-106 98l63 117q80 -57 128 -125t75 -140.5t37 -147.5t16 -146v-17q0 -4 1 -6t1 -6v2q8 -90 24.5 -186t76.5 -191 q-33 -49 -51.5 -100t-28.5 -102.5t-14.5 -101.5t-8.5 -97q-6 -72 -16 -147.5t-37 -147.5t-74 -138.5t-127 -119.5z" />
<glyph horiz-adv-x="0" />
<glyph unicode="&#xa1;" horiz-adv-x="333" d="M19 733q-1 -65 69 -65q25 0 43.5 17.5t18.5 47.5q0 35 -18.5 50.5t-43.5 15.5q-70 0 -69 -66zM27 -541h119v1170h-119v-1170z" />
<glyph unicode="&#xa2;" horiz-adv-x="1040" d="M61 684q0 10 1 17.5t1 15.5v16q14 109 63.5 201t123.5 158.5t166 104.5t194 38h35q8 29 18.5 58.5t16.5 56.5h125l-41 -136q57 -14 114.5 -46.5t114.5 -77.5l-73 -101q-53 41 -100.5 67.5t-88.5 41.5q-55 -213 -111.5 -418t-113.5 -418q29 -6 53.5 -9t52.5 -3 q78 0 160 34.5t160 100.5l72 -104q-90 -74 -189.5 -112t-200.5 -38q-33 0 -69.5 3t-69.5 13l-20 -73l-23 -74h-121l56 188q-147 70 -226.5 203t-79.5 293zM184 731q-4 -61 8.5 -122.5t40 -117t69.5 -102.5t95 -78l215 803q-80 -2 -151.5 -31.5t-129 -82t-96 -121 t-51.5 -148.5z" />
<glyph unicode="&#xa3;" horiz-adv-x="1282" d="M14 98q59 66 130 100.5t137 49.5q20 59 32.5 117.5t12.5 130.5q0 57 -7 104l-2 6h-170v119h150q-10 55 -18.5 116.5t-8.5 112.5q0 88 34 162t91.5 127t133 82t161.5 29q123 0 220.5 -73t170.5 -181l-100 -72q-53 100 -137 153.5t-170 53.5q-68 0 -120 -24.5t-89 -66.5 t-55.5 -98.5t-18.5 -119.5q0 -35 6 -79t21 -122h426v-119h-402q4 -29 5.5 -59.5t1.5 -61.5q0 -125 -39 -237q63 -14 120.5 -36t102.5 -42q66 -27 123 -43t102 -16q61 0 129 31.5t162 97.5l76 -90q-100 -78 -187.5 -118t-173.5 -40q-66 0 -136.5 19.5t-141.5 54.5 q-55 29 -116.5 50t-117.5 21q-70 0 -128 -30.5t-132 -90.5z" />
<glyph unicode="&#xa4;" horiz-adv-x="942" d="M113 129v1096h118v125h119v-125h70v125h119v-125q59 0 111 -24.5t91 -65.5t61.5 -94.5t22.5 -108.5q0 -68 -25.5 -129.5t-76.5 -104.5q63 -41 98 -109.5t35 -150.5q0 -63 -23.5 -119.5t-65.5 -98.5t-98.5 -66.5t-119.5 -24.5h-10v-127h-119v127h-70v-127h-119v127h-118z M229 246h320q80 0 135 56t55 136q0 41 -14 78t-41 64.5t-61.5 43t-73.5 15.5h-320v-393zM229 756h310q35 0 65.5 14t53 37.5t36 55.5t13.5 69q0 74 -48.5 126t-119.5 52h-310v-354z" />
<glyph unicode="&#xa5;" horiz-adv-x="1132" d="M4 1294l92 76l449 -571l452 571l95 -76l-412 -522h260v-117h-334v-102h334v-119h-334v-432h-119v432h-335v119h335v102h-335v117h264q-57 74 -117.5 149.5t-120.5 151.5z" />
<glyph unicode="&#xa6;" horiz-adv-x="362" d="M113 -260v766h116v-766h-116zM113 725v768h116v-768h-116z" />
<glyph unicode="&#xa7;" horiz-adv-x="974" d="M74 772q0 61 38 116.5t91 90.5q-23 25 -39.5 57.5t-20.5 83.5v10q0 70 32 116t76 73t93 38t86 13l19 2q74 0 142 -25.5t121.5 -72.5t86 -112.5t37.5 -145.5q0 -18 -1 -41t-10 -57l-114 -5q4 29 5 50.5t1 48.5h2q-8 106 -85 173.5t-188 67.5h-14q-23 -2 -51.5 -9 t-54 -21.5t-43 -36t-17.5 -51.5v-11q2 -31 20.5 -54t46 -42.5t61.5 -36t71 -30.5h-2q6 -2 14 -6.5t15 -6.5l67 -28q92 -47 151.5 -86t95.5 -76t50 -76t16 -88v-8q0 -68 -42 -120t-97 -81q35 -41 51.5 -83t16.5 -81q0 -61 -25.5 -104t-68.5 -71t-97.5 -43t-111.5 -17h-21 q-78 0 -147.5 27.5t-122.5 76.5t-85 116.5t-32 147.5q0 10 1 25.5t9 56.5h117q-10 -57 -10 -88q0 -43 20.5 -87t57.5 -79t86 -56.5t108 -21.5h15v-2q100 6 142 44t42 73q0 31 -10.5 53.5t-40 45t-82.5 52t-139 72.5l-125 64q-37 20 -74 44.5t-66.5 56.5t-48 73t-18.5 92z M195 758q0 -12 6 -28.5t21.5 -35t44 -40t73.5 -46.5l94 -47l74 -37q35 -16 65.5 -31.5t55.5 -33.5q20 8 41.5 20.5t40 28.5t30 35.5t11.5 42.5v8l2 -2q-2 29 -15.5 54.5t-43 51t-76 53t-115.5 62.5q-12 4 -28.5 12.5t-26.5 14.5l-46 20q-47 25 -60 33t-28 12 q-16 -6 -36.5 -18.5t-39 -30.5t-31.5 -43t-13 -55z" />
<glyph unicode="&#xa8;" horiz-adv-x="593" d="M111 1477q0 29 19 50t52 21t52.5 -21.5t19.5 -49.5q0 -33 -19.5 -53.5t-52.5 -20.5t-52 20.5t-19 53.5zM322 1477q0 29 19 50t52 21t51.5 -21.5t18.5 -49.5q0 -33 -18.5 -53.5t-51.5 -20.5t-52 20.5t-19 53.5z" />
<glyph unicode="&#xa9;" horiz-adv-x="716" d="M96 1171q0 51 20.5 97.5t55.5 81t81 55t97 20.5t97.5 -20.5t80 -55t53 -80.5t19.5 -98q0 -51 -19.5 -97t-53 -79.5t-80 -54t-97.5 -20.5t-97 20.5t-81 54t-55.5 79.5t-20.5 97zM182 1171q0 -72 48.5 -118.5t119.5 -46.5q35 0 62.5 11t50.5 30q-31 -18 -56.5 -24.5 t-48.5 -6.5q-76 0 -120.5 46t-44.5 107q0 31 14 61t37.5 51.5t53.5 34.5t60 13q18 0 43 -8t62 -29l-23 -86q-35 25 -54 34t-28 9q-31 0 -57.5 -24.5t-26.5 -55.5t24 -50t58 -19q16 0 36 8t42 20l43 -63q37 47 37 106q0 72 -47 120t-117 48q-72 0 -120 -48t-48 -120z" />
<glyph unicode="&#xaa;" horiz-adv-x="1064" d="M59 995q0 78 30 146.5t82 120t120.5 81t146.5 29.5q160 0 260 -100v100h117v-432q0 -41 4 -80t17.5 -74.5t40 -69.5t73.5 -65v-129q-100 57 -151 116.5t-72 111.5q-29 -35 -66.5 -58.5t-77.5 -39t-78 -22.5t-69 -7q-78 2 -146.5 32.5t-119.5 79.5t-81 116t-30 144z M176 995q0 -53 21.5 -100t57.5 -82t83 -55.5t100 -20.5t100.5 20.5t83 55.5t56 82t20.5 100t-20.5 100.5t-56 82t-82.5 55t-101 20.5q-53 0 -100 -20.5t-83 -55t-57.5 -81.5t-21.5 -101z" />
<glyph unicode="&#xab;" horiz-adv-x="987" d="M8 686l473 598v-88q0 -20 1 -38.5t1 -22.5v-35l-325 -414l90 -111l235 -296q0 -4 -1 -12.5t-1 -12.5v-158zM373 686l471 600v-90q0 -20 1 -38.5t1 -22.5v-35l-324 -414l90 -111l234 -296q0 -4 -1 -12.5t-1 -12.5v-158z" />
<glyph unicode="&#xac;" horiz-adv-x="1247" d="M-18 659v117h1091v-637h-119v520h-972z" />
<glyph unicode="&#xad;" horiz-adv-x="1136" d="M127 555v119h881v-119h-881z" />
<glyph unicode="&#xae;" horiz-adv-x="716" d="M96 1171q0 51 20.5 97.5t55.5 81t81 55t97 20.5t97.5 -20.5t80 -55t53 -80.5t19.5 -98q0 -51 -19.5 -97t-53 -79.5t-80 -54t-97.5 -20.5t-97 20.5t-81 54t-55.5 79.5t-20.5 97zM182 1171q0 -41 18.5 -77.5t49.5 -59.5v273q-31 -23 -49.5 -59t-18.5 -77zM276 1022 q16 -8 33.5 -12t40.5 -4q43 0 72 14l-88 94v-92h-58zM297 1331h57q41 0 70 -30.5t39 -75.5q0 -57 -35 -86l45 -45l19 -15q8 18 15 43t7 49q0 72 -47 120t-117 48q-16 0 -29.5 -2t-23.5 -6zM334 1198h20q10 0 17.5 6t7.5 13q0 12 -7 22t-18 10h-20v-51z" />
<glyph unicode="&#xb0;" horiz-adv-x="393" d="M72 1376q0 47 35.5 82t82.5 35q49 0 82 -35t33 -82q0 -51 -32.5 -82.5t-82.5 -31.5q-47 0 -82.5 31.5t-35.5 82.5zM182 1376q0 -4 8 -4q6 0 7 4q0 8 -7 8q-8 0 -8 -8z" />
<glyph unicode="&#xb1;" horiz-adv-x="514" d="M-23 377v115h541v-115h-541zM-23 725v115h216v202h114v-202h211v-115h-211v-219h-114v219h-216z" />
<glyph unicode="&#xb2;" horiz-adv-x="688" d="M61 844l125 2q16 -53 53 -81t78 -28q31 0 61 13.5t52.5 36t35.5 52t13 62.5q0 51 -43 82t-94 31l-70 -19v144q76 0 126.5 31.5t52.5 76.5q-4 55 -45 93t-97 38q-47 0 -85 -47t-38 -114l-120 -3q2 57 21 107.5t52 88.5t77 60.5t95 22.5q49 0 95.5 -19.5t82 -52t57 -77 t21.5 -93.5q0 -47 -19.5 -90t-53.5 -76q47 -33 74.5 -80t27.5 -108q0 -55 -21.5 -104.5t-59.5 -88t-89 -61t-109 -22.5q-78 0 -149.5 56t-106.5 167z" />
<glyph unicode="&#xb3;" horiz-adv-x="628" d="M35 635l383 522q10 18 17 40t7 38q0 53 -33.5 96t-84.5 47h-9q-47 0 -82.5 -41t-35.5 -94q0 -4 4 -24.5t8 -53.5l-123 2v19q-8 39 -8 59q0 49 20.5 94t54 79t77.5 54.5t94 20.5q51 0 95 -22.5t75.5 -58.5t49 -82t17.5 -95q0 -78 -49 -143l-137 -189l-45 -61 q-10 -14 -17.5 -23.5t-14.5 -18.5t-16.5 -19.5t-21.5 -28.5h336v-117h-561z" />
<glyph unicode="&#xb4;" horiz-adv-x="337" d="M-23 1323l54 164l223 166q41 0 83 1t83 1q-115 -86 -221.5 -166t-221.5 -166z" />
<glyph unicode="&#xb6;" horiz-adv-x="1257" d="M47 999q0 100 28.5 184.5t85 146t141.5 95t196 33.5h641v-121h-121v-1411h-121v1411h-326v-1411h-120v631q-96 8 -171 50t-126.5 103.5t-79 136.5t-27.5 152z" />
<glyph unicode="&#xb7;" horiz-adv-x="321" d="M82 659q0 29 19.5 51.5t50.5 22.5q35 0 53 -22.5t18 -51.5q0 -33 -18.5 -52t-52.5 -19q-31 0 -50.5 19.5t-19.5 51.5z" />
<glyph unicode="&#xb8;" horiz-adv-x="436" d="M2 -215l107 27q18 -51 40.5 -80t55.5 -29q27 0 42 20.5t15 49.5q0 14 -15.5 31.5t-31.5 27.5h-15.5t-17.5 2q-10 0 -21 1t-16 1v246h117v-143q53 -18 86 -66.5t33 -103.5q0 -76 -49 -128.5t-127 -52.5q-72 0 -129.5 55.5t-73.5 141.5z" />
<glyph unicode="&#xb9;" horiz-adv-x="432" d="M-45 1090l334 489v-969h-117v600l-125 -184z" />
<glyph unicode="&#xbb;" horiz-adv-x="991" d="M109 240v34l237 301l90 111l-327 418v31q0 4 1 21.5t1 37.5v92l471 -600l-471 -594v92q0 20 -1 36t-1 20zM473 240v34l238 301l90 111l-328 418v31q0 4 1 21.5t1 37.5v92l471 -600l-471 -594v92q0 20 -1 36t-1 20z" />
<glyph unicode="&#xbc;" horiz-adv-x="1576" d="M63 1090l334 489v-969h-118v600l-123 -184zM147 0l1014 1493h133l-1015 -1493h-132zM682 168l616 807v-688h158v-119h-158v-168h-116v168h-500zM920 287h262v342q-33 -45 -68 -91t-67 -89q-35 -43 -62 -76t-65 -86z" />
<glyph unicode="&#xbd;" horiz-adv-x="1509" d="M59 1090l336 489v-969h-119v598l-126 -182zM143 0l1016 1493h133l-1016 -1493h-133zM831 0l383 524q4 14 13.5 38t9.5 40q0 51 -34 94t-85 47h-8q-47 0 -84 -40.5t-37 -94.5q0 -2 4 -23.5t11 -52.5l-121 3q-4 25 -8.5 47t-4.5 28q0 51 20.5 96.5t55.5 79t79 53t93 19.5 q51 0 94 -22.5t75 -57.5t50.5 -81t18.5 -95q0 -35 -13.5 -74t-35.5 -69l-140 -191q-14 -20 -26.5 -35.5t-22.5 -31.5q-18 -25 -29.5 -38t-35.5 -46h338v-117h-560z" />
<glyph unicode="&#xbe;" horiz-adv-x="1736" d="M78 844l123 2q14 -53 52 -81t79 -28q31 0 60.5 13.5t51 36t35 52t13.5 62.5q0 45 -38 79t-89 34q-4 0 -14.5 -1t-61.5 -12v138h51q53 0 89 32.5t36 77.5v11l2 -3q-4 47 -46 84t-95 37q-47 0 -86 -47t-39 -114l-119 -3q2 57 21.5 107.5t52 88.5t76.5 60.5t96 22.5 q76 0 143.5 -47t95.5 -117q15 -39 15 -78q0 -98 -72 -166q45 -33 72.5 -80t27.5 -108q0 -55 -21.5 -104.5t-59 -88t-89 -61t-108.5 -22.5q-76 0 -147.5 56t-106.5 167zM260 0l1016 1493h131l-1018 -1493h-129zM831 168l617 807v-688h160v-119h-160v-168h-117v168h-500z M1071 287h260v344q-35 -47 -64.5 -87l-59 -80t-62.5 -83t-74 -94z" />
<glyph unicode="&#xbf;" horiz-adv-x="1302" d="M139 -82q0 86 32 168.5t89 150.5t138 116t180 62v262h120v-374h-57l2 2q-82 -6 -152.5 -42t-122 -89.5t-80 -120t-28.5 -135.5q0 -59 21.5 -119t66.5 -107q57 -61 124 -87.5t138 -26.5q74 0 145.5 29.5t129 81.5t95.5 124t44 156l123 -4q-10 -109 -60.5 -202t-124 -160.5 t-165.5 -105.5t-189 -38q-96 0 -189 39t-169 125q-57 66 -84 141.5t-27 153.5zM569 778q0 35 21.5 52t48.5 17t48.5 -17t21.5 -52t-21.5 -54.5t-48.5 -19.5t-48.5 19.5t-21.5 54.5z" />
<glyph unicode="&#xc0;" horiz-adv-x="1187" d="M16 2l562 1395l563 -1389q-29 -8 -45.5 -12t-26.5 -7t-19.5 -5t-21.5 -4l-227 536h-451l-106 -260q-29 -68 -59.5 -141.5t-55.5 -139.5q-14 4 -35.5 9.5t-77.5 17.5zM344 1653h168l227 -172v2l43 -150q-109 80 -218.5 161t-219.5 159zM393 625h361q-23 70 -70 190.5 t-106 288.5z" />
<glyph unicode="&#xc1;" horiz-adv-x="1187" d="M16 2l562 1395l563 -1389q-29 -8 -45.5 -12t-26.5 -7t-19.5 -5t-21.5 -4l-227 536h-451l-106 -260q-29 -68 -59.5 -141.5t-55.5 -139.5q-14 4 -35.5 9.5t-77.5 17.5zM389 1325l54 164l223 166q41 0 83 1t83 1q-115 -86 -221.5 -166t-221.5 -166zM393 625h361 q-23 70 -70 190.5t-106 288.5z" />
<glyph unicode="&#xc2;" horiz-adv-x="1187" d="M16 2l562 1395l563 -1389q-29 -8 -45.5 -12t-26.5 -7t-19.5 -5t-21.5 -4l-227 536h-451l-106 -260q-29 -68 -59.5 -141.5t-55.5 -139.5q-14 4 -35.5 9.5t-77.5 17.5zM268 1303l58 172l225 174h72l227 -172v2q10 -41 23.5 -81t23.5 -81l-307 221l-146 -108 q-47 -35 -91 -67t-85 -60zM393 625h361q-23 70 -70 190.5t-106 288.5z" />
<glyph unicode="&#xc3;" horiz-adv-x="1187" d="M16 2l562 1395l563 -1389q-29 -8 -45.5 -12t-26.5 -7t-19.5 -5t-21.5 -4l-227 536h-451l-106 -260q-29 -68 -59.5 -141.5t-55.5 -139.5q-14 4 -35.5 9.5t-77.5 17.5zM307 1448q39 90 79 122t81 32q33 0 68.5 -16.5t66.5 -32.5q33 -16 58.5 -27.5t41.5 -11.5 q12 0 26.5 19.5t37.5 68.5l98 -49q-39 -86 -78 -119t-80 -33q-37 0 -72.5 15.5t-64.5 31.5t-56.5 29.5t-41.5 13.5q-12 0 -25.5 -18.5t-33.5 -71.5zM393 625h361q-23 70 -70 190.5t-106 288.5z" />
<glyph unicode="&#xc4;" horiz-adv-x="1187" d="M16 2l562 1395l563 -1389q-29 -8 -45.5 -12t-26.5 -7t-19.5 -5t-21.5 -4l-227 536h-451l-106 -260q-29 -68 -59.5 -141.5t-55.5 -139.5q-14 4 -35.5 9.5t-77.5 17.5zM393 625h361q-23 70 -70 190.5t-106 288.5zM404 1479q0 29 19 50t52 21t52.5 -21.5t19.5 -49.5 q0 -33 -19.5 -53.5t-52.5 -20.5t-52 20.5t-19 53.5zM615 1479q0 29 19 50t52 21t51.5 -21.5t18.5 -49.5q0 -33 -18.5 -53.5t-51.5 -20.5t-52 20.5t-19 53.5z" />
<glyph unicode="&#xc5;" horiz-adv-x="1187" d="M16 2l562 1395l563 -1389q-29 -8 -45.5 -12t-26.5 -7t-19.5 -5t-21.5 -4l-227 536h-451l-106 -260q-29 -68 -59.5 -141.5t-55.5 -139.5q-14 4 -35.5 9.5t-77.5 17.5zM393 625h361q-23 70 -70 190.5t-106 288.5zM498 1482q0 35 23.5 58.5t58.5 23.5t56.5 -23.5t21.5 -58.5 t-21.5 -57t-56.5 -22t-58.5 22t-23.5 57zM557 1482q0 -20 23 -20q20 0 20 20q0 23 -20 23q-23 0 -23 -23z" />
<glyph unicode="&#xc6;" horiz-adv-x="1884" d="M31 53l866 1297h862v-117h-661v-402h551v-118h-551v-596h706v-117h-825v451h-545l-309 -469zM510 569h469v664h-23q-51 -74 -95 -142.5t-91 -134.5z" />
<glyph unicode="&#xc7;" horiz-adv-x="1245" d="M111 674q0 92 24.5 182t75.5 176q49 78 114.5 139.5t142.5 104.5t162 65.5t171 22.5q186 0 393 -129l-68 -96q-86 55 -170 80.5t-157 25.5q-147 0 -276.5 -70.5t-211.5 -205.5q-84 -137 -84 -295q0 -145 72 -275.5t207 -212.5q66 -41 140.5 -60.5t152.5 -19.5 q86 0 176 31t182 94l68 -96q-106 -74 -215 -110.5t-209 -36.5h-60v-29q59 -14 90 -63.5t31 -106.5q0 -76 -50 -127t-128 -51q-72 0 -130 50t-71 149l121 26v-53q4 -12 12 -25l-2 2q23 -32 70 -32q29 0 44 18t15 47q0 16 -15 35.5t-32 26.5h-18t-19 2q-6 0 -17 1t-15 1v147 q-47 14 -95.5 33.5t-89.5 48.5q-78 49 -139 115.5t-104 143.5t-65.5 160t-22.5 167z" />
<glyph unicode="&#xc8;" horiz-adv-x="964" d="M125 0v1350h782v-119h-665v-379h448v-119h-448v-614h710v-119h-827zM252 1661h168l227 -172v2l43 -150q-109 80 -218.5 161t-219.5 159z" />
<glyph unicode="&#xc9;" horiz-adv-x="964" d="M125 0v1350h782v-119h-665v-379h448v-119h-448v-614h710v-119h-827zM290 1405l54 164l223 166q41 0 83 1t83 1q-115 -86 -221.5 -166t-221.5 -166z" />
<glyph unicode="&#xca;" horiz-adv-x="964" d="M125 0v1350h782v-119h-665v-379h448v-119h-448v-614h710v-119h-827zM190 1346l58 172l225 174h72l227 -172v2q10 -41 23.5 -81t23.5 -81l-307 221l-146 -108q-47 -35 -91 -67t-85 -60z" />
<glyph unicode="&#xcb;" horiz-adv-x="964" d="M125 0v1350h782v-119h-665v-379h448v-119h-448v-614h710v-119h-827zM320 1477q0 29 19 50t52 21t52.5 -21.5t19.5 -49.5q0 -33 -19.5 -53.5t-52.5 -20.5t-52 20.5t-19 53.5zM531 1477q0 29 19 50t52 21t51.5 -21.5t18.5 -49.5q0 -33 -18.5 -53.5t-51.5 -20.5t-52 20.5 t-19 53.5z" />
<glyph unicode="&#xcc;" horiz-adv-x="686" d="M127 1653h168l227 -172v2l43 -150q-109 80 -218.5 161t-219.5 159zM312 0v1350h116v-1350h-116z" />
<glyph unicode="&#xcd;" horiz-adv-x="686" d="M159 1321l54 164l223 166q41 0 83 1t83 1q-115 -86 -221.5 -166t-221.5 -166zM301 0v1350h116v-1350h-116z" />
<glyph unicode="&#xce;" horiz-adv-x="915" d="M127 1301l58 172l225 174h72l227 -172v2q10 -41 23.5 -81t23.5 -81l-307 221l-146 -108q-47 -35 -91 -67t-85 -60zM389 0v1350h116v-1350h-116z" />
<glyph unicode="&#xcf;" horiz-adv-x="686" d="M117 1477q0 29 19 50t52 21t52.5 -21.5t19.5 -49.5q0 -33 -19.5 -53.5t-52.5 -20.5t-52 20.5t-19 53.5zM240 0v1350h116v-1350h-116zM328 1477q0 29 19 50t52 21t51.5 -21.5t18.5 -49.5q0 -33 -18.5 -53.5t-51.5 -20.5t-52 20.5t-19 53.5z" />
<glyph unicode="&#xd0;" horiz-adv-x="1429" d="M76 694v119h137v537h416q139 0 262 -53.5t214 -145.5t143 -215t52 -262t-52 -262t-143 -214.5t-214 -144.5t-262 -53h-416v694h-137zM330 119h299q115 0 216 43t177 118.5t120 176t44 217.5q0 115 -44 217t-120 178t-177.5 120t-215.5 44h-299v-420h514v-119h-514v-575z " />
<glyph unicode="&#xd1;" horiz-adv-x="1372" d="M211 0v1372l905 -1081v1063h119v-1374l-905 1079v-1059h-119zM455 1433q39 90 79 122t81 32q33 0 68.5 -16.5t66.5 -32.5q33 -16 58.5 -27.5t41.5 -11.5q12 0 26.5 19.5t37.5 68.5l98 -49q-39 -86 -78 -119t-80 -33q-37 0 -72.5 15.5t-64.5 31.5t-56.5 29.5t-41.5 13.5 q-12 0 -25.5 -18.5t-33.5 -71.5z" />
<glyph unicode="&#xd2;" horiz-adv-x="1601" d="M86 674q0 141 54.5 267t147.5 219t219 147.5t269 54.5q141 0 266 -54.5t218.5 -147.5t146.5 -219t53 -267t-53 -267t-146.5 -219.5t-218 -147.5t-266.5 -54q-143 0 -269 54t-219 147.5t-147.5 219t-54.5 267.5zM205 674q0 -119 45 -222.5t122 -180t181 -122t223 -45.5 q117 0 220.5 45.5t180 122t120.5 180t44 222.5t-44 222t-120.5 180t-180 122t-220.5 45q-119 0 -223 -45t-181 -122t-122 -180t-45 -222zM563 1651h168l227 -172v2l43 -150q-109 80 -218.5 161t-219.5 159z" />
<glyph unicode="&#xd3;" horiz-adv-x="1601" d="M86 674q0 141 54.5 267t147.5 219t219 147.5t269 54.5q141 0 266 -54.5t218.5 -147.5t146.5 -219t53 -267t-53 -267t-146.5 -219.5t-218 -147.5t-266.5 -54q-143 0 -269 54t-219 147.5t-147.5 219t-54.5 267.5zM205 674q0 -119 45 -222.5t122 -180t181 -122t223 -45.5 q117 0 220.5 45.5t180 122t120.5 180t44 222.5t-44 222t-120.5 180t-180 122t-220.5 45q-119 0 -223 -45t-181 -122t-122 -180t-45 -222zM577 1376l54 164l223 166q41 0 83 1t83 1q-115 -86 -221.5 -166t-221.5 -166z" />
<glyph unicode="&#xd4;" horiz-adv-x="1601" d="M86 674q0 141 54.5 267t147.5 219t219 147.5t269 54.5q141 0 266 -54.5t218.5 -147.5t146.5 -219t53 -267t-53 -267t-146.5 -219.5t-218 -147.5t-266.5 -54q-143 0 -269 54t-219 147.5t-147.5 219t-54.5 267.5zM205 674q0 -119 45 -222.5t122 -180t181 -122t223 -45.5 q117 0 220.5 45.5t180 122t120.5 180t44 222.5t-44 222t-120.5 180t-180 122t-220.5 45q-119 0 -223 -45t-181 -122t-122 -180t-45 -222zM473 1303l58 172l225 174h72l227 -172v2q10 -41 23.5 -81t23.5 -81l-307 221l-146 -108q-47 -35 -91 -67t-85 -60z" />
<glyph unicode="&#xd5;" horiz-adv-x="1601" d="M86 674q0 141 54.5 267t147.5 219t219 147.5t269 54.5q141 0 266 -54.5t218.5 -147.5t146.5 -219t53 -267t-53 -267t-146.5 -219.5t-218 -147.5t-266.5 -54q-143 0 -269 54t-219 147.5t-147.5 219t-54.5 267.5zM205 674q0 -119 45 -222.5t122 -180t181 -122t223 -45.5 q117 0 220.5 45.5t180 122t120.5 180t44 222.5t-44 222t-120.5 180t-180 122t-220.5 45q-119 0 -223 -45t-181 -122t-122 -180t-45 -222zM522 1446q39 90 79 122t81 32q33 0 68.5 -16.5t66.5 -32.5q33 -16 58.5 -27.5t41.5 -11.5q12 0 26.5 19.5t37.5 68.5l98 -49 q-39 -86 -78 -119t-80 -33q-37 0 -72.5 15.5t-64.5 31.5t-56.5 29.5t-41.5 13.5q-12 0 -25.5 -18.5t-33.5 -71.5z" />
<glyph unicode="&#xd6;" horiz-adv-x="1601" d="M86 674q0 141 54.5 267t147.5 219t219 147.5t269 54.5q141 0 266 -54.5t218.5 -147.5t146.5 -219t53 -267t-53 -267t-146.5 -219.5t-218 -147.5t-266.5 -54q-143 0 -269 54t-219 147.5t-147.5 219t-54.5 267.5zM205 674q0 -119 45 -222.5t122 -180t181 -122t223 -45.5 q117 0 220.5 45.5t180 122t120.5 180t44 222.5t-44 222t-120.5 180t-180 122t-220.5 45q-119 0 -223 -45t-181 -122t-122 -180t-45 -222zM590 1479q0 29 19 50t52 21t52.5 -21.5t19.5 -49.5q0 -33 -19.5 -53.5t-52.5 -20.5t-52 20.5t-19 53.5zM801 1479q0 29 19 50t52 21 t51.5 -21.5t18.5 -49.5q0 -33 -18.5 -53.5t-51.5 -20.5t-52 20.5t-19 53.5z" />
<glyph unicode="&#xd7;" horiz-adv-x="956" d="M57 244l326 370l-317 367l110 49l283 -330l291 330l110 -49l-321 -365q117 -135 199.5 -228t129.5 -144l-123 -33l-284 321l-281 -321z" />
<glyph unicode="&#xd8;" horiz-adv-x="1527" d="M55 672q0 141 54.5 267t147.5 219t218 147.5t268 54.5q45 0 91.5 -5t95.5 -22l92 230h123l-107 -271q86 -41 158 -104.5t124 -144t81 -175t29 -196.5q0 -141 -54.5 -267t-147.5 -219.5t-218 -147.5t-267 -54q-55 0 -108 7t-103 23q-4 -14 -11 -28.5t-11 -26.5 q-18 -49 -41 -103.5t-43 -99.5h-123l121 303q-84 43 -151.5 107.5t-115.5 143.5t-75 170t-27 192zM172 672q0 -80 21.5 -154t61.5 -138.5t93 -117.5t119 -90l416 1051q-35 10 -68 14t-72 4q-119 0 -223 -45t-181 -122t-122 -180t-45 -222zM573 125q76 -25 170 -25 q119 0 222.5 45t181.5 123t123 181.5t45 222.5q0 82 -24.5 157.5t-68.5 142t-102.5 120t-126.5 90.5q-66 -172 -131 -333t-131 -325q-37 -98 -78 -199.5t-80 -199.5z" />
<glyph unicode="&#xd9;" horiz-adv-x="1357" d="M111 508v842h118v-842q0 -84 34 -158t91.5 -128t135 -86t167.5 -32q88 0 166 32t135.5 86t90 128t32.5 158v842h117v-842q0 -106 -43 -201.5t-116.5 -166t-172 -112.5t-209.5 -42q-113 0 -212 42t-173.5 112.5t-117.5 165.5t-43 202zM434 1651h168l227 -172v2l43 -150 q-109 80 -218.5 161t-219.5 159z" />
<glyph unicode="&#xda;" horiz-adv-x="1357" d="M111 508v842h118v-842q0 -84 34 -158t91.5 -128t135 -86t167.5 -32q88 0 166 32t135.5 86t90 128t32.5 158v842h117v-842q0 -106 -43 -201.5t-116.5 -166t-172 -112.5t-209.5 -42q-113 0 -212 42t-173.5 112.5t-117.5 165.5t-43 202zM477 1321l54 164l223 166q41 0 83 1 t83 1q-115 -86 -221.5 -166t-221.5 -166z" />
<glyph unicode="&#xdb;" horiz-adv-x="1357" d="M111 508v842h118v-842q0 -84 34 -158t91.5 -128t135 -86t167.5 -32q88 0 166 32t135.5 86t90 128t32.5 158v842h117v-842q0 -106 -43 -201.5t-116.5 -166t-172 -112.5t-209.5 -42q-113 0 -212 42t-173.5 112.5t-117.5 165.5t-43 202zM356 1301l58 172l225 174h72 l227 -172v2q10 -41 23.5 -81t23.5 -81l-307 221l-146 -108q-47 -35 -91 -67t-85 -60z" />
<glyph unicode="&#xdc;" horiz-adv-x="1357" d="M111 508v842h118v-842q0 -84 34 -158t91.5 -128t135 -86t167.5 -32q88 0 166 32t135.5 86t90 128t32.5 158v842h117v-842q0 -106 -43 -201.5t-116.5 -166t-172 -112.5t-209.5 -42q-113 0 -212 42t-173.5 112.5t-117.5 165.5t-43 202zM486 1479q0 29 19 50t52 21 t52.5 -21.5t19.5 -49.5q0 -33 -19.5 -53.5t-52.5 -20.5t-52 20.5t-19 53.5zM697 1479q0 29 19 50t52 21t51.5 -21.5t18.5 -49.5q0 -33 -18.5 -53.5t-51.5 -20.5t-52 20.5t-19 53.5z" />
<glyph unicode="&#xdd;" horiz-adv-x="1525" d="M285 1325l108 53l443 -708q109 174 222 354t220 354l106 -53l-489 -784q0 -63 -1 -128t-1 -134v-279h-115l-4 543q-121 193 -246 391.5t-243 390.5zM610 1364l54 164l223 166q41 0 83 1t83 1q-115 -86 -221.5 -166t-221.5 -166z" />
<glyph unicode="&#xde;" horiz-adv-x="1210" d="M88 0v1350h121v-193h496q82 0 155.5 -32.5t128.5 -90t88 -133.5t33 -162t-31.5 -161.5t-86 -131t-128 -88t-155.5 -32.5h-500v-326h-121zM209 444h500q57 0 109 22.5t90 62.5t60.5 94.5t22.5 115.5q0 63 -22.5 117.5t-61.5 94.5t-91 63.5t-109 23.5h-498v-594z" />
<glyph unicode="&#xdf;" horiz-adv-x="1654" d="M39 55l31 105q72 -20 148.5 -35.5t129.5 -15.5h64q51 0 96 13t80 38.5t55.5 64.5t20.5 88q0 23 -10.5 48.5t-20.5 41.5q-18 25 -46 41.5t-58.5 26.5t-63.5 15.5t-62 7.5q-59 2 -115.5 11t-107.5 38q-59 37 -99 100.5t-40 140.5q0 113 80 191t221 104q20 4 60 9.5t79 5.5 q25 0 61 -6.5t72.5 -15.5t73.5 -21.5t66 -22.5l-33 -106q-86 29 -147.5 40t-131.5 11q-47 0 -97 -11.5t-92 -34t-68.5 -59.5t-26.5 -86q0 -31 22.5 -70.5t52.5 -62.5q35 -23 73 -29t73 -10l-2 2q2 0 4 -1t6 -1h6q63 -4 131 -18t125 -51q59 -39 96 -105.5t37 -132.5 q0 -76 -31.5 -134t-87 -98t-129 -61.5t-155.5 -21.5q-35 0 -78 6t-88 15t-90 21.5t-84 24.5zM774 55l29 105q74 -20 149.5 -35.5t128.5 -15.5h66q51 0 96 13t80 38.5t55.5 64.5t20.5 88q0 23 -10.5 48.5t-22.5 41.5q-18 25 -45 41.5t-57.5 26.5t-63.5 15.5t-61 7.5 q-59 2 -115.5 11t-108.5 38q-59 37 -99 100.5t-40 140.5q0 113 80 191t221 104q20 4 60.5 9.5t79.5 5.5q25 0 60.5 -6.5t72 -15.5t73.5 -21.5t66 -22.5l-33 -106q-86 29 -147.5 40t-130.5 11q-47 0 -97.5 -11.5t-92.5 -34t-68.5 -59.5t-26.5 -86q0 -31 22.5 -70.5 t53.5 -62.5q35 -23 72.5 -29t72.5 -10l-2 2q2 0 4 -1t6 -1h6q63 -4 130 -18t126 -51q59 -39 95.5 -105.5t36.5 -132.5q0 -76 -32 -134t-86.5 -98t-128 -61.5t-155.5 -21.5q-35 0 -78 6t-88 15t-90 21.5t-84 24.5z" />
<glyph unicode="&#xe0;" horiz-adv-x="978" d="M20 18l451 1094q111 -258 226.5 -538.5t226.5 -550.5l-105 -29l-172 397h-346q-41 -98 -85 -201.5t-85 -199.5zM233 1440h168l228 -172v2l43 -150q-109 80 -218.5 161t-220.5 159zM346 494h256q-33 88 -64.5 165.5t-66.5 169.5q-12 -31 -24.5 -63.5t-26.5 -71.5 t-32.5 -88t-41.5 -112z" />
<glyph unicode="&#xe1;" horiz-adv-x="978" d="M20 18l451 1094q111 -258 226.5 -538.5t226.5 -550.5l-105 -29l-172 397h-346q-41 -98 -85 -201.5t-85 -199.5zM246 1110l53 164l223 166q41 0 83 1t83 1q-115 -86 -221.5 -166t-220.5 -166zM346 494h256q-33 88 -64.5 165.5t-66.5 169.5q-12 -31 -24.5 -63.5 t-26.5 -71.5t-32.5 -88t-41.5 -112z" />
<glyph unicode="&#xe2;" horiz-adv-x="978" d="M20 18l451 1094q111 -258 226.5 -538.5t226.5 -550.5l-105 -29l-172 397h-346q-41 -98 -85 -201.5t-85 -199.5zM158 1075l57 172l225 174h72l227 -172v2q10 -41 23.5 -81t23.5 -80l-307 221l-145 -109q-47 -35 -91 -66.5t-85 -60.5zM346 494h256q-33 88 -64.5 165.5 t-66.5 169.5q-12 -31 -24.5 -63.5t-26.5 -71.5t-32.5 -88t-41.5 -112z" />
<glyph unicode="&#xe3;" horiz-adv-x="978" d="M20 18l451 1094q111 -258 226.5 -538.5t226.5 -550.5l-105 -29l-172 397h-346q-41 -98 -85 -201.5t-85 -199.5zM203 1278q39 90 79 122t80 32q33 0 69 -16.5t67 -33.5q33 -16 58.5 -27.5t41.5 -11.5q12 0 26.5 19.5t37.5 69.5l98 -50q-39 -86 -78 -118.5t-80 -32.5 q-37 0 -72.5 15.5t-64.5 31.5t-56.5 29.5t-41.5 13.5q-12 0 -25.5 -18.5t-34.5 -71.5zM346 494h256q-33 88 -64.5 165.5t-66.5 169.5q-12 -31 -24.5 -63.5t-26.5 -71.5t-32.5 -88t-41.5 -112z" />
<glyph unicode="&#xe4;" horiz-adv-x="978" d="M20 18l451 1094q111 -258 226.5 -538.5t226.5 -550.5l-105 -29l-172 397h-346q-41 -98 -85 -201.5t-85 -199.5zM295 1341q0 29 19.5 50.5t52.5 21.5t52 -21.5t19 -50.5q0 -33 -19.5 -53t-51.5 -20q-33 0 -52.5 20.5t-19.5 52.5zM346 494h256q-33 88 -64.5 165.5 t-66.5 169.5q-12 -31 -24.5 -63.5t-26.5 -71.5t-32.5 -88t-41.5 -112zM506 1341q0 29 19.5 50.5t52.5 21.5t51 -21.5t18 -50.5q0 -33 -18.5 -53t-50.5 -20q-33 0 -52.5 20.5t-19.5 52.5z" />
<glyph unicode="&#xe5;" horiz-adv-x="978" d="M20 18l451 1094q111 -258 226.5 -538.5t226.5 -550.5l-105 -29l-172 397h-346q-41 -98 -85 -201.5t-85 -199.5zM346 494h256q-33 88 -64.5 165.5t-66.5 169.5q-12 -31 -24.5 -63.5t-26.5 -71.5t-32.5 -88t-41.5 -112zM391 1204q0 35 23.5 58.5t58.5 23.5t56.5 -23.5 t21.5 -58.5t-21.5 -57.5t-56.5 -22.5t-58.5 22.5t-23.5 57.5zM451 1204q0 -20 22 -20q20 0 21 20q0 23 -21 23q-22 0 -22 -23z" />
<glyph unicode="&#xe6;" horiz-adv-x="1536" d="M31 51l690 1028h696v-112h-520v-293h432v-115h-432v-446h555v-113h-672v352h-407l-21 -28q-10 -16 -23.5 -34t-23.5 -34l-182 -272zM442 467h338v500l-153 -226q-47 -74 -91 -138t-94 -136z" />
<glyph unicode="&#xe7;" horiz-adv-x="970" d="M41 530q-2 113 41 213.5t116.5 175t173 118.5t210.5 46q72 0 154.5 -24.5t174.5 -77.5l-71 -94q-72 47 -136.5 64.5t-121.5 17.5q-90 0 -170 -37t-138.5 -97.5t-91 -139.5t-32.5 -165q0 -92 37.5 -169.5t99 -135t141.5 -90.5t164 -31q63 0 135 27t147 80l68 -94 q-186 -123 -346 -127h-4v-43q53 -16 86 -64.5t33 -103.5q0 -76 -50.5 -126t-125.5 -50q-70 0 -127.5 50t-71.5 146l119 25l2 -53l10 -25q29 -29 68 -29q29 0 43 18.5t14 47.5q0 16 -14.5 33.5t-30.5 25.5q-8 0 -17.5 1t-17.5 1h-35v158q-92 18 -172 67.5t-138 120t-92 157.5 t-34 183z" />
<glyph unicode="&#xe8;" horiz-adv-x="806" d="M125 0v1077h635v-114h-518v-275h348v-115h-348v-456h553v-117h-670zM184 1440h168l228 -172v2l43 -150q-109 80 -218.5 161t-220.5 159z" />
<glyph unicode="&#xe9;" horiz-adv-x="806" d="M125 0v1077h635v-114h-518v-275h348v-115h-348v-456h553v-117h-670zM233 1110l54 164l223 166q41 0 83 1t83 1q-115 -86 -221.5 -166t-221.5 -166z" />
<glyph unicode="&#xea;" horiz-adv-x="806" d="M125 0v1077h635v-114h-518v-275h348v-115h-348v-456h553v-117h-670zM135 1090l58 172l225 174h71l228 -172v2q10 -41 23.5 -81t23.5 -81l-307 221l-146 -108q-47 -35 -91 -67t-85 -60z" />
<glyph unicode="&#xeb;" horiz-adv-x="806" d="M125 0v1077h635v-114h-518v-275h348v-115h-348v-456h553v-117h-670zM260 1339q0 29 19.5 50.5t52.5 21.5t52 -21.5t19 -50.5q0 -33 -19 -53t-52 -20t-52.5 20.5t-19.5 52.5zM471 1339q0 29 19.5 50.5t52.5 21.5t51 -21.5t18 -50.5q0 -33 -18.5 -53t-50.5 -20 q-33 0 -52.5 20.5t-19.5 52.5z" />
<glyph unicode="&#xec;" horiz-adv-x="686" d="M150 1374h168l227 -172v2l43 -150q-109 80 -218.5 161t-219.5 159zM312 0v1079h116v-1079h-116z" />
<glyph unicode="&#xed;" horiz-adv-x="686" d="M127 1049l54 164l223 166q41 0 83 1t83 1q-115 -86 -221.5 -166t-221.5 -166zM295 0v1079h116v-1079h-116z" />
<glyph unicode="&#xee;" horiz-adv-x="915" d="M133 988l58 172l225 174h72l227 -172v2q10 -41 23.5 -81t23.5 -81l-307 221l-146 -108q-47 -35 -91 -67t-85 -60zM389 0v1079h116v-1079h-116z" />
<glyph unicode="&#xef;" horiz-adv-x="686" d="M117 1282q0 29 19 50t52 21t52.5 -21.5t19.5 -49.5q0 -33 -19.5 -53.5t-52.5 -20.5t-52 20.5t-19 53.5zM238 0v1079h116v-1079h-116zM328 1282q0 29 19 50t52 21t51.5 -21.5t18.5 -49.5q0 -33 -18.5 -53.5t-51.5 -20.5t-52 20.5t-19 53.5z" />
<glyph unicode="&#xf1;" horiz-adv-x="1124" d="M125 0v1128l706 -940v875h117v-1223l-708 940v-780h-115zM260 1260q39 90 79 121.5t81 31.5q33 0 68.5 -16.5t66.5 -32.5q33 -16 58.5 -27.5t41.5 -11.5q12 0 26.5 19.5t37.5 68.5l98 -49q-39 -86 -78 -119t-80 -33q-37 0 -72.5 15.5t-64.5 32.5q-29 16 -56.5 29.5 t-41.5 13.5q-12 0 -25.5 -18.5t-33.5 -72.5z" />
<glyph unicode="&#xf2;" horiz-adv-x="1329" d="M88 537q0 113 43 213t119 175.5t175 118.5t214 43q113 0 213 -43t174 -118.5t117 -176t43 -212.5q0 -115 -43 -214.5t-117 -174t-174 -117.5t-213 -43q-115 0 -214 43t-175 117.5t-119 174t-43 214.5zM205 537q0 -90 33.5 -168t92 -136.5t138.5 -92.5t170 -34 q88 0 167 34t138.5 92.5t93 136.5t33.5 168t-33.5 168.5t-93 137t-138.5 92.5t-167 34q-90 0 -170 -34t-138.5 -92.5t-92 -137t-33.5 -168.5zM401 1438h168l228 -172v2l43 -150q-109 80 -218.5 161t-220.5 159z" />
<glyph unicode="&#xf3;" horiz-adv-x="1329" d="M88 537q0 113 43 213t119 175.5t175 118.5t214 43q113 0 213 -43t174 -118.5t117 -176t43 -212.5q0 -115 -43 -214.5t-117 -174t-174 -117.5t-213 -43q-115 0 -214 43t-175 117.5t-119 174t-43 214.5zM205 537q0 -90 33.5 -168t92 -136.5t138.5 -92.5t170 -34 q88 0 167 34t138.5 92.5t93 136.5t33.5 168t-33.5 168.5t-93 137t-138.5 92.5t-167 34q-90 0 -170 -34t-138.5 -92.5t-92 -137t-33.5 -168.5zM422 1110l53 164l223 166q41 0 83 1t83 1q-115 -86 -221 -166t-221 -166z" />
<glyph unicode="&#xf4;" horiz-adv-x="1329" d="M88 537q0 113 43 213t119 175.5t175 118.5t214 43q113 0 213 -43t174 -118.5t117 -176t43 -212.5q0 -115 -43 -214.5t-117 -174t-174 -117.5t-213 -43q-115 0 -214 43t-175 117.5t-119 174t-43 214.5zM205 537q0 -90 33.5 -168t92 -136.5t138.5 -92.5t170 -34 q88 0 167 34t138.5 92.5t93 136.5t33.5 168t-33.5 168.5t-93 137t-138.5 92.5t-167 34q-90 0 -170 -34t-138.5 -92.5t-92 -137t-33.5 -168.5zM326 1090l57 172l225 174h72l227 -172v2q10 -41 23.5 -81t23.5 -81l-307 221l-145 -108q-47 -35 -91 -67t-85 -60z" />
<glyph unicode="&#xf5;" horiz-adv-x="1329" d="M88 537q0 113 43 213t119 175.5t175 118.5t214 43q113 0 213 -43t174 -118.5t117 -176t43 -212.5q0 -115 -43 -214.5t-117 -174t-174 -117.5t-213 -43q-115 0 -214 43t-175 117.5t-119 174t-43 214.5zM205 537q0 -90 33.5 -168t92 -136.5t138.5 -92.5t170 -34 q88 0 167 34t138.5 92.5t93 136.5t33.5 168t-33.5 168.5t-93 137t-138.5 92.5t-167 34q-90 0 -170 -34t-138.5 -92.5t-92 -137t-33.5 -168.5zM362 1296q39 90 79 122t81 32q33 0 69 -16.5t66 -32.5q33 -16 58.5 -27.5t42.5 -11.5q12 0 26.5 19.5t36.5 68.5l99 -49 q-39 -86 -78 -119t-80 -33q-37 0 -73 15.5t-64 31.5q-29 16 -56.5 29.5t-42.5 13.5q-12 0 -25.5 -18t-33.5 -72z" />
<glyph unicode="&#xf6;" horiz-adv-x="1329" d="M88 537q0 113 43 213t119 175.5t175 118.5t214 43q113 0 213 -43t174 -118.5t117 -176t43 -212.5q0 -115 -43 -214.5t-117 -174t-174 -117.5t-213 -43q-115 0 -214 43t-175 117.5t-119 174t-43 214.5zM205 537q0 -90 33.5 -168t92 -136.5t138.5 -92.5t170 -34 q88 0 167 34t138.5 92.5t93 136.5t33.5 168t-33.5 168.5t-93 137t-138.5 92.5t-167 34q-90 0 -170 -34t-138.5 -92.5t-92 -137t-33.5 -168.5zM465 1341q0 29 19.5 50.5t52.5 21.5t52 -21.5t19 -50.5q0 -33 -19.5 -53t-51.5 -20q-33 0 -52.5 20.5t-19.5 52.5zM676 1341 q0 29 19.5 50.5t52.5 21.5t51 -21.5t18 -50.5q0 -33 -18.5 -53t-50.5 -20q-33 0 -52.5 20.5t-19.5 52.5z" />
<glyph unicode="&#xf7;" horiz-adv-x="1187" d="M178 555v119h881v-119h-881zM557 361q0 29 20 50t51 21q33 0 53.5 -21.5t20.5 -49.5q0 -33 -20.5 -52.5t-53.5 -19.5q-31 0 -51 19.5t-20 52.5zM557 903q0 31 20 52.5t51 21.5q33 0 53.5 -21.5t20.5 -52.5t-20.5 -50t-53.5 -19q-31 0 -51 19.5t-20 49.5z" />
<glyph unicode="&#xf8;" horiz-adv-x="1234" d="M41 537q0 115 44 215t119 176t176 119t218 43q70 0 147 -23q10 29 23.5 59.5t24.5 59.5q16 35 32.5 74.5t26.5 72.5h127l-123 -307q135 -70 214 -198t79 -291q0 -115 -43 -214.5t-118 -173t-175 -116.5t-215 -43q-78 0 -143 16q-10 -31 -23.5 -60.5t-23.5 -58.5l-25 -63 l-47 -119h-127l135 340q-141 66 -222 195t-81 297zM160 537q0 -57 18.5 -112.5t49 -105t72.5 -90.5t91 -69l311 796q-27 8 -53 10.5t-51 2.5q-92 0 -172 -34t-139.5 -93.5t-93 -138t-33.5 -166.5zM498 115q43 -6 100 -6q88 0 168 33.5t138.5 92t93 136.5t34.5 166 q0 117 -61.5 216t-159.5 154z" />
<glyph unicode="&#xf9;" horiz-adv-x="1144" d="M111 408v669h114v-669q0 -63 25.5 -117.5t71 -95.5t103.5 -65t126 -24q66 0 124 24t101 65t67.5 95t24.5 118v669h117v-669q0 -86 -35 -163t-93 -133.5t-138 -90t-168 -33.5q-90 0 -170 33.5t-140.5 90t-95 133.5t-34.5 163zM328 1438h168l227 -172v2l43 -150 q-109 80 -218.5 161t-219.5 159z" />
<glyph unicode="&#xfa;" horiz-adv-x="1144" d="M111 408v669h114v-669q0 -63 25.5 -117.5t71 -95.5t103.5 -65t126 -24q66 0 124 24t101 65t67.5 95t24.5 118v669h117v-669q0 -86 -35 -163t-93 -133.5t-138 -90t-168 -33.5q-90 0 -170 33.5t-140.5 90t-95 133.5t-34.5 163zM338 1110l53 164l223 166q41 0 83 1t83 1 q-115 -86 -221 -166t-221 -166z" />
<glyph unicode="&#xfb;" horiz-adv-x="1144" d="M111 408v669h114v-669q0 -63 25.5 -117.5t71 -95.5t103.5 -65t126 -24q66 0 124 24t101 65t67.5 95t24.5 118v669h117v-669q0 -86 -35 -163t-93 -133.5t-138 -90t-168 -33.5q-90 0 -170 33.5t-140.5 90t-95 133.5t-34.5 163zM238 1112l57 172l225 174h72l227 -172v2 q10 -41 23.5 -81t23.5 -81l-307 222l-145 -109q-47 -35 -91 -66.5t-85 -60.5z" />
<glyph unicode="&#xfc;" horiz-adv-x="1144" d="M111 408v669h114v-669q0 -63 25.5 -117.5t71 -95.5t103.5 -65t126 -24q66 0 124 24t101 65t67.5 95t24.5 118v669h117v-669q0 -86 -35 -163t-93 -133.5t-138 -90t-168 -33.5q-90 0 -170 33.5t-140.5 90t-95 133.5t-34.5 163zM377 1341q0 29 19.5 50.5t52.5 21.5t52 -21.5 t19 -50.5q0 -33 -19.5 -53t-51.5 -20q-33 0 -52.5 20.5t-19.5 52.5zM588 1341q0 29 19 50.5t52 21.5t51.5 -21.5t18.5 -50.5q0 -33 -18.5 -53t-51.5 -20t-52 20.5t-19 52.5z" />
<glyph unicode="&#xfd;" horiz-adv-x="1173" d="M172 1049l102 51l308 -539l305 539l106 -51l-356 -619v-430h-115v434zM393 1151l53 164l224 166q41 0 83 1t83 1q-115 -86 -221.5 -166t-221.5 -166z" />
<glyph unicode="&#xfe;" horiz-adv-x="1071" d="M90 -395v1724h119v-477q57 76 139 127t174 51t169 -44t132.5 -117.5t85 -168t29.5 -194.5q0 -98 -29.5 -192.5t-85 -166t-132.5 -115.5t-169 -44q-94 0 -175 48t-138 124v-555h-119zM209 469q10 -63 37.5 -129t68.5 -118t93.5 -85t113.5 -33q68 0 124 36t96 92.5 t61.5 128t21.5 145.5t-21.5 147.5t-61.5 132t-96 94t-124 35.5q-61 0 -113.5 -33.5t-93.5 -88t-68.5 -121t-37.5 -131.5v-72z" />
<glyph unicode="&#xff;" horiz-adv-x="913" d="M29 1049l102 51l307 -539l305 539l107 -51l-356 -619v-430h-115v434zM266 1341q0 29 19.5 50.5t52.5 21.5t52.5 -21.5t19.5 -50.5q0 -33 -19.5 -53t-52.5 -20t-52.5 20.5t-19.5 52.5zM477 1341q0 29 19.5 50.5t52.5 21.5t51 -21.5t18 -50.5q0 -33 -18 -53t-51 -20 t-52.5 20.5t-19.5 52.5z" />
<glyph unicode="&#x152;" horiz-adv-x="1947" d="M104 674q0 139 53.5 262t145.5 215t215 145.5t264 53.5h1041v-117h-662v-387h445v-117h-445v-610h707v-119h-1088q-141 0 -264 53t-214 144.5t-144.5 214.5t-53.5 262zM223 674q0 -115 44 -216.5t119 -177t176.5 -118.5t217.5 -43h260v1114h-258q-117 0 -218 -44 t-177 -120t-120 -177t-44 -218z" />
<glyph unicode="&#x153;" horiz-adv-x="1597" d="M104 539q0 113 42 211t116 171.5t173.5 115.5t213.5 42h828v-112h-523v-283h351v-111h-351v-458h557v-115h-864q-113 0 -212 42t-173 114.5t-116 171t-42 211.5zM219 539q0 -88 34 -165t92 -134.5t136 -91t166 -33.5h193v852h-191q-90 0 -168 -34t-136 -92.5t-92 -136 t-34 -165.5z" />
<glyph unicode="&#x178;" horiz-adv-x="1255" d="M285 1325l108 53l443 -708q109 174 222 354t220 354l106 -53l-489 -784q0 -63 -1 -128t-1 -134v-279h-115l-4 543q-121 193 -246 391.5t-243 390.5zM668 1477q0 29 19 50t52 21t52.5 -21.5t19.5 -49.5q0 -33 -19.5 -53.5t-52.5 -20.5t-52 20.5t-19 53.5zM879 1477 q0 29 19 50t52 21t51.5 -21.5t18.5 -49.5q0 -33 -18.5 -53.5t-51.5 -20.5t-52 20.5t-19 53.5z" />
<glyph unicode="&#x2c6;" horiz-adv-x="681" d="M14 1303l58 172l225 174h72l227 -172v2q10 -41 23.5 -81t23.5 -81l-307 221l-146 -108q-47 -35 -91 -67t-85 -60z" />
<glyph unicode="&#x2dc;" horiz-adv-x="499" d="M-37 1456q39 90 79 122t81 32q33 0 68.5 -16.5t66.5 -32.5q33 -16 58.5 -27.5t41.5 -11.5q12 0 26.5 19.5t37.5 68.5l98 -49q-39 -86 -78 -119t-80 -33q-37 0 -72.5 15.5t-64.5 31.5t-56.5 29.5t-41.5 13.5q-12 0 -25.5 -18.5t-33.5 -71.5z" />
<glyph unicode="&#x2000;" horiz-adv-x="973" />
<glyph unicode="&#x2001;" horiz-adv-x="1946" />
<glyph unicode="&#x2002;" horiz-adv-x="973" />
<glyph unicode="&#x2003;" horiz-adv-x="1946" />
<glyph unicode="&#x2004;" horiz-adv-x="648" />
<glyph unicode="&#x2005;" horiz-adv-x="486" />
<glyph unicode="&#x2006;" horiz-adv-x="324" />
<glyph unicode="&#x2007;" horiz-adv-x="324" />
<glyph unicode="&#x2008;" horiz-adv-x="243" />
<glyph unicode="&#x2009;" horiz-adv-x="389" />
<glyph unicode="&#x200a;" horiz-adv-x="108" />
<glyph unicode="&#x2010;" horiz-adv-x="1136" d="M127 555v119h881v-119h-881z" />
<glyph unicode="&#x2011;" horiz-adv-x="1136" d="M127 555v119h881v-119h-881z" />
<glyph unicode="&#x2012;" horiz-adv-x="1136" d="M127 555v119h881v-119h-881z" />
<glyph unicode="&#x2013;" horiz-adv-x="1331" d="M127 555v119h1030v-119h-1030z" />
<glyph unicode="&#x2014;" horiz-adv-x="1482" d="M131 555v119h1169v-119h-1169z" />
<glyph unicode="&#x2018;" horiz-adv-x="346" d="M113 1204v291h120v-182z" />
<glyph unicode="&#x2019;" horiz-adv-x="372" d="M55 1069l117 254l166 57l-166 -364z" />
<glyph unicode="&#x201c;" horiz-adv-x="458" d="M115 1204v291h123v-182zM270 1204v291h123v-182z" />
<glyph unicode="&#x201d;" horiz-adv-x="462" d="M98 1313v182h123v-295zM274 1313v182h123v-295z" />
<glyph unicode="&#x2022;" horiz-adv-x="380" d="M72 612q0 47 32.5 81t77.5 34q49 0 81 -34t32 -81q0 -49 -32 -79.5t-81 -30.5q-45 0 -77.5 30.5t-32.5 79.5z" />
<glyph unicode="&#x2026;" horiz-adv-x="1927" d="M137 72q0 29 18.5 50t51.5 21t52.5 -21.5t19.5 -49.5q0 -33 -19.5 -52.5t-52.5 -19.5t-51.5 19.5t-18.5 52.5zM870 72q0 29 18.5 50t53.5 21q31 0 50.5 -21.5t19.5 -49.5q0 -33 -19.5 -52.5t-50.5 -19.5q-35 0 -53.5 19.5t-18.5 52.5zM1585 72q0 29 18.5 50t51.5 21 t52 -21.5t19 -49.5q0 -33 -19 -52.5t-52 -19.5t-51.5 19.5t-18.5 52.5z" />
<glyph unicode="&#x202f;" horiz-adv-x="389" />
<glyph unicode="&#x2039;" horiz-adv-x="540" d="M-37 686l469 600v-90q0 -20 1 -38.5t1 -22.5v-35l-325 -414l90 -111l235 -296q0 -4 -1 -12.5t-1 -12.5v-156q-23 27 -57.5 70t-72.5 90t-73.5 91t-60.5 75l-92 117z" />
<glyph unicode="&#x203a;" horiz-adv-x="540" d="M88 240v34l236 301l90 111l-326 418v31q0 4 1 21.5t1 37.5v92l473 -600l-473 -594v92q0 20 -1 36t-1 20z" />
<glyph unicode="&#x205f;" horiz-adv-x="486" />
<glyph unicode="&#x20ac;" horiz-adv-x="1316" d="M31 475v117h166q-4 25 -4 48.5v37.5v29.5t4 37.5h-166v119h188q29 119 95.5 212t155.5 157.5t194.5 97.5t216.5 33q139 0 327 -82q-23 -35 -31 -53.5t-12 -30.5q0 -4 -2 -14t-2 -13q-168 72 -282 72q-80 0 -157 -22.5t-144.5 -64.5t-123 -103.5t-92.5 -139.5v2l-16 -43 q-4 -6 -2 0.5t-2 -8.5h627v-119h-656q-2 -16 -3 -35.5t-1 -35.5v-39t4 -43h656v-117h-623q29 -90 82 -158.5t124 -114.5t155 -71t174 -25q78 0 162.5 26t166.5 81l66 -98q-96 -63 -202.5 -95t-196.5 -32q-113 0 -217.5 33.5t-190.5 96t-151.5 152.5t-98.5 205h-188z" />
<glyph unicode="&#x2122;" horiz-adv-x="952" d="M72 1346v81h354v43l182 -215l172 205v-430h-84v195q-25 -27 -49 -57.5t-39 -49.5l-98 117v-205h-84v316h-137v-316h-84v316h-133z" />
<glyph unicode="&#x25fc;" horiz-adv-x="1095" d="M0 0v1096h1096v-1096h-1096z" />
</font>
</defs>
</svg>
